<svg width="148" height="40" viewBox="0 0 148 40" fill="none" xmlns="http://www.w3.org/2000/svg">
<path d="M0 0H9.28161C12.5083 0 14.862 0.761905 16.3425 2.28572C17.823 3.77143 18.5632 6.07619 18.5632 9.2V11.6571C18.5632 15.8095 17.1966 18.4381 14.4634 19.5429V19.6571C15.9818 20.1143 17.0448 21.0476 17.6521 22.4571C18.2975 23.8667 18.6202 25.7524 18.6202 28.1143V35.1429C18.6202 36.2857 18.6581 37.2191 18.7341 37.9429C18.81 38.6286 18.9998 39.3143 19.3035 40H12.9259C12.6982 39.3524 12.5463 38.7429 12.4704 38.1714C12.3945 37.6 12.3565 36.5714 12.3565 35.0857V27.7714C12.3565 25.9429 12.0528 24.6667 11.4454 23.9429C10.876 23.219 9.87002 22.8571 8.42748 22.8571H6.26367V40H0V0ZM8.54136 17.1429C9.7941 17.1429 10.7242 16.819 11.3315 16.1714C11.9769 15.5238 12.2996 14.4381 12.2996 12.9143V9.82857C12.2996 8.38095 12.0338 7.33333 11.5024 6.68572C11.0089 6.0381 10.2117 5.71429 9.11079 5.71429H6.26367V17.1429H8.54136Z" fill="#D81F26"/>
<path d="M22.966 0H40.0488V5.71429H29.2297V16.2857H37.828V22H29.2297V34.2857H40.0488V40H22.966V0Z" fill="#D81F26"/>
<path d="M43.6521 0H53.2185C56.3313 0 58.666 0.838096 60.2224 2.51429C61.7788 4.19048 62.557 6.64762 62.557 9.88572V30.1143C62.557 33.3524 61.7788 35.8095 60.2224 37.4857C58.666 39.1619 56.3313 40 53.2185 40H43.6521V0ZM53.1046 34.2857C54.1295 34.2857 54.9078 33.9809 55.4392 33.3714C56.0086 32.7619 56.2934 31.7714 56.2934 30.4V9.6C56.2934 8.22857 56.0086 7.2381 55.4392 6.62857C54.9078 6.01905 54.1295 5.71429 53.1046 5.71429H49.9158V34.2857H53.1046Z" fill="#D81F26"/>
<path d="M66.785 0H73.0487V40H66.785V0Z" fill="#D81F26"/>
<path d="M77.7397 0H94.31V5.71429H84.0034V16.8571H92.0892V22.5714H84.0034V40H77.7397V0Z" fill="#D81F26"/>
<path d="M97.3137 0H103.577V34.2857H113.884V40H97.3137V0Z" fill="#D81F26"/>
<path d="M116.888 0H123.151V40H116.888V0Z" fill="#D81F26"/>
<path d="M133.366 19.5429L126.476 0H133.081L137.295 12.9143H137.409L141.736 0H147.658L140.768 19.5429L148 40H141.395L136.839 26.0571H136.725L132.056 40H126.134L133.366 19.5429Z" fill="#D81F26"/>
</svg>
