<svg width="21" height="23" viewBox="6 0 20 25" fill="none" xmlns="http://www.w3.org/2000/svg" version="1.1" xmlns:xlink="http://www.w3.org/1999/xlink"><g><path fill-rule="evenodd" clip-rule="evenodd" d="M11.765 7.957v3.18c0 0.215 -0.044 0.433 -0.133 0.634 -1.412 3.2 -3.496 4.77 -5.495 5.127a0.2 0.2 0 0 0 -0.11 0.057l-0.015 0.02v5.137l0.003 0.005q0.013 0.011 0.034 0.011c1.637 -0.099 2.698 0.076 3.512 0.353 0.4 0.137 0.725 0.292 0.997 0.426l0.07 0.035c0.247 0.121 0.43 0.212 0.628 0.282 0.11 0.04 0.445 0.089 1.028 0.115 0.545 0.025 1.22 0.028 1.939 0.016a87 87 0 0 0 4.033 -0.172l0.024 -0.002h0.025a0.7 0.7 0 0 0 0.221 -0.026c0.038 -0.012 0.05 -0.023 0.053 -0.025l0.016 -0.023a0.4 0.4 0 0 0 0.034 -0.108c0.056 -0.279 -0.005 -0.683 -0.09 -1.16 -0.094 -0.523 0.17 -0.978 0.522 -1.21 0.613 -0.407 0.629 -0.899 0.575 -1.065 -0.1 -0.307 -0.136 -0.763 0.123 -1.17 0.256 -0.4 0.249 -0.657 0.21 -0.815 -0.047 -0.193 -0.177 -0.384 -0.364 -0.566 -0.419 -0.41 -0.468 -1.037 -0.224 -1.504 0.104 -0.199 0.104 -0.328 0.089 -0.41a0.7 0.7 0 0 0 -0.174 -0.319 1.4 1.4 0 0 0 -0.495 -0.345h-4.156v-2.717c0 -2.387 -0.551 -3.273 -1.004 -3.606 -0.466 -0.343 -1.114 -0.325 -1.876 -0.155M14.52 6.85c1.065 0.783 1.636 2.333 1.636 4.869v1.164h2.7c0.165 0 0.318 0.044 0.424 0.08q0.182 0.064 0.37 0.167c0.245 0.135 0.521 0.335 0.76 0.602 0.239 0.268 0.46 0.629 0.544 1.078 0.075 0.4 0.028 0.822 -0.15 1.242 0.248 0.276 0.511 0.659 0.631 1.15 0.146 0.602 0.054 1.26 -0.346 1.937 0.25 0.87 -0.085 1.942 -1.021 2.661 0.07 0.411 0.145 0.993 0.041 1.513 -0.069 0.343 -0.227 0.724 -0.566 1.013 -0.334 0.285 -0.755 0.405 -1.212 0.409 -1.033 0.068 -2.627 0.15 -4.084 0.173 -0.734 0.012 -1.442 0.01 -2.03 -0.017 -0.552 -0.025 -1.104 -0.074 -1.454 -0.198 -0.285 -0.101 -0.548 -0.232 -0.78 -0.347l-0.078 -0.037a7 7 0 0 0 -0.819 -0.353c-0.598 -0.203 -1.463 -0.367 -2.949 -0.277A1.556 1.556 0 0 1 4.5 22.113v-5.136c0 -0.883 0.684 -1.485 1.378 -1.61 1.396 -0.249 3.12 -1.389 4.376 -4.232V7.95c0 -0.695 0.456 -1.342 1.16 -1.502 0.806 -0.183 2.06 -0.367 3.107 0.402" fill="white"></path></g><path fill-rule="evenodd" clip-rule="evenodd" d="M17.765 1.957v3.18c0 0.215 -0.044 0.433 -0.133 0.634 -1.413 3.2 -2.546 5.205 -2.546 5.205 -0.049 0.008 -0.063 0.5 -0.086 0.524 0.086 -1.991 1.254 1.5 0 0.5l0.982 1.564s1.648 -0.566 1.65 -0.564c0.008 0.008 -0.376 0.5 -0.376 0.5 1.637 -0.099 0.43 -0.277 1.244 0 0.4 0.136 0.728 -0.134 1 0 0 0 -0.022 0.989 0 1 0.247 0.122 0.55 0.258 0.747 0.328 0.11 0.04 -0.583 1.645 0 1.672 0.545 0.025 -0.744 0.867 -0.024 0.855a87 87 0 0 0 4.033 -0.172l0.024 -0.002h0.025a0.7 0.7 0 0 0 0.221 -0.026 0.2 0.2 0 0 0 0.052 -0.025 0.1 0.1 0 0 0 0.017 -0.023 0.4 0.4 0 0 0 0.034 -0.108c0.056 -0.279 -0.005 -0.683 -0.09 -1.16 -0.095 -0.523 0.17 -0.978 0.522 -1.21 0.613 -0.407 0.629 -0.899 0.575 -1.065 -0.1 -0.307 -0.136 -0.763 0.123 -1.17 0.256 -0.4 0.249 -0.657 0.21 -0.815 -0.047 -0.193 -0.178 -0.384 -0.364 -0.566 -0.419 -0.41 -0.468 -1.036 -0.224 -1.504 0.104 -0.199 0.104 -0.328 0.089 -0.41a0.7 0.7 0 0 0 -0.174 -0.319 1.4 1.4 0 0 0 -0.495 -0.345h-4.156V5.718c0 -2.387 -0.551 -3.273 -1.004 -3.606 -0.466 -0.343 -1.114 -0.325 -1.876 -0.155M20.52 0.85c1.064 0.783 1.636 2.333 1.636 4.869v1.164h2.7c0.164 0 0.318 0.044 0.424 0.08q0.181 0.064 0.37 0.167c0.245 0.135 0.521 0.335 0.76 0.602 0.238 0.268 0.46 0.629 0.544 1.078 0.074 0.4 0.028 0.822 -0.15 1.242 0.248 0.276 0.511 0.659 0.631 1.15 0.146 0.602 0.054 1.26 -0.346 1.937 0.25 0.87 -0.085 1.942 -1.022 2.661 0.07 0.411 0.146 0.993 0.042 1.513 -0.069 0.343 -0.227 0.724 -0.566 1.013 -0.334 0.285 -0.755 0.405 -1.212 0.409 -1.033 0.068 -2.627 0.15 -4.084 0.173 -0.734 0.012 0.564 -1.525 -0.024 -1.552 -0.552 -0.025 0.127 -0.231 -0.223 -0.355 -0.285 -0.1 0.233 -0.885 0 -1h-0.5c-0.26 -0.128 0.754 -1.619 0.449 -1.723 -0.598 -0.203 -1.463 -0.367 -2.949 -0.277a1.556 1.556 0 0 1 -1.637 -1.565l-0.277 -1.46c0 -0.882 -1.28 -2.85 -0.586 -2.975 1.397 -0.25 0.586 0 1.754 -2.865V1.95c0 -0.695 0.456 -1.342 1.16 -1.502 0.806 -0.183 2.06 -0.367 3.106 0.402" fill="white"></path></svg>