<svg width="129" height="156" viewBox="0 0 129 156" fill="none" xmlns="http://www.w3.org/2000/svg">
<mask id="path-1-outside-1_3447_1461" maskUnits="userSpaceOnUse" x="-0.46814" y="-0.752014" width="129" height="157" fill="black">
<rect fill="white" x="-0.46814" y="-0.752014" width="129" height="157"/>
<path d="M63.976 151.696C52.008 151.696 41.536 149.928 32.56 146.392C23.584 142.72 16.58 137.62 11.548 131.092C6.51599 124.428 3.99999 116.676 3.99999 107.836C3.99999 98.996 6.44799 91.516 11.344 85.396C16.376 79.14 23.38 74.448 32.356 71.32C41.332 68.056 51.872 66.424 63.976 66.424C76.216 66.424 86.824 68.056 95.8 71.32C104.912 74.448 111.916 79.14 116.812 85.396C121.844 91.516 124.36 98.996 124.36 107.836C124.36 116.676 121.844 124.428 116.812 131.092C111.78 137.62 104.708 142.72 95.596 146.392C86.62 149.928 76.08 151.696 63.976 151.696ZM63.976 127.42C72.272 127.42 78.8 125.584 83.56 121.912C88.456 118.24 90.904 113.208 90.904 106.816C90.904 100.424 88.456 95.46 83.56 91.924C78.8 88.252 72.272 86.416 63.976 86.416C55.816 86.416 49.356 88.252 44.596 91.924C39.836 95.46 37.456 100.424 37.456 106.816C37.456 113.208 39.836 118.24 44.596 121.912C49.356 125.584 55.816 127.42 63.976 127.42ZM63.976 83.152C52.96 83.152 43.304 81.656 35.008 78.664C26.848 75.672 20.456 71.32 15.832 65.608C11.344 59.76 9.09999 52.824 9.09999 44.8C9.09999 36.368 11.412 29.16 16.036 23.176C20.66 17.056 27.12 12.364 35.416 9.09998C43.712 5.69998 53.232 3.99998 63.976 3.99998C74.992 3.99998 84.58 5.69998 92.74 9.09998C101.036 12.364 107.496 17.056 112.12 23.176C116.88 29.16 119.26 36.368 119.26 44.8C119.26 52.824 116.948 59.76 112.324 65.608C107.836 71.32 101.444 75.672 93.148 78.664C84.852 81.656 75.128 83.152 63.976 83.152ZM63.976 63.772C70.912 63.772 76.352 62.208 80.296 59.08C84.376 55.952 86.416 51.668 86.416 46.228C86.416 40.516 84.308 36.096 80.092 32.968C76.012 29.84 70.64 28.276 63.976 28.276C57.448 28.276 52.144 29.84 48.064 32.968C43.984 36.096 41.944 40.516 41.944 46.228C41.944 51.668 43.916 55.952 47.86 59.08C51.804 62.208 57.176 63.772 63.976 63.772Z"/>
</mask>
<path d="M32.56 146.392L31.0455 150.094L31.0696 150.104L31.0939 150.114L32.56 146.392ZM11.548 131.092L8.35582 133.502L8.3678 133.518L8.37995 133.534L11.548 131.092ZM11.344 85.396L8.22712 82.8889L8.22051 82.8972L11.344 85.396ZM32.356 71.32L33.6723 75.0972L33.6977 75.0883L33.723 75.0792L32.356 71.32ZM95.8 71.32L94.433 75.0792L94.467 75.0915L94.5012 75.1033L95.8 71.32ZM116.812 85.396L113.662 87.8612L113.692 87.8992L113.722 87.9364L116.812 85.396ZM116.812 131.092L119.98 133.534L119.992 133.518L120.004 133.502L116.812 131.092ZM95.596 146.392L97.0621 150.114L97.0766 150.108L97.0911 150.102L95.596 146.392ZM83.56 121.912L81.16 118.712L81.1383 118.728L81.1168 118.745L83.56 121.912ZM83.56 91.924L81.1168 95.0911L81.1668 95.1297L81.218 95.1667L83.56 91.924ZM44.596 91.924L46.9813 95.135L47.0104 95.1133L47.0392 95.0911L44.596 91.924ZM44.596 121.912L42.1528 125.079L42.1528 125.079L44.596 121.912ZM35.008 78.664L33.631 82.4195L33.6409 82.4231L33.6509 82.4267L35.008 78.664ZM15.832 65.608L12.6587 68.0433L12.6903 68.0844L12.723 68.1248L15.832 65.608ZM16.036 23.176L19.2011 25.6218L19.2144 25.6046L19.2275 25.5873L16.036 23.176ZM35.416 9.09998L36.8805 12.8222L36.9068 12.8119L36.9329 12.8012L35.416 9.09998ZM92.74 9.09998L91.2015 12.7923L91.2384 12.8076L91.2755 12.8222L92.74 9.09998ZM112.12 23.176L108.929 25.5873L108.959 25.6271L108.99 25.6661L112.12 23.176ZM112.324 65.608L109.186 63.127L109.179 63.1367L112.324 65.608ZM80.296 59.08L77.8623 55.9056L77.8362 55.9256L77.8104 55.946L80.296 59.08ZM80.092 32.968L77.6583 36.1424L77.6833 36.1616L77.7086 36.1804L80.092 32.968ZM47.86 59.08L45.3744 62.214L45.3744 62.214L47.86 59.08ZM63.976 151.696V147.696C52.3932 147.696 42.4378 145.984 34.0261 142.67L32.56 146.392L31.0939 150.114C40.6342 153.872 51.6227 155.696 63.976 155.696V151.696ZM32.56 146.392L34.0745 142.69C25.635 139.237 19.2469 134.528 14.716 128.65L11.548 131.092L8.37995 133.534C13.913 140.712 21.533 146.203 31.0455 150.094L32.56 146.392ZM11.548 131.092L14.7402 128.682C10.2643 122.754 7.99999 115.86 7.99999 107.836H3.99999H-1.4618e-05C-1.4618e-05 117.491 2.7677 126.102 8.35582 133.502L11.548 131.092ZM3.99999 107.836H7.99999C7.99999 99.7815 10.2111 93.2153 14.4675 87.8948L11.344 85.396L8.22051 82.8972C2.68491 89.8167 -1.4618e-05 98.2104 -1.4618e-05 107.836H3.99999ZM11.344 85.396L14.4608 87.903C18.9431 82.3305 25.2718 78.0246 33.6723 75.0972L32.356 71.32L31.0397 67.5428C21.4881 70.8713 13.8089 75.9494 8.22713 82.8889L11.344 85.396ZM32.356 71.32L33.723 75.0792C42.1614 72.0106 52.2191 70.424 63.976 70.424V66.424V62.424C51.5249 62.424 40.5026 64.1013 30.989 67.5608L32.356 71.32ZM63.976 66.424V70.424C75.8747 70.424 85.999 72.0122 94.433 75.0792L95.8 71.32L97.167 67.5608C87.649 64.0997 76.5572 62.424 63.976 62.424V66.424ZM95.8 71.32L94.5012 75.1033C103.039 78.034 109.336 82.333 113.662 87.8612L116.812 85.396L119.962 82.9308C114.496 75.9469 106.785 70.8619 97.0987 67.5367L95.8 71.32ZM116.812 85.396L113.722 87.9364C118.097 93.2572 120.36 99.8086 120.36 107.836H124.36H128.36C128.36 98.1834 125.591 89.7748 119.902 82.8556L116.812 85.396ZM124.36 107.836H120.36C120.36 115.86 118.096 122.754 113.62 128.682L116.812 131.092L120.004 133.502C125.592 126.102 128.36 117.491 128.36 107.836H124.36ZM116.812 131.092L113.644 128.65C109.124 134.514 102.68 139.225 94.1009 142.682L95.596 146.392L97.0911 150.102C106.736 146.215 114.436 140.726 119.98 133.534L116.812 131.092ZM95.596 146.392L94.1299 142.67C85.723 145.982 75.7011 147.696 63.976 147.696V151.696V155.696C76.4589 155.696 87.517 153.874 97.0621 150.114L95.596 146.392ZM63.976 127.42V131.42C72.8254 131.42 80.3201 129.463 86.0032 125.079L83.56 121.912L81.1168 118.745C77.2799 121.705 71.7186 123.42 63.976 123.42V127.42ZM83.56 121.912L85.96 125.112C91.9145 120.646 94.904 114.401 94.904 106.816H90.904H86.904C86.904 112.014 84.9975 115.834 81.16 118.712L83.56 121.912ZM90.904 106.816H94.904C94.904 99.2277 91.9086 93.0194 85.9019 88.6813L83.56 91.924L81.218 95.1667C85.0034 97.9005 86.904 101.62 86.904 106.816H90.904ZM83.56 91.924L86.0032 88.7569C80.3201 84.3727 72.8254 82.416 63.976 82.416V86.416V90.416C71.7186 90.416 77.2799 92.1312 81.1168 95.0911L83.56 91.924ZM63.976 86.416V82.416C55.2447 82.416 47.8256 84.3807 42.1528 88.7569L44.596 91.924L47.0392 95.0911C50.8864 92.1233 56.3872 90.416 63.976 90.416V86.416ZM44.596 91.924L42.2107 88.713C36.3461 93.0695 33.456 99.2732 33.456 106.816H37.456H41.456C41.456 101.575 43.3259 97.8504 46.9813 95.135L44.596 91.924ZM37.456 106.816H33.456C33.456 114.357 36.3412 120.596 42.1528 125.079L44.596 121.912L47.0392 118.745C43.3308 115.884 41.456 112.059 41.456 106.816H37.456ZM44.596 121.912L42.1528 125.079C47.8256 129.455 55.2447 131.42 63.976 131.42V127.42V123.42C56.3872 123.42 50.8864 121.713 47.0392 118.745L44.596 121.912ZM63.976 83.152V79.152C53.312 79.152 44.1327 77.7027 36.365 74.9012L35.008 78.664L33.6509 82.4267C42.4753 85.6093 52.6079 87.152 63.976 87.152V83.152ZM35.008 78.664L36.385 74.9085C28.7786 72.1195 23.0331 68.1462 18.941 63.0912L15.832 65.608L12.723 68.1248C17.8789 74.4938 24.9173 79.2245 33.631 82.4195L35.008 78.664ZM15.832 65.608L19.0052 63.1727C15.1016 58.0862 13.1 52.0261 13.1 44.8H9.09999H5.09999C5.09999 53.6219 7.58632 61.4337 12.6587 68.0433L15.832 65.608ZM9.09999 44.8H13.1C13.1 37.1458 15.1806 30.8248 19.2011 25.6218L16.036 23.176L12.8708 20.7302C7.6434 27.4951 5.09999 35.5902 5.09999 44.8H9.09999ZM16.036 23.176L19.2275 25.5873C23.3396 20.1448 29.1569 15.861 36.8805 12.8222L35.416 9.09998L33.9515 5.37771C25.0831 8.86691 17.9804 13.9671 12.8445 20.7646L16.036 23.176ZM35.416 9.09998L36.9329 12.8012C44.6621 9.63347 53.6513 7.99998 63.976 7.99998V3.99998V-1.66893e-05C52.8127 -1.66893e-05 42.7618 1.76649 33.8991 5.39876L35.416 9.09998ZM63.976 3.99998V7.99998C74.5896 7.99998 83.633 9.63873 91.2015 12.7923L92.74 9.09998L94.2785 5.40767C85.527 1.76123 75.3944 -1.66893e-05 63.976 -1.66893e-05V3.99998ZM92.74 9.09998L91.2755 12.8222C98.9991 15.861 104.816 20.1448 108.929 25.5873L112.12 23.176L115.311 20.7646C110.176 13.9671 103.073 8.86691 94.2045 5.37771L92.74 9.09998ZM112.12 23.176L108.99 25.6661C113.128 30.8686 115.26 37.1737 115.26 44.8H119.26H123.26C123.26 35.5623 120.632 27.4513 115.25 20.6859L112.12 23.176ZM119.26 44.8H115.26C115.26 51.9969 113.208 58.0409 109.186 63.127L112.324 65.608L115.462 68.0889C120.688 61.4791 123.26 53.651 123.26 44.8H119.26ZM112.324 65.608L109.179 63.1367C105.244 68.144 99.5333 72.1089 91.7909 74.9012L93.148 78.664L94.5051 82.4267C103.355 79.2351 110.428 74.4959 115.469 68.0793L112.324 65.608ZM93.148 78.664L91.7909 74.9012C84.0281 77.7009 74.7823 79.152 63.976 79.152V83.152V87.152C75.4737 87.152 85.6759 85.611 94.5051 82.4267L93.148 78.664ZM63.976 63.772V67.772C71.4775 67.772 77.9053 66.0814 82.7816 62.214L80.296 59.08L77.8104 55.946C74.7987 58.3346 70.3465 59.772 63.976 59.772V63.772ZM80.296 59.08L82.7297 62.2544C87.8619 58.3197 90.416 52.8281 90.416 46.228H86.416H82.416C82.416 50.5079 80.8901 53.5842 77.8623 55.9056L80.296 59.08ZM86.416 46.228H90.416C90.416 39.379 87.808 33.712 82.4754 29.7556L80.092 32.968L77.7086 36.1804C80.808 38.4799 82.416 41.6529 82.416 46.228H86.416ZM80.092 32.968L82.5257 29.7935C77.5646 25.99 71.2579 24.276 63.976 24.276V28.276V32.276C70.0221 32.276 74.4594 33.69 77.6583 36.1424L80.092 32.968ZM63.976 28.276V24.276C56.8084 24.276 50.578 26.0003 45.6303 29.7935L48.064 32.968L50.4977 36.1424C53.71 33.6796 58.0876 32.276 63.976 32.276V28.276ZM48.064 32.968L45.6303 29.7935C40.4437 33.7699 37.944 39.4302 37.944 46.228H41.944H45.944C45.944 41.6018 47.5243 38.422 50.4977 36.1424L48.064 32.968ZM41.944 46.228H37.944C37.944 52.7759 40.3885 58.2596 45.3744 62.214L47.86 59.08L50.3456 55.946C47.4435 53.6444 45.944 50.5601 45.944 46.228H41.944ZM47.86 59.08L45.3744 62.214C50.2382 66.0714 56.5886 67.772 63.976 67.772V63.772V59.772C57.7633 59.772 53.3698 58.3445 50.3456 55.946L47.86 59.08Z" fill="white" fill-opacity="0.3" mask="url(#path-1-outside-1_3447_1461)"/>
</svg>
