<svg width="94" height="26" viewBox="0 0 94 26" fill="none" xmlns="http://www.w3.org/2000/svg">
<path d="M8.67094 24.1311C8.64495 24.0573 8.61896 23.9869 8.59549 23.9165C8.57118 23.846 8.54855 23.7765 8.52759 23.7027C8.50663 23.6289 8.48652 23.5518 8.46807 23.4671C8.44963 23.3825 8.43287 23.2911 8.41694 23.1897C8.40185 23.0874 8.3876 22.9751 8.37586 22.8485C8.36413 22.7219 8.35407 22.5802 8.34568 22.4218C8.3373 22.2634 8.33143 22.0865 8.32724 21.8886C8.32305 21.6908 8.32137 21.4712 8.32137 21.2272C8.32137 21.0596 8.32137 20.902 8.32137 20.7503C8.32137 20.5994 8.32137 20.456 8.32137 20.3169C8.32137 20.1786 8.32137 20.0453 8.32137 19.9145C8.32137 19.7846 8.32137 19.6571 8.32137 19.5306C8.32137 19.404 8.32137 19.2791 8.32137 19.1533C8.32137 19.0276 8.32137 18.9002 8.32137 18.7694C8.32137 18.6395 8.32137 18.5062 8.32137 18.367C8.32137 18.2287 8.32137 18.0845 8.32137 17.9336C8.32137 17.7827 8.32137 17.6243 8.32137 17.4567C8.32137 17.2546 8.31551 17.0643 8.30293 16.8858C8.29036 16.7072 8.27108 16.5404 8.24509 16.3845C8.2191 16.2286 8.18641 16.0844 8.14617 15.9503C8.10677 15.817 8.05983 15.6937 8.00618 15.5814C7.95253 15.4691 7.89134 15.3668 7.82343 15.2738C7.75553 15.1816 7.68009 15.0986 7.59794 15.0256C7.51495 14.9527 7.42525 14.889 7.32801 14.8345C7.23077 14.78 7.12515 14.7348 7.01282 14.6979C6.89965 14.661 6.77977 14.6333 6.65152 14.6132C6.52326 14.5939 6.38662 14.5822 6.24327 14.5788C6.09909 14.5755 5.94652 14.5797 5.78641 14.5922C5.65229 14.6023 5.53493 14.6115 5.42595 14.6199C5.31697 14.6283 5.21638 14.6358 5.11579 14.6434C5.01519 14.6509 4.9146 14.6585 4.80562 14.6669C4.69664 14.6752 4.57928 14.6845 4.44516 14.6945C4.44516 14.8605 4.44516 15.0231 4.44516 15.1824C4.44516 15.3417 4.44516 15.4976 4.44516 15.651C4.44516 15.8044 4.44516 15.9545 4.44516 16.1028C4.44516 16.2504 4.44516 16.3962 4.44516 16.5387C4.44516 16.6821 4.44516 16.8221 4.44516 16.9612C4.44516 17.0995 4.44516 17.2362 4.44516 17.3712C4.44516 17.5061 4.44516 17.6394 4.44516 17.771C4.44516 17.9026 4.44516 18.0334 4.44516 18.1625C4.44516 18.2916 4.44516 18.4198 4.44516 18.5464C4.44516 18.6738 4.44516 18.7996 4.44516 18.9253C4.44516 19.0511 4.44516 19.176 4.44516 19.3009C4.44516 19.4258 4.44516 19.5498 4.44516 19.6747C4.44516 19.7997 4.44516 19.9237 4.44516 20.0486C4.44516 20.1735 4.44516 20.2984 4.44516 20.4242C4.44516 20.5499 4.44516 20.6765 4.44516 20.8031C4.44516 20.9305 4.44516 21.0579 4.44516 21.187C4.44516 21.3161 4.44516 21.446 4.44516 21.5785C4.44516 21.7109 4.44516 21.8434 4.44516 21.9783C4.44516 22.1133 4.44516 22.25 4.44516 22.3883C4.44516 22.5266 4.44516 22.6674 4.44516 22.8108C4.44516 22.9541 4.44516 23.0991 4.44516 23.2467C4.44516 23.3942 4.44516 23.5451 4.44516 23.6985C4.44516 23.8519 4.44516 24.0078 4.44516 24.1671C4.44516 24.3264 4.44516 24.489 4.44516 24.655C4.29008 24.6751 4.14338 24.6952 4.00171 24.7137C3.86088 24.7321 3.72591 24.7505 3.59598 24.7681C3.46605 24.7858 3.3403 24.8025 3.21792 24.8193C3.09553 24.8361 2.97649 24.852 2.85829 24.8679C2.74093 24.8838 2.62441 24.8998 2.50873 24.9157C2.39305 24.9316 2.27652 24.9475 2.15917 24.9643C2.04181 24.9802 1.92193 24.997 1.80038 25.0146C1.67883 25.0322 1.55309 25.049 1.42232 25.0674C1.29154 25.0859 1.15742 25.1051 1.01659 25.1253C0.875756 25.1454 0.729057 25.1663 0.573975 25.189V21.4318C0.573975 21.2843 0.573975 21.1384 0.573975 20.9925V14.1924C0.573975 14.0666 0.573975 13.9409 0.573975 13.816V6.50031C0.573975 6.36367 0.573975 6.2262 0.573975 6.08788V3.05079C0.573975 2.89906 0.573975 2.74649 0.573975 2.59224V0.686831C0.573975 0.522527 0.573975 0.357386 0.573975 0.191406H3.1299C3.25648 0.191406 3.38222 0.191406 3.50796 0.191406H6.44195C6.62469 0.191406 6.80325 0.195598 6.97761 0.203142C7.15197 0.210687 7.32047 0.222423 7.48477 0.236673C7.64907 0.251763 7.80918 0.270205 7.96427 0.292838C8.11935 0.315472 8.27024 0.341459 8.4161 0.371637C8.56196 0.401815 8.70363 0.435346 8.84027 0.473069C8.97691 0.510792 9.10936 0.551867 9.23762 0.596296C9.36587 0.640725 9.4891 0.689346 9.60814 0.742157C9.72717 0.794131 9.84202 0.850296 9.95267 0.909814C10.0633 0.969332 10.1698 1.03304 10.2712 1.09927C10.3735 1.16633 10.4707 1.23674 10.5638 1.31135C10.6568 1.38596 10.7465 1.46392 10.8312 1.54523C10.9159 1.62654 10.9972 1.71289 11.0735 1.80175C11.1506 1.8906 11.2227 1.98365 11.2914 2.08005C11.3601 2.17646 11.4247 2.27705 11.4851 2.381C11.5454 2.48494 11.6024 2.59308 11.6544 2.70457C11.7064 2.81607 11.7558 2.93175 11.8002 3.05079C11.8447 3.16982 11.8857 3.29305 11.9226 3.41963C11.9595 3.54621 11.9922 3.67698 12.0216 3.81111C12.0509 3.94523 12.076 4.08355 12.0978 4.22522C12.1196 4.36689 12.1372 4.51275 12.1515 4.6628C12.1657 4.81285 12.1766 4.96542 12.1833 5.12302C12.19 5.28061 12.1934 5.44157 12.1934 5.60671C12.1934 5.75508 12.1934 5.88753 12.1934 6.01243C12.1934 6.1365 12.1934 6.25218 12.1934 6.36451C12.1934 6.47684 12.1934 6.58666 12.1934 6.69899C12.1934 6.81132 12.1934 6.927 12.1934 7.05107C12.1934 7.17513 12.1934 7.30842 12.1934 7.45679C12.1934 7.62948 12.1884 7.79881 12.18 7.96312C12.1716 8.12742 12.159 8.28837 12.1414 8.44513C12.1247 8.60189 12.1029 8.75445 12.0777 8.90283C12.0526 9.0512 12.0224 9.19539 11.9889 9.33622C11.9545 9.47621 11.9168 9.61285 11.874 9.7453C11.8313 9.87775 11.7843 10.006 11.7332 10.1309C11.682 10.2558 11.6259 10.3757 11.5664 10.493C11.506 10.6096 11.4415 10.7227 11.3727 10.8317C11.304 10.9407 11.2302 11.0455 11.1523 11.1469C11.0743 11.2483 10.9921 11.3456 10.905 11.4386C10.8178 11.5317 10.7264 11.6222 10.6308 11.7077C10.5353 11.7932 10.4347 11.8754 10.3291 11.9542C10.2243 12.0321 10.1145 12.1067 9.99961 12.178C9.88561 12.2484 9.76657 12.3155 9.64251 12.3792C9.7716 12.4236 9.89567 12.4731 10.013 12.5276C10.1312 12.582 10.2436 12.6407 10.35 12.7036C10.4565 12.7665 10.5587 12.8352 10.6552 12.9073C10.7516 12.9794 10.8429 13.0565 10.9284 13.1378C11.0148 13.2191 11.0952 13.3046 11.1715 13.3943C11.2478 13.484 11.3191 13.5779 11.3861 13.676C11.4532 13.7741 11.5152 13.8764 11.5731 13.982C11.6309 14.0876 11.6837 14.1983 11.7332 14.3123C11.7826 14.4263 11.8271 14.5445 11.8681 14.666C11.9092 14.7876 11.9461 14.9133 11.9788 15.0424C12.0115 15.1715 12.0408 15.3048 12.0668 15.4406C12.092 15.5772 12.1146 15.7172 12.133 15.8606C12.1515 16.0039 12.1666 16.1515 12.1783 16.3015C12.19 16.4516 12.1984 16.6058 12.2043 16.7626C12.2102 16.9193 12.2127 17.0803 12.2118 17.2437C12.2118 17.4055 12.2118 17.5572 12.2118 17.7031C12.2118 17.849 12.2118 17.9873 12.2118 18.1206C12.2118 18.2539 12.2118 18.383 12.2118 18.5079C12.2118 18.6336 12.2118 18.756 12.2118 18.8775C12.2118 18.9991 12.2118 19.1198 12.2118 19.2414C12.2118 19.3629 12.2118 19.4853 12.2118 19.611C12.2118 19.7368 12.2118 19.865 12.2118 19.9983C12.2118 20.1316 12.2118 20.2699 12.2118 20.4158C12.2118 20.5616 12.2118 20.7134 12.2118 20.8752C12.2118 21.0386 12.2118 21.1954 12.2144 21.3471C12.2169 21.4988 12.2202 21.6455 12.2269 21.7872C12.2336 21.9289 12.242 22.0664 12.2546 22.2005C12.2672 22.3346 12.2831 22.4646 12.3032 22.592C12.3233 22.7194 12.3485 22.8443 12.3787 22.9667C12.4088 23.0899 12.444 23.2106 12.486 23.3305C12.5279 23.4504 12.5757 23.5694 12.631 23.6884C12.4725 23.7052 12.3225 23.7211 12.1791 23.7362C12.035 23.7513 11.8975 23.7664 11.765 23.7807C11.6326 23.7949 11.5043 23.8092 11.3794 23.8226C11.2545 23.836 11.133 23.8494 11.0131 23.8628C10.8932 23.8762 10.7742 23.8896 10.656 23.9022C10.5378 23.9148 10.4188 23.929 10.2989 23.9424C10.179 23.9559 10.0575 23.9701 9.93255 23.9844C9.80765 23.9986 9.67939 24.0137 9.54694 24.0288C9.41449 24.0439 9.27702 24.0598 9.13283 24.0766C8.98948 24.0933 8.83943 24.1109 8.681 24.1294L8.67094 24.1311ZM4.45773 3.68872C4.45773 3.85554 4.45773 4.01816 4.45773 4.1766C4.45773 4.33503 4.45773 4.48928 4.45773 4.63933C4.45773 4.78938 4.45773 4.93692 4.45773 5.08027C4.45773 5.22445 4.45773 5.36444 4.45773 5.50276C4.45773 5.64108 4.45773 5.77604 4.45773 5.91016C4.45773 6.04345 4.45773 6.17506 4.45773 6.30499C4.45773 6.43493 4.45773 6.56319 4.45773 6.6906C4.45773 6.81802 4.45773 6.94376 4.45773 7.07035C4.45773 7.19609 4.45773 7.32099 4.45773 7.44673C4.45773 7.57164 4.45773 7.69738 4.45773 7.82312C4.45773 7.94886 4.45773 8.07545 4.45773 8.20286C4.45773 8.33028 4.45773 8.45854 4.45773 8.58847C4.45773 8.71841 4.45773 8.85002 4.45773 8.9833C4.45773 9.11659 4.45773 9.25239 4.45773 9.39071C4.45773 9.52903 4.45773 9.66986 4.45773 9.8132C4.45773 9.95739 4.45773 10.1041 4.45773 10.2541C4.45773 10.4042 4.45773 10.5584 4.45773 10.7169C4.45773 10.8753 4.45773 11.0371 4.45773 11.2048C4.60946 11.1955 4.74191 11.188 4.86514 11.1804C4.98837 11.1729 5.10237 11.1662 5.21638 11.1603C5.33038 11.1536 5.44439 11.1469 5.56762 11.1402C5.69085 11.1335 5.82329 11.1251 5.97586 11.1167C6.12088 11.1083 6.26004 11.0941 6.39249 11.074C6.52577 11.053 6.65236 11.0262 6.77391 10.9918C6.89462 10.9575 7.00946 10.9164 7.1176 10.8669C7.22574 10.8175 7.32717 10.7605 7.4219 10.6951C7.51662 10.6297 7.60381 10.5551 7.68428 10.4721C7.76476 10.3891 7.83769 10.2969 7.90391 10.1946C7.97013 10.0924 8.02798 9.98086 8.07827 9.85763C8.12857 9.73524 8.17132 9.60196 8.20485 9.45777C8.23838 9.31359 8.26521 9.15851 8.28281 8.99085C8.30042 8.82319 8.30964 8.64464 8.30964 8.45267C8.30964 8.29508 8.30964 8.15089 8.30964 8.01509C8.30964 7.87929 8.30964 7.75271 8.30964 7.62948C8.30964 7.50709 8.30964 7.38889 8.30964 7.27069C8.30964 7.1525 8.30964 7.0343 8.30964 6.91191C8.30964 6.78952 8.30964 6.6621 8.30964 6.5263C8.30964 6.3905 8.30964 6.24632 8.30964 6.08872C8.30964 5.89843 8.30293 5.71987 8.28784 5.55389C8.27275 5.38708 8.25012 5.23283 8.21994 5.08949C8.18976 4.94614 8.1512 4.81369 8.10426 4.69298C8.05815 4.57227 8.00283 4.46245 7.93996 4.36353C7.87708 4.26462 7.80499 4.1766 7.72536 4.09864C7.64488 4.02068 7.55686 3.95361 7.45878 3.89745C7.36154 3.84045 7.25424 3.79434 7.13856 3.75746C7.02288 3.72057 6.89797 3.69459 6.76385 3.67782C6.62972 3.66105 6.48638 3.65435 6.33297 3.65686C6.18292 3.65938 6.04795 3.66189 5.92221 3.66441C5.79647 3.66692 5.67995 3.6686 5.56594 3.67111C5.45194 3.67279 5.34128 3.6753 5.22728 3.67698C5.11327 3.67866 4.99675 3.68117 4.87101 3.68369C4.74526 3.6862 4.6103 3.68872 4.46025 3.69123L4.45773 3.68872Z" fill="#E40A18"/>
<path d="M18.6506 9.85183C18.8149 9.84596 18.9725 9.84009 19.1251 9.83423C19.2777 9.82836 19.4252 9.82333 19.5677 9.8183C19.7102 9.81327 19.8494 9.80824 19.9843 9.80405C20.1193 9.79902 20.2509 9.79483 20.38 9.79063C20.5091 9.78644 20.6357 9.78225 20.7614 9.77722C20.8872 9.77303 21.0104 9.76884 21.1344 9.76465C21.2585 9.76046 21.3809 9.75626 21.5041 9.75207C21.6274 9.74788 21.7514 9.74369 21.8772 9.7395C22.0029 9.73531 22.1295 9.73112 22.2586 9.72693C22.3877 9.72273 22.5193 9.71854 22.6543 9.71435C22.7892 9.71016 22.9275 9.70597 23.0709 9.70178C23.2142 9.69759 23.3609 9.69256 23.5135 9.68836C23.6661 9.68333 23.8237 9.67914 23.988 9.67411C23.988 9.83506 23.988 9.98512 23.9871 10.1285C23.9871 10.2718 23.9871 10.4068 23.9871 10.5375C23.9871 10.6683 23.9871 10.7932 23.9871 10.9164C23.9871 11.0397 23.9871 11.1604 23.9871 11.2803C23.9871 11.401 23.9871 11.5217 23.9871 11.6441C23.9871 11.7665 23.9871 11.8922 23.9871 12.023C23.9871 12.1538 23.9871 12.2887 23.9871 12.4321C23.9871 12.5754 23.9871 12.7255 23.9863 12.8864C23.822 12.8931 23.6644 12.899 23.5118 12.9057C23.3592 12.9124 23.2117 12.9183 23.0692 12.9241C22.9267 12.93 22.7875 12.9359 22.6526 12.9417C22.5176 12.9476 22.386 12.9526 22.2561 12.9585C22.127 12.9644 21.9996 12.9694 21.8747 12.9753C21.7489 12.9811 21.6257 12.9862 21.5016 12.9912C21.3784 12.9971 21.2552 13.0021 21.1319 13.008C21.0087 13.0138 20.8846 13.0189 20.7589 13.0247C20.6332 13.0306 20.5066 13.0365 20.3775 13.0423C20.2484 13.0482 20.1168 13.0541 19.9818 13.0608C19.8468 13.0675 19.7085 13.0733 19.5652 13.0801C19.4218 13.0868 19.2751 13.0943 19.1226 13.101C18.97 13.1086 18.8124 13.1161 18.6481 13.1245C18.6481 13.2821 18.6481 13.4355 18.6473 13.5847C18.6473 13.7339 18.6473 13.8789 18.6464 14.0206C18.6464 14.1623 18.6464 14.2998 18.6464 14.4347C18.6464 14.5697 18.6464 14.7013 18.6464 14.8312C18.6464 14.9612 18.6464 15.0877 18.6464 15.2126C18.6464 15.3375 18.6464 15.4608 18.6464 15.5832C18.6464 15.7056 18.6464 15.8254 18.6464 15.9453C18.6464 16.0652 18.6464 16.1842 18.6464 16.3024C18.6464 16.4206 18.6464 16.5396 18.6464 16.6578C18.6464 16.776 18.6464 16.8951 18.6464 17.0149C18.6464 17.1348 18.6464 17.2547 18.6464 17.3771C18.6464 17.4995 18.6464 17.6219 18.6464 17.7476C18.6464 17.8725 18.6464 17.9999 18.6464 18.129C18.6464 18.2581 18.6464 18.3906 18.6464 18.5255C18.6464 18.6605 18.6464 18.7988 18.6464 18.9396C18.6464 19.0805 18.6464 19.2263 18.6456 19.3755C18.6456 19.5248 18.6456 19.6782 18.6448 19.8358C18.8024 19.824 18.9558 19.8123 19.105 19.8014C19.2542 19.7905 19.3992 19.7796 19.5409 19.7695C19.6825 19.7595 19.8209 19.7494 19.9558 19.7402C20.0908 19.731 20.2232 19.7209 20.3523 19.7125C20.4823 19.7033 20.6088 19.6949 20.7346 19.6857C20.8595 19.6773 20.9827 19.6689 21.1051 19.6606C21.2267 19.6522 21.3474 19.6438 21.4672 19.6363C21.5871 19.6279 21.7062 19.6203 21.8244 19.6128C21.9426 19.6052 22.0616 19.5969 22.1798 19.5893C22.298 19.5818 22.4179 19.5742 22.5369 19.5658C22.6568 19.5583 22.7775 19.5507 22.899 19.5424C23.0214 19.5348 23.1446 19.5273 23.2696 19.5189C23.3945 19.5105 23.5219 19.503 23.6518 19.4954C23.7817 19.4879 23.9134 19.4795 24.0483 19.4711C24.1833 19.4627 24.3216 19.4543 24.4633 19.446C24.6049 19.4376 24.75 19.4292 24.9 19.4208C25.0492 19.4124 25.2026 19.4032 25.3611 19.394C25.3611 19.5541 25.3611 19.7042 25.3602 19.8467C25.3602 19.9892 25.3602 20.1241 25.3602 20.2541C25.3602 20.384 25.3602 20.5089 25.3602 20.6313C25.3602 20.7537 25.3602 20.8736 25.3602 20.9934C25.3602 21.1133 25.3602 21.2332 25.3602 21.3556C25.3602 21.478 25.3602 21.6029 25.3602 21.7328C25.3602 21.8627 25.3602 21.9977 25.3602 22.1402C25.3602 22.2827 25.3602 22.4328 25.3594 22.5929C25.1959 22.6038 25.0358 22.6147 24.8791 22.6247C24.7215 22.6356 24.5672 22.6457 24.4155 22.6566C24.2638 22.6675 24.1145 22.6775 23.9678 22.6876C23.8211 22.6977 23.677 22.7086 23.5353 22.7186C23.3936 22.7287 23.2536 22.7387 23.1153 22.7488C22.977 22.7589 22.8412 22.7689 22.7071 22.779C22.5729 22.789 22.4405 22.7991 22.3089 22.8091C22.1781 22.8192 22.0482 22.8293 21.9199 22.8385C21.7917 22.8477 21.6642 22.8586 21.5377 22.8678C21.4111 22.8779 21.2862 22.8879 21.1613 22.8972C21.0364 22.9072 20.9131 22.9173 20.7899 22.9265C20.6667 22.9357 20.5435 22.9466 20.4211 22.9567C20.2987 22.9667 20.1763 22.9768 20.0539 22.9869C19.9315 22.9969 19.8091 23.007 19.6867 23.017C19.5643 23.0271 19.4411 23.038 19.3179 23.0481C19.1947 23.0581 19.0706 23.069 18.9465 23.0799C18.8216 23.0908 18.6967 23.1017 18.571 23.1126C18.4444 23.1235 18.3178 23.1344 18.1896 23.1461C18.0613 23.1579 17.9314 23.1688 17.8006 23.1805C17.6698 23.1922 17.5374 23.204 17.4033 23.2166C17.2691 23.2291 17.1333 23.2409 16.9959 23.2543C16.8584 23.2668 16.7184 23.2803 16.5767 23.2928C16.435 23.3062 16.2909 23.3197 16.1442 23.3339C15.9975 23.3482 15.8491 23.3624 15.6974 23.3767C15.5456 23.3909 15.3922 23.406 15.2346 23.4219C15.077 23.4379 14.9178 23.4529 14.7551 23.4689C14.7551 23.3029 14.7551 23.1378 14.756 22.9743C14.756 22.8108 14.756 22.649 14.7568 22.4881C14.7568 22.3271 14.7568 22.1687 14.7576 22.0103C14.7576 21.8527 14.7576 21.6959 14.7585 21.5408C14.7585 21.3857 14.7585 21.2315 14.7585 21.0789C14.7585 20.9264 14.7585 20.7746 14.7585 20.6246C14.7585 20.4745 14.7585 20.3253 14.7585 20.1769C14.7585 20.0286 14.7585 19.8819 14.7585 19.736C14.7585 19.5901 14.7585 19.4451 14.7585 19.3018C14.7585 19.1576 14.7585 19.0151 14.7585 18.8734C14.7585 18.7317 14.7585 18.5909 14.7585 18.4509C14.7585 18.3109 14.7585 18.1718 14.7585 18.0335C14.7585 17.8951 14.7585 17.7577 14.7585 17.621C14.7585 17.4844 14.7585 17.3486 14.7585 17.2136C14.7585 17.0787 14.7585 16.9445 14.7585 16.8104C14.7585 16.6763 14.7585 16.5438 14.7585 16.4114C14.7585 16.2789 14.7585 16.1473 14.7585 16.0166C14.7585 15.8858 14.7585 15.755 14.7585 15.6251C14.7585 15.4951 14.7585 15.3652 14.7585 15.237C14.7585 15.1087 14.7585 14.9796 14.7585 14.8513C14.7585 14.7231 14.7585 14.5957 14.7585 14.4682C14.7585 14.3408 14.7585 14.2142 14.7585 14.0877C14.7585 13.9611 14.7585 13.8345 14.7585 13.7088C14.7585 13.583 14.7585 13.4573 14.7585 13.3315C14.7585 13.2058 14.7585 13.0809 14.7585 12.9551C14.7585 12.8294 14.7585 12.7053 14.7585 12.5804C14.7585 12.4555 14.7585 12.3306 14.7585 12.2057C14.7585 12.0808 14.7585 11.9559 14.7585 11.8319C14.7585 11.7069 14.7585 11.582 14.7585 11.458C14.7585 11.3339 14.7585 11.2082 14.7585 11.0833C14.7585 10.9584 14.7585 10.8335 14.7585 10.7086C14.7585 10.5836 14.7585 10.4579 14.7585 10.3322C14.7585 10.2064 14.7585 10.0807 14.7585 9.95494C14.7585 9.8292 14.7585 9.70261 14.7585 9.57603C14.7585 9.44945 14.7585 9.32287 14.7585 9.19545C14.7585 9.06804 14.7585 8.94062 14.7585 8.81236C14.7585 8.6841 14.7585 8.55585 14.7585 8.42675C14.7585 8.29766 14.7585 8.16856 14.7585 8.03863C14.7585 7.90869 14.7585 7.77792 14.7585 7.64715C14.7585 7.51638 14.7585 7.38393 14.7585 7.25232C14.7585 7.11987 14.7585 6.98742 14.7585 6.8533C14.7585 6.71917 14.7585 6.58505 14.7585 6.45008C14.7585 6.31512 14.7585 6.17932 14.7585 6.04268C14.7585 5.90604 14.7585 5.76856 14.7585 5.63024C14.7585 5.49193 14.7585 5.35277 14.7585 5.21278C14.7585 5.07278 14.7585 4.93195 14.7585 4.79028C14.7585 4.64861 14.7585 4.50527 14.7585 4.36192C14.7585 4.21774 14.7585 4.07355 14.7585 3.92769C14.7585 3.78183 14.7585 3.63513 14.7585 3.48676C14.7585 3.33838 14.7585 3.18917 14.7585 3.03911C14.7585 2.88906 14.7585 2.73733 14.7585 2.58477C14.7585 2.4322 14.7585 2.27795 14.7585 2.12287C14.7585 1.96779 14.7585 1.81103 14.7593 1.65343C14.7602 1.49584 14.7593 1.33656 14.7602 1.17561C14.7602 1.01466 14.7602 0.852875 14.761 0.68941C14.761 0.525946 14.761 0.361642 14.7618 0.194824H15.7049C15.8566 0.194824 16.005 0.194824 16.1517 0.194824H25.3661C25.3661 0.354936 25.3661 0.504988 25.3653 0.647496C25.3653 0.790004 25.3653 0.924967 25.3653 1.0549C25.3653 1.18483 25.3653 1.30974 25.3653 1.43213C25.3653 1.55452 25.3653 1.67439 25.3653 1.79427C25.3653 1.91414 25.3653 2.03401 25.3653 2.1564C25.3653 2.27879 25.3653 2.4037 25.3653 2.53363C25.3653 2.66356 25.3653 2.79853 25.3653 2.94103C25.3653 3.08354 25.3653 3.2336 25.3644 3.39371C25.206 3.39538 25.0526 3.39706 24.9034 3.3979C24.7541 3.39874 24.6091 3.40041 24.4675 3.40209C24.3258 3.40377 24.1875 3.4046 24.0525 3.40628C23.9175 3.40796 23.7851 3.4088 23.656 3.41047C23.5261 3.41215 23.3995 3.41299 23.2737 3.41466C23.1488 3.41634 23.0256 3.41718 22.9032 3.41886C22.7817 3.42053 22.661 3.42137 22.5411 3.42305C22.4212 3.42472 22.3022 3.42556 22.184 3.42724C22.0649 3.42891 21.9467 3.42975 21.8285 3.43143C21.7095 3.43311 21.5913 3.43394 21.4714 3.43562C21.3516 3.4373 21.2309 3.43814 21.1093 3.43981C20.9877 3.44149 20.8637 3.44233 20.7388 3.444C20.6139 3.44568 20.4865 3.44652 20.3565 3.4482C20.2266 3.44987 20.095 3.45155 19.96 3.45322C19.8251 3.4549 19.6867 3.45658 19.5451 3.45825C19.4034 3.45993 19.2584 3.46161 19.1092 3.46328C18.9599 3.46496 18.8065 3.46664 18.6481 3.46915C18.6481 3.62843 18.6481 3.78351 18.6473 3.93356C18.6473 4.08361 18.6473 4.22947 18.6464 4.37198C18.6464 4.51449 18.6464 4.65281 18.6464 4.78777C18.6464 4.92273 18.6464 5.05518 18.6464 5.18512C18.6464 5.31505 18.6464 5.44163 18.6464 5.56737C18.6464 5.69228 18.6464 5.81634 18.6464 5.93789C18.6464 6.06028 18.6464 6.18099 18.6464 6.30171C18.6464 6.42242 18.6464 6.54145 18.6464 6.66133C18.6464 6.7812 18.6464 6.90108 18.6464 7.02095C18.6464 7.14166 18.6464 7.26238 18.6464 7.38477C18.6464 7.50716 18.6464 7.63038 18.6464 7.75529C18.6464 7.88019 18.6464 8.00761 18.6464 8.13754C18.6464 8.26748 18.6464 8.39909 18.6464 8.53489C18.6464 8.66985 18.6464 8.80817 18.6464 8.95068C18.6464 9.09318 18.6464 9.23905 18.6456 9.3891C18.6448 9.53915 18.6456 9.69423 18.6448 9.85351L18.6506 9.85183Z" fill="#E40A18"/>
<path d="M27.7888 0.19397H28.2649C28.4183 0.19397 28.5676 0.19397 28.7126 0.19397H33.9384C34.1153 0.19397 34.288 0.198161 34.4565 0.205706C34.625 0.21325 34.7893 0.224986 34.9502 0.240914C35.1103 0.256841 35.2671 0.276121 35.4188 0.299593C35.5714 0.323065 35.7189 0.34989 35.8631 0.380907C36.0073 0.411923 36.1473 0.446293 36.2831 0.485692C36.4189 0.524253 36.5514 0.567005 36.6788 0.612272C36.807 0.658378 36.9303 0.707836 37.0501 0.761486C37.17 0.815136 37.2857 0.87214 37.3972 0.933334C37.5087 0.994529 37.6168 1.05908 37.7199 1.12698C37.8239 1.19488 37.9228 1.26697 38.0183 1.34242C38.1139 1.41786 38.2053 1.49666 38.2933 1.57965C38.3805 1.66264 38.4643 1.74898 38.544 1.83868C38.6236 1.92837 38.699 2.02226 38.7703 2.11866C38.8415 2.21591 38.9094 2.31566 38.9723 2.41961C39.036 2.52355 39.0955 2.63085 39.1509 2.74151C39.2062 2.85216 39.2582 2.96701 39.3051 3.08436C39.3529 3.20256 39.3965 3.32327 39.4359 3.44818C39.4753 3.57308 39.5113 3.70134 39.5423 3.83295C39.5742 3.96456 39.6019 4.09952 39.6253 4.23784C39.6488 4.37616 39.6689 4.51783 39.684 4.66285C39.6991 4.80787 39.7117 4.95625 39.7192 5.10798C39.7268 5.25971 39.731 5.41479 39.731 5.57322C39.731 5.73669 39.731 5.8968 39.731 6.05356C39.731 6.21115 39.731 6.3654 39.731 6.51713C39.731 6.66886 39.731 6.81807 39.731 6.96561C39.731 7.11231 39.731 7.25733 39.731 7.39984C39.731 7.54235 39.731 7.68234 39.731 7.82149C39.731 7.95981 39.731 8.09645 39.731 8.23141C39.731 8.36638 39.731 8.49966 39.731 8.63127C39.731 8.76288 39.731 8.89366 39.731 9.02275C39.731 9.15185 39.731 9.2801 39.731 9.40668C39.731 9.53326 39.731 9.65901 39.731 9.78475C39.731 9.90965 39.731 10.0337 39.731 10.1578C39.731 10.2819 39.731 10.4042 39.731 10.5275C39.731 10.6507 39.731 10.7731 39.731 10.8955C39.731 11.0179 39.731 11.1403 39.731 11.2626C39.731 11.385 39.731 11.5074 39.731 11.6306C39.731 11.7539 39.731 11.8763 39.731 12.0003C39.731 12.1244 39.731 12.2485 39.731 12.3734C39.731 12.4983 39.731 12.624 39.731 12.7514C39.731 12.878 39.731 13.0063 39.731 13.1354C39.731 13.2645 39.731 13.3944 39.731 13.5268C39.731 13.6584 39.731 13.7917 39.731 13.9267C39.731 14.0617 39.731 14.1983 39.731 14.3366C39.731 14.4749 39.731 14.6158 39.731 14.7583C39.731 14.9008 39.731 15.0458 39.731 15.1925C39.731 15.3392 39.731 15.4884 39.731 15.641C39.731 15.7927 39.731 15.947 39.731 16.1046C39.731 16.2622 39.731 16.4223 39.731 16.5849C39.731 16.7433 39.7268 16.8984 39.7184 17.0501C39.71 17.2019 39.6983 17.3502 39.6823 17.4961C39.6664 17.6411 39.6463 17.7836 39.6228 17.9228C39.5993 18.0619 39.5708 18.1969 39.539 18.3294C39.5071 18.4618 39.4711 18.5909 39.4317 18.7158C39.3923 18.8415 39.3479 18.9639 39.3001 19.083C39.2523 19.202 39.2003 19.3177 39.145 19.43C39.0897 19.5423 39.0293 19.6513 38.9656 19.7569C38.9019 19.8626 38.834 19.9648 38.7627 20.0629C38.6906 20.1618 38.6152 20.2566 38.5356 20.3488C38.4559 20.441 38.3721 20.529 38.2841 20.6137C38.1961 20.6983 38.1047 20.7805 38.0083 20.8584C37.9127 20.9364 37.8121 21.011 37.7082 21.0823C37.6042 21.1535 37.4961 21.2214 37.3846 21.2851C37.2723 21.3497 37.1566 21.41 37.0367 21.467C36.9168 21.524 36.7928 21.5777 36.6645 21.628C36.5363 21.6783 36.4038 21.7244 36.268 21.768C36.1322 21.8116 35.9914 21.8501 35.8472 21.8862C35.703 21.9222 35.5538 21.9541 35.4012 21.9834C35.2487 22.0119 35.0919 22.0371 34.931 22.0589C34.77 22.0807 34.6057 22.0983 34.4364 22.1125C34.2679 22.1268 34.0944 22.1377 33.9175 22.1444C33.7532 22.1511 33.5939 22.1569 33.4405 22.1637C33.2862 22.1704 33.137 22.1762 32.992 22.1821C32.847 22.188 32.7053 22.1947 32.567 22.2005C32.4287 22.2064 32.2946 22.2123 32.1621 22.219C32.0297 22.2248 31.9006 22.2307 31.7723 22.2366C31.6449 22.2425 31.5183 22.2483 31.3934 22.2542C31.2685 22.2601 31.1444 22.2659 31.0212 22.2718C30.898 22.2777 30.7748 22.2835 30.6515 22.2902C30.5283 22.2961 30.4042 22.3028 30.2793 22.3087C30.1544 22.3154 30.0287 22.3213 29.9004 22.328C29.773 22.3347 29.6431 22.3414 29.5106 22.3481C29.3782 22.3548 29.2441 22.3623 29.1057 22.3699C28.9674 22.3774 28.8266 22.385 28.6816 22.3933C28.5365 22.4017 28.3873 22.4101 28.2331 22.4185C28.0788 22.4277 27.9204 22.4369 27.7561 22.4462C27.7561 22.281 27.7561 22.1184 27.7569 21.9566C27.7569 21.7948 27.7569 21.6347 27.7578 21.4754C27.7578 21.3162 27.7578 21.1586 27.7586 21.0026C27.7586 20.8467 27.7586 20.6916 27.7586 20.5382C27.7586 20.3848 27.7586 20.2323 27.7586 20.0814C27.7586 19.9305 27.7586 19.7804 27.7586 19.632C27.7586 19.4837 27.7586 19.3361 27.7586 19.1903C27.7586 19.0444 27.7586 18.8985 27.7586 18.7552C27.7586 18.611 27.7586 18.4685 27.7586 18.326C27.7586 18.1843 27.7586 18.0435 27.7586 17.9035C27.7586 17.7635 27.7586 17.6244 27.7586 17.4869C27.7586 17.3494 27.7586 17.2119 27.7586 17.0753C27.7586 16.9386 27.7586 16.8037 27.7586 16.6687C27.7586 16.5338 27.7586 16.4005 27.7586 16.2672C27.7586 16.1339 27.7586 16.0014 27.7586 15.8698C27.7586 15.7382 27.7586 15.6066 27.7586 15.4767C27.7586 15.3459 27.7586 15.2168 27.7586 15.0869C27.7586 14.9569 27.7586 14.8287 27.7586 14.7004C27.7586 14.5722 27.7586 14.4448 27.7586 14.3173C27.7586 14.1899 27.7586 14.0633 27.7586 13.9368C27.7586 13.8102 27.7586 13.6844 27.7586 13.5587C27.7586 13.433 27.7586 13.308 27.7586 13.1823C27.7586 13.0574 27.7586 12.9325 27.7586 12.8084C27.7586 12.6835 27.7586 12.5595 27.7586 12.4354C27.7586 12.3113 27.7586 12.1873 27.7586 12.0632C27.7586 11.9391 27.7586 11.8159 27.7586 11.6918C27.7586 11.5678 27.7586 11.4445 27.7586 11.3213C27.7586 11.1981 27.7586 11.074 27.7586 10.9508C27.7586 10.8276 27.7586 10.7035 27.7586 10.5794C27.7586 10.4554 27.7586 10.3313 27.7586 10.2072C27.7586 10.0832 27.7586 9.95911 27.7586 9.83421C27.7586 9.7093 27.7586 9.58524 27.7586 9.46033C27.7586 9.33543 27.7586 9.20969 27.7586 9.08395C27.7586 8.9582 27.7586 8.83246 27.7586 8.70588C27.7586 8.5793 27.7586 8.45272 27.7586 8.3253C27.7586 8.19788 27.7586 8.07046 27.7586 7.94221C27.7586 7.81395 27.7586 7.68569 27.7586 7.55576C27.7586 7.42666 27.7586 7.29673 27.7586 7.16596C27.7586 7.03519 27.7586 6.90441 27.7586 6.7728C27.7586 6.64119 27.7586 6.50874 27.7586 6.37546C27.7586 6.24217 27.7586 6.10805 27.7586 5.97392C27.7586 5.8398 27.7586 5.70399 27.7586 5.56735C27.7586 5.43071 27.7586 5.29408 27.7586 5.15576C27.7586 5.01744 27.7586 4.87829 27.7586 4.73913C27.7586 4.59998 27.7586 4.45831 27.7586 4.31664C27.7586 4.17497 27.7586 4.03162 27.7586 3.88744C27.7586 3.74325 27.7586 3.59823 27.7586 3.45237C27.7586 3.30651 27.7586 3.15897 27.7586 3.0106C27.7586 2.86222 27.7586 2.71217 27.7586 2.56128C27.7586 2.41039 27.7586 2.25782 27.7586 2.10441C27.7586 1.95101 27.7586 1.79593 27.7586 1.64001C27.7586 1.48409 27.7586 1.32649 27.7595 1.16721C27.7595 1.00794 27.7595 0.847829 27.7603 0.686041C27.7611 0.524253 27.7603 0.360788 27.7611 0.196485L27.7888 0.19397ZM31.6726 3.34339C31.6726 3.50937 31.6726 3.67284 31.6726 3.83463C31.6726 3.99642 31.6726 4.15569 31.6726 4.31329C31.6726 4.47088 31.6726 4.62596 31.6726 4.78021C31.6726 4.93445 31.6726 5.08618 31.6726 5.23623C31.6726 5.38629 31.6726 5.53466 31.6726 5.68136C31.6726 5.82806 31.6726 5.97308 31.6726 6.11727C31.6726 6.26061 31.6726 6.40312 31.6726 6.54395C31.6726 6.68478 31.6726 6.82394 31.6726 6.96226C31.6726 7.10057 31.6726 7.23721 31.6726 7.37301C31.6726 7.50881 31.6726 7.64378 31.6726 7.77706C31.6726 7.91035 31.6726 8.04364 31.6726 8.17525C31.6726 8.30686 31.6726 8.43763 31.6726 8.56756C31.6726 8.6975 31.6726 8.82659 31.6726 8.95485C31.6726 9.08311 31.6726 9.21136 31.6726 9.33794C31.6726 9.46536 31.6726 9.59194 31.6726 9.71769C31.6726 9.84343 31.6726 9.96917 31.6726 10.0949C31.6726 10.2207 31.6726 10.3456 31.6726 10.4696C31.6726 10.5945 31.6726 10.7186 31.6726 10.8435C31.6726 10.9676 31.6726 11.0925 31.6726 11.2165C31.6726 11.3406 31.6726 11.4655 31.6726 11.5896C31.6726 11.7136 31.6726 11.8385 31.6726 11.9634C31.6726 12.0883 31.6726 12.2133 31.6726 12.3382C31.6726 12.4639 31.6726 12.5888 31.6726 12.7154C31.6726 12.8411 31.6726 12.9685 31.6726 13.0951C31.6726 13.2217 31.6726 13.35 31.6726 13.4782C31.6726 13.6065 31.6726 13.7356 31.6726 13.8655C31.6726 13.9954 31.6726 14.1262 31.6726 14.2578C31.6726 14.3894 31.6726 14.5219 31.6726 14.656C31.6726 14.7893 31.6726 14.9243 31.6726 15.0601C31.6726 15.1959 31.6726 15.3325 31.6726 15.4708C31.6726 15.6091 31.6726 15.7483 31.6726 15.8891C31.6726 16.0299 31.6726 16.1725 31.6726 16.3158C31.6726 16.4591 31.6726 16.605 31.6726 16.7517C31.6726 16.8984 31.6726 17.0468 31.6726 17.1968C31.6726 17.3469 31.6726 17.4986 31.6726 17.6529C31.6726 17.8063 31.6726 17.9622 31.6726 18.1198C31.6726 18.2774 31.6726 18.4367 31.6726 18.5984C31.6726 18.7602 31.6726 18.9237 31.6726 19.0897C31.8193 19.0838 31.9534 19.0788 32.0791 19.0737C32.2049 19.0687 32.3231 19.0645 32.4371 19.0603C32.5511 19.0561 32.6609 19.052 32.7707 19.0478C32.8805 19.0436 32.9903 19.0394 33.1043 19.0352C33.2183 19.031 33.3357 19.0268 33.4623 19.0226C33.588 19.0184 33.7222 19.0134 33.8689 19.0084C34.0063 19.0033 34.1379 18.9924 34.2628 18.9732C34.3878 18.9547 34.5068 18.9287 34.6183 18.8944C34.7298 18.8608 34.8354 18.8189 34.9335 18.7686C35.0316 18.7183 35.1221 18.6596 35.2059 18.5917C35.2889 18.5238 35.3652 18.4475 35.4331 18.3604C35.501 18.274 35.5613 18.1776 35.6133 18.0712C35.6653 17.9647 35.7097 17.8482 35.7449 17.7199C35.7801 17.5925 35.8078 17.4542 35.8254 17.3041C35.8438 17.1541 35.8531 16.9923 35.8531 16.8188C35.8531 16.6561 35.8531 16.4969 35.8531 16.3401C35.8531 16.1834 35.8531 16.0291 35.8531 15.8774C35.8531 15.7257 35.8531 15.5764 35.8531 15.4297C35.8531 15.283 35.8531 15.138 35.8531 14.9955C35.8531 14.853 35.8531 14.7122 35.8531 14.5739C35.8531 14.4355 35.8531 14.2981 35.8531 14.1631C35.8531 14.0281 35.8531 13.8948 35.8531 13.7624C35.8531 13.6299 35.8531 13.5 35.8531 13.3701C35.8531 13.241 35.8531 13.1127 35.8531 12.9853C35.8531 12.8579 35.8531 12.7321 35.8531 12.6072C35.8531 12.4823 35.8531 12.3574 35.8531 12.2342C35.8531 12.1101 35.8531 11.9869 35.8531 11.8645C35.8531 11.7421 35.8531 11.6197 35.8531 11.4974C35.8531 11.375 35.8531 11.2534 35.8531 11.1319C35.8531 11.0103 35.8531 10.8879 35.8531 10.7664C35.8531 10.644 35.8531 10.5216 35.8531 10.3992C35.8531 10.2768 35.8531 10.1536 35.8531 10.0295C35.8531 9.90546 35.8531 9.7814 35.8531 9.65649C35.8531 9.53159 35.8531 9.40501 35.8531 9.27843C35.8531 9.15101 35.8531 9.02359 35.8531 8.89366C35.8531 8.76372 35.8531 8.63379 35.8531 8.50134C35.8531 8.36889 35.8531 8.23561 35.8531 8.10064C35.8531 7.96568 35.8531 7.82904 35.8531 7.68988C35.8531 7.55073 35.8531 7.41074 35.8531 7.26823C35.8531 7.12572 35.8531 6.9807 35.8531 6.834C35.8531 6.6873 35.8531 6.53808 35.8531 6.38636C35.8531 6.23463 35.8531 6.08038 35.8531 5.92362C35.8531 5.76687 35.8531 5.60675 35.8531 5.44497C35.8531 5.24965 35.8422 5.07025 35.8195 4.90511C35.7969 4.73997 35.7634 4.59076 35.7189 4.45412C35.6745 4.31832 35.62 4.19593 35.5546 4.08695C35.4893 3.97797 35.4138 3.88241 35.3291 3.79858C35.2445 3.71475 35.1497 3.6435 35.0458 3.58398C34.9419 3.52446 34.8287 3.47584 34.7071 3.43728C34.5856 3.39872 34.4548 3.3719 34.3165 3.35429C34.1782 3.33669 34.0306 3.3283 33.8764 3.32914C33.7305 3.32914 33.5964 3.33082 33.4707 3.33166C33.3449 3.33166 33.2267 3.33333 33.1136 3.33417C32.9996 3.33417 32.8906 3.33585 32.7808 3.33585C32.6709 3.33585 32.562 3.33753 32.448 3.33753C32.334 3.33753 32.2166 3.3392 32.0909 3.34004C31.9651 3.34004 31.831 3.34172 31.6851 3.34256L31.6726 3.34339Z" fill="#E40A18"/>
<path d="M42.2106 0.193921H46.0986C46.0986 0.360739 46.0986 0.525881 46.0986 0.689346C46.0986 0.852811 46.0986 1.01544 46.0986 1.17555C46.0986 1.33566 46.0986 1.49577 46.0986 1.65337C46.0986 1.81097 46.0986 1.96773 46.0986 2.12281C46.0986 2.27789 46.0986 2.43129 46.0986 2.58386C46.0986 2.73643 46.0986 2.88732 46.0986 3.03737C46.0986 3.18742 46.0986 3.3358 46.0986 3.48334C46.0986 3.63088 46.0986 3.77674 46.0986 3.92176C46.0986 4.06678 46.0986 4.21097 46.0986 4.35431C46.0986 4.49766 46.0986 4.63933 46.0986 4.78016C46.0986 4.92099 46.0986 5.06098 46.0986 5.20014C46.0986 5.33929 46.0986 5.47761 46.0986 5.61425C46.0986 5.75173 46.0986 5.88753 46.0986 6.02333C46.0986 6.15913 46.0986 6.29326 46.0986 6.42738C46.0986 6.56151 46.0986 6.6948 46.0986 6.82724C46.0986 6.95969 46.0986 7.09214 46.0986 7.22291C46.0986 7.35452 46.0986 7.48529 46.0986 7.61523C46.0986 7.74516 46.0986 7.8751 46.0986 8.00419C46.0986 8.13329 46.0986 8.26154 46.0986 8.3898C46.0986 8.51806 46.0986 8.64548 46.0986 8.77289C46.0986 8.90031 46.0986 9.02689 46.0986 9.15431C46.0986 9.28089 46.0986 9.40748 46.0986 9.53322C46.0986 9.65896 46.0986 9.78554 46.0986 9.91128C46.0986 10.037 46.0986 10.1628 46.0986 10.2877C46.0986 10.4134 46.0986 10.5383 46.0986 10.6632C46.0986 10.7881 46.0986 10.9139 46.0986 11.0388C46.0986 11.1637 46.0986 11.2894 46.0986 11.4143C46.0986 11.5392 46.0986 11.665 46.0986 11.7899C46.0986 11.9156 46.0986 12.0405 46.0986 12.1663C46.0986 12.292 46.0986 12.4177 46.0986 12.5443C46.0986 12.6701 46.0986 12.7966 46.0986 12.9232C46.0986 13.0498 46.0986 13.1772 46.0986 13.3046C46.0986 13.4321 46.0986 13.5595 46.0986 13.6877C46.0986 13.816 46.0986 13.9443 46.0986 14.0733C46.0986 14.2024 46.0986 14.3324 46.0986 14.4623C46.0986 14.5922 46.0986 14.723 46.0986 14.8546C46.0986 14.9862 46.0986 15.1178 46.0986 15.2503C46.0986 15.3827 46.0986 15.516 46.0986 15.6502C46.0986 15.7843 46.0986 15.9192 46.0986 16.0542C46.0986 16.19 46.0986 16.3258 46.0986 16.4633C46.0986 16.6008 46.0986 16.7382 46.0986 16.8774C46.0986 17.0166 46.0986 17.1565 46.0986 17.2974C46.0986 17.4382 46.0986 17.5799 46.0986 17.7232C46.0986 17.8666 46.0986 18.0099 46.0986 18.1558C46.0986 18.3008 46.0986 18.4475 46.0986 18.5942C46.0986 18.7417 46.0986 18.8901 46.0986 19.0402C46.0986 19.1902 46.0986 19.3411 46.0986 19.4937C46.0986 19.6462 46.0986 19.7997 46.0986 19.9547C46.0986 20.1098 46.0986 20.2657 46.0986 20.4242C46.0986 20.5818 46.0986 20.741 46.0986 20.902C46.0986 21.0629 46.0986 21.2247 46.0986 21.3882C46.0986 21.5517 46.0986 21.7168 46.0986 21.8836C45.9427 21.8836 45.7943 21.8836 45.6526 21.8853C45.511 21.8853 45.3752 21.8861 45.2444 21.887C45.1136 21.887 44.987 21.8886 44.8638 21.8886C44.7406 21.8886 44.6207 21.8903 44.5017 21.8912C44.3835 21.892 44.2661 21.8928 44.1496 21.8937C44.0331 21.8945 43.9157 21.8954 43.7975 21.897C43.6793 21.8979 43.5586 21.8995 43.4362 21.9004C43.313 21.9021 43.1864 21.9029 43.0556 21.9046C42.9249 21.9063 42.789 21.9079 42.6474 21.9096C42.5057 21.9113 42.3573 21.9138 42.2014 21.9155C42.2014 21.7487 42.2014 21.5827 42.2014 21.4192C42.2014 21.2549 42.2014 21.0931 42.2014 20.9322C42.2014 20.7712 42.2014 20.6119 42.2014 20.4535C42.2014 20.2951 42.2014 20.1392 42.2014 19.9832C42.2014 19.8282 42.2014 19.6739 42.2014 19.5213C42.2014 19.3688 42.2014 19.2179 42.2014 19.0678C42.2014 18.9178 42.2014 18.7686 42.2014 18.621C42.2014 18.4735 42.2014 18.3268 42.2014 18.1818C42.2014 18.0367 42.2014 17.8926 42.2014 17.7492C42.2014 17.6059 42.2014 17.4642 42.2014 17.3225C42.2014 17.1817 42.2014 17.0409 42.2014 16.9017C42.2014 16.7626 42.2014 16.6242 42.2014 16.4868C42.2014 16.3493 42.2014 16.2126 42.2014 16.0768C42.2014 15.941 42.2014 15.8061 42.2014 15.672C42.2014 15.5378 42.2014 15.4045 42.2014 15.2713C42.2014 15.1388 42.2014 15.0064 42.2014 14.8747C42.2014 14.7431 42.2014 14.6124 42.2014 14.4824C42.2014 14.3525 42.2014 14.2226 42.2014 14.0926C42.2014 13.9627 42.2014 13.8344 42.2014 13.7062C42.2014 13.5779 42.2014 13.4497 42.2014 13.3223C42.2014 13.1948 42.2014 13.0674 42.2014 12.9408C42.2014 12.8143 42.2014 12.6877 42.2014 12.5611C42.2014 12.4345 42.2014 12.3088 42.2014 12.183C42.2014 12.0573 42.2014 11.9315 42.2014 11.8058C42.2014 11.6801 42.2014 11.5552 42.2014 11.4294C42.2014 11.3037 42.2014 11.1788 42.2014 11.053C42.2014 10.9273 42.2014 10.8024 42.2014 10.6766C42.2014 10.5509 42.2014 10.426 42.2014 10.3002C42.2014 10.1745 42.2014 10.0488 42.2014 9.92302C42.2014 9.79728 42.2014 9.6707 42.2014 9.54495C42.2014 9.41837 42.2014 9.29179 42.2014 9.16521C42.2014 9.03863 42.2014 8.91121 42.2014 8.78379C42.2014 8.65637 42.2014 8.52812 42.2014 8.39986C42.2014 8.2716 42.2014 8.14251 42.2014 8.01341C42.2014 7.88432 42.2014 7.75438 42.2014 7.62361C42.2014 7.49284 42.2014 7.36207 42.2014 7.2313C42.2014 7.09969 42.2014 6.96808 42.2014 6.83479C42.2014 6.70234 42.2014 6.56821 42.2014 6.43409C42.2014 6.29996 42.2014 6.165 42.2014 6.0292C42.2014 5.8934 42.2014 5.75676 42.2014 5.61928C42.2014 5.4818 42.2014 5.34349 42.2014 5.20433C42.2014 5.06518 42.2014 4.92518 42.2014 4.78351C42.2014 4.64268 42.2014 4.50017 42.2014 4.35683C42.2014 4.21348 42.2014 4.0693 42.2014 3.92427C42.2014 3.77925 42.2014 3.63255 42.2014 3.48501C42.2014 3.33748 42.2014 3.18826 42.2014 3.03821C42.2014 2.88816 42.2014 2.73727 42.2014 2.5847C42.2014 2.43213 42.2014 2.27789 42.2014 2.12281C42.2014 1.96773 42.2014 1.81097 42.2014 1.65337C42.2014 1.49493 42.2014 1.33566 42.2014 1.17471C42.2014 1.01376 42.2014 0.851134 42.2014 0.687669C42.2014 0.523366 42.2014 0.358224 42.2014 0.191406L42.2106 0.193921Z" fill="#E40A18"/>
<path d="M52.8206 9.85585C52.9883 9.85753 53.1484 9.85837 53.3035 9.86004C53.4586 9.86172 53.607 9.86256 53.7511 9.86423C53.8953 9.86591 54.0353 9.86675 54.1711 9.86842C54.3069 9.8701 54.4394 9.87094 54.5701 9.87262C54.7001 9.87429 54.8283 9.87513 54.9549 9.87681C55.0815 9.87848 55.2072 9.87932 55.333 9.881C55.4587 9.88268 55.5845 9.88435 55.711 9.88519C55.8376 9.88687 55.9659 9.88854 56.0958 9.89022C56.2257 9.8919 56.359 9.89357 56.4948 9.89525C56.6306 9.89693 56.7706 9.8986 56.9148 9.90112C57.059 9.90363 57.2082 9.90531 57.3625 9.90782C57.5175 9.91034 57.6777 9.91285 57.8453 9.91537C57.8453 10.0713 57.8453 10.218 57.8453 10.3571C57.8453 10.4963 57.8453 10.6279 57.8453 10.7553C57.8453 10.8819 57.8453 11.0043 57.8453 11.1242C57.8453 11.244 57.8453 11.3614 57.8453 11.4779C57.8453 11.5953 57.8453 11.7126 57.8453 11.8317C57.8453 11.9516 57.8453 12.0731 57.8453 12.2005C57.8453 12.3271 57.8453 12.4596 57.8453 12.5987C57.8453 12.7379 57.8453 12.8846 57.8453 13.0405C57.6777 13.0371 57.5175 13.0338 57.3625 13.0313C57.2074 13.0279 57.059 13.0254 56.9148 13.0229C56.7706 13.0204 56.6306 13.0178 56.4948 13.0153C56.359 13.0128 56.2257 13.0103 56.0958 13.0086C55.9659 13.007 55.8376 13.0044 55.711 13.0019C55.5845 13.0002 55.4587 12.9977 55.333 12.9961C55.2072 12.9944 55.0815 12.9919 54.9549 12.9902C54.8283 12.9885 54.7001 12.9868 54.5701 12.9843C54.4402 12.9826 54.3069 12.981 54.1711 12.9784C54.0353 12.9768 53.8953 12.9751 53.7511 12.9734C53.607 12.9717 53.4577 12.9701 53.3035 12.9676C53.1493 12.965 52.9883 12.9642 52.8206 12.9617C52.8206 13.1251 52.8206 13.2844 52.8206 13.4403C52.8206 13.5963 52.8206 13.7497 52.8206 13.8989C52.8206 14.0481 52.8206 14.1956 52.8206 14.339C52.8206 14.4823 52.8206 14.624 52.8206 14.7632C52.8206 14.9023 52.8206 15.0389 52.8206 15.1731C52.8206 15.308 52.8206 15.4405 52.8206 15.5713C52.8206 15.702 52.8206 15.8311 52.8206 15.9594C52.8206 16.0868 52.8206 16.2134 52.8206 16.3391C52.8206 16.4649 52.8206 16.5889 52.8206 16.713C52.8206 16.8371 52.8206 16.9603 52.8206 17.0827C52.8206 17.2051 52.8206 17.3283 52.8206 17.4507C52.8206 17.5731 52.8206 17.6955 52.8206 17.8187C52.8206 17.9411 52.8206 18.0643 52.8206 18.1884C52.8206 18.3124 52.8206 18.4365 52.8206 18.5622C52.8206 18.688 52.8206 18.8146 52.8206 18.942C52.8206 19.0694 52.8206 19.1993 52.8206 19.3301C52.8206 19.4609 52.8206 19.5933 52.8206 19.7283C52.8206 19.8633 52.8206 19.9991 52.8206 20.1382C52.8206 20.2774 52.8206 20.4182 52.8206 20.5624C52.8206 20.7066 52.8206 20.8533 52.8206 21.0025C52.8206 21.1525 52.8206 21.3051 52.8206 21.461C52.8206 21.6169 52.8206 21.7771 52.8206 21.9397C52.6647 21.9372 52.5164 21.9338 52.3747 21.9313C52.233 21.9288 52.0972 21.9263 51.9664 21.9246C51.8357 21.9229 51.7091 21.9204 51.5859 21.9187C51.4626 21.917 51.3428 21.9154 51.2246 21.9137C51.1064 21.912 50.989 21.9103 50.8725 21.9087C50.756 21.907 50.6386 21.9061 50.5204 21.9045C50.4022 21.9028 50.2815 21.902 50.1591 21.9003C50.0359 21.8986 49.9093 21.8978 49.7785 21.8969C49.6478 21.8961 49.512 21.8944 49.3703 21.8936C49.2286 21.8927 49.0802 21.8911 48.9243 21.8902C48.9243 21.7234 48.9243 21.5583 48.9243 21.394C48.9243 21.2305 48.9243 21.0679 48.9243 20.9069C48.9243 20.746 48.9243 20.5867 48.9243 20.4291C48.9243 20.2715 48.9243 20.1147 48.9243 19.9597C48.9243 19.8046 48.9243 19.6512 48.9243 19.4986C48.9243 19.346 48.9243 19.1951 48.9243 19.0451C48.9243 18.895 48.9243 18.7467 48.9243 18.5991C48.9243 18.4516 48.9243 18.3057 48.9243 18.1599C48.9243 18.0148 48.9243 17.8707 48.9243 17.7273C48.9243 17.584 48.9243 17.4423 48.9243 17.3015C48.9243 17.1606 48.9243 17.0206 48.9243 16.8815C48.9243 16.7423 48.9243 16.604 48.9243 16.4674C48.9243 16.3299 48.9243 16.1941 48.9243 16.0583C48.9243 15.9225 48.9243 15.7875 48.9243 15.6534C48.9243 15.5193 48.9243 15.386 48.9243 15.2535C48.9243 15.1211 48.9243 14.9886 48.9243 14.8579C48.9243 14.7263 48.9243 14.5955 48.9243 14.4656C48.9243 14.3356 48.9243 14.2057 48.9243 14.0766C48.9243 13.9475 48.9243 13.8192 48.9243 13.691C48.9243 13.5627 48.9243 13.4353 48.9243 13.3079C48.9243 13.1805 48.9243 13.0531 48.9243 12.9265C48.9243 12.7999 48.9243 12.6733 48.9243 12.5476C48.9243 12.4218 48.9243 12.2952 48.9243 12.1695C48.9243 12.0438 48.9243 11.918 48.9243 11.7931C48.9243 11.6674 48.9243 11.5425 48.9243 11.4167C48.9243 11.291 48.9243 11.1661 48.9243 11.0412C48.9243 10.9163 48.9243 10.7905 48.9243 10.6656C48.9243 10.5407 48.9243 10.415 48.9243 10.2892C48.9243 10.1635 48.9243 10.0386 48.9243 9.91285C48.9243 9.78711 48.9243 9.66137 48.9243 9.53479C48.9243 9.40821 48.9243 9.28246 48.9243 9.15588C48.9243 9.0293 48.9243 8.90189 48.9243 8.77447C48.9243 8.64705 48.9243 8.51963 48.9243 8.39137C48.9243 8.26311 48.9243 8.13486 48.9243 8.00576C48.9243 7.87667 48.9243 7.74673 48.9243 7.6168C48.9243 7.48687 48.9243 7.35609 48.9243 7.22448C48.9243 7.09287 48.9243 6.96126 48.9243 6.82881C48.9243 6.69637 48.9243 6.56308 48.9243 6.42895C48.9243 6.29483 48.9243 6.15987 48.9243 6.02406C48.9243 5.88826 48.9243 5.75162 48.9243 5.61498C48.9243 5.4775 48.9243 5.33919 48.9243 5.20087C48.9243 5.06256 48.9243 4.92172 48.9243 4.78089C48.9243 4.64006 48.9243 4.49755 48.9243 4.35505C48.9243 4.2117 48.9243 4.06835 48.9243 3.92249C48.9243 3.77747 48.9243 3.63077 48.9243 3.48323C48.9243 3.3357 48.9243 3.18732 48.9243 3.03727C48.9243 2.88721 48.9243 2.73632 48.9243 2.58376C48.9243 2.43119 48.9243 2.27778 48.9243 2.1227C48.9243 1.96762 48.9243 1.81086 48.9243 1.65326C48.9243 1.49567 48.9243 1.33639 48.9243 1.17544C48.9243 1.01449 48.9243 0.852705 48.9243 0.688401C48.9243 0.524098 48.9243 0.358957 48.9243 0.192139H59.21C59.21 0.348897 59.21 0.495597 59.21 0.634751C59.21 0.773906 59.21 0.906355 59.21 1.03377C59.21 1.16119 59.21 1.28358 59.21 1.40346C59.21 1.52333 59.21 1.64069 59.21 1.75805C59.21 1.87541 59.21 1.99277 59.21 2.11264C59.21 2.23252 59.21 2.35491 59.21 2.48232C59.21 2.60974 59.21 2.74135 59.21 2.88135C59.21 3.02134 59.21 3.16804 59.21 3.32396C59.0499 3.32312 58.8948 3.32228 58.7448 3.32144C58.5939 3.32144 58.448 3.31977 58.3055 3.31893C58.163 3.31893 58.0247 3.31725 57.8889 3.31725C57.7531 3.31725 57.6207 3.31558 57.4907 3.31558C57.3608 3.31558 57.2334 3.31474 57.1076 3.3139C56.9819 3.3139 56.8587 3.31306 56.7354 3.31222C56.613 3.31222 56.4915 3.31138 56.3708 3.31055C56.2501 3.31055 56.1302 3.30971 56.0103 3.30887C55.8904 3.30887 55.7706 3.30803 55.6498 3.30719C55.5291 3.30719 55.4076 3.30635 55.2852 3.30552C55.1628 3.30552 55.0387 3.30468 54.913 3.30384C54.7873 3.30384 54.6598 3.303 54.5299 3.30216C54.4 3.30216 54.2675 3.30133 54.1317 3.30049C53.9959 3.30049 53.8576 3.29965 53.7151 3.29881C53.5726 3.29881 53.4267 3.29797 53.2758 3.29713C53.1249 3.29713 52.9699 3.2963 52.8106 3.29546C52.8106 3.45892 52.8106 3.6182 52.8106 3.77244C52.8106 3.92668 52.8106 4.07674 52.8106 4.2226C52.8106 4.36846 52.8106 4.51097 52.8106 4.64928C52.8106 4.7876 52.8106 4.92424 52.8106 5.05669C52.8106 5.18997 52.8106 5.32075 52.8106 5.449C52.8106 5.57726 52.8106 5.70468 52.8106 5.82958C52.8106 5.95533 52.8106 6.07939 52.8106 6.20262C52.8106 6.32585 52.8106 6.44907 52.8106 6.5723C52.8106 6.69553 52.8106 6.81792 52.8106 6.94198C52.8106 7.06521 52.8106 7.19011 52.8106 7.31502C52.8106 7.44076 52.8106 7.56734 52.8106 7.6956C52.8106 7.82385 52.8106 7.95463 52.8106 8.08791C52.8106 8.2212 52.8106 8.357 52.8106 8.49532C52.8106 8.63364 52.8106 8.77614 52.8106 8.922C52.8106 9.06786 52.8106 9.21792 52.8106 9.37216C52.8106 9.52641 52.8106 9.68484 52.8106 9.84914L52.8206 9.85585Z" fill="#E40A18"/>
<path d="M61.0855 0.19397H64.9735C64.9735 0.359111 64.9735 0.523414 64.9743 0.685203C64.9743 0.846991 64.9743 1.0071 64.9743 1.16638C64.9743 1.32481 64.9743 1.48157 64.9743 1.63749C64.9743 1.79257 64.9743 1.94682 64.9743 2.09938C64.9743 2.25195 64.9743 2.40284 64.9743 2.55206C64.9743 2.70127 64.9743 2.84965 64.9743 2.99635C64.9743 3.14304 64.9743 3.28807 64.9743 3.43225C64.9743 3.57644 64.9743 3.71894 64.9743 3.86061C64.9743 4.00228 64.9743 4.14311 64.9743 4.28227C64.9743 4.42142 64.9743 4.55974 64.9743 4.69722C64.9743 4.8347 64.9743 4.9705 64.9743 5.1063C64.9743 5.2421 64.9743 5.37623 64.9743 5.50951C64.9743 5.6428 64.9743 5.77609 64.9743 5.9077C64.9743 6.03931 64.9743 6.17092 64.9743 6.30085C64.9743 6.43162 64.9743 6.56072 64.9743 6.68981C64.9743 6.81891 64.9743 6.94717 64.9743 7.07542C64.9743 7.20368 64.9743 7.3311 64.9743 7.45768C64.9743 7.58426 64.9743 7.71084 64.9743 7.83742C64.9743 7.96316 64.9743 8.08891 64.9743 8.21465C64.9743 8.34039 64.9743 8.46529 64.9743 8.5902C64.9743 8.7151 64.9743 8.84001 64.9743 8.96407C64.9743 9.08814 64.9743 9.21304 64.9743 9.33711C64.9743 9.46117 64.9743 9.58524 64.9743 9.7093C64.9743 9.83337 64.9743 9.95744 64.9743 10.0815C64.9743 10.2056 64.9743 10.3296 64.9743 10.4545C64.9743 10.5786 64.9743 10.7035 64.9743 10.8284C64.9743 10.9533 64.9743 11.0782 64.9743 11.204C64.9743 11.3297 64.9743 11.4546 64.9743 11.5812C64.9743 11.7069 64.9743 11.8335 64.9743 11.9609C64.9743 12.0875 64.9743 12.2149 64.9743 12.3432C64.9743 12.4714 64.9743 12.5997 64.9743 12.7288C64.9743 12.8579 64.9743 12.9878 64.9743 13.1178C64.9743 13.2485 64.9743 13.3793 64.9743 13.5109C64.9743 13.6425 64.9743 13.7758 64.9743 13.9091C64.9743 14.0424 64.9743 14.1773 64.9743 14.3123C64.9743 14.4473 64.9743 14.5839 64.9743 14.7214C64.9743 14.8589 64.9743 14.9972 64.9743 15.1363C64.9743 15.2755 64.9743 15.4163 64.9743 15.558C64.9743 15.6997 64.9743 15.8422 64.9743 15.9864C64.9743 16.1305 64.9743 16.2756 64.9743 16.4223C64.9743 16.569 64.9743 16.7173 64.9743 16.8666C64.9743 17.0158 64.9743 17.1667 64.9743 17.3192C64.9743 17.4718 64.9743 17.6252 64.9743 17.7811C64.9743 17.9362 64.9743 18.0938 64.9743 18.2522C64.9743 18.4107 64.9743 18.5708 64.9752 18.7334C64.9752 18.8952 64.9751 19.0587 64.976 19.2246C65.1361 19.2322 65.2912 19.2397 65.4421 19.2473C65.593 19.2548 65.7388 19.2624 65.8822 19.2691C66.0247 19.2766 66.1638 19.2833 66.2996 19.29C66.4354 19.2967 66.5679 19.3043 66.6978 19.311C66.8278 19.3177 66.9552 19.3244 67.0809 19.3311C67.2067 19.3378 67.3307 19.3445 67.4531 19.3512C67.5755 19.3579 67.6971 19.3646 67.8178 19.3713C67.9385 19.378 68.0584 19.3848 68.1782 19.3915C68.2981 19.3982 68.418 19.4049 68.5387 19.4124C68.6594 19.4191 68.781 19.4267 68.9033 19.4334C69.0257 19.4409 69.1498 19.4476 69.2755 19.4552C69.4013 19.4627 69.5287 19.4703 69.6586 19.4778C69.7886 19.4853 69.921 19.4937 70.0568 19.5021C70.1926 19.5105 70.3309 19.5189 70.4734 19.5281C70.6159 19.5373 70.7618 19.5465 70.9127 19.5558C71.0636 19.565 71.2187 19.575 71.3779 19.5859C71.3779 19.7477 71.3779 19.8995 71.3788 20.0428C71.3788 20.187 71.3788 20.3228 71.3788 20.4544C71.3788 20.586 71.3788 20.7118 71.3788 20.8358C71.3788 20.9599 71.3788 21.0806 71.3788 21.2021C71.3788 21.3237 71.3788 21.4444 71.3788 21.5685C71.3788 21.6925 71.3788 21.8183 71.3788 21.9499C71.3788 22.0815 71.3788 22.2173 71.3788 22.3615C71.3788 22.5057 71.3788 22.6566 71.3796 22.8184C71.2153 22.8058 71.0535 22.794 70.8951 22.7823C70.7367 22.7706 70.5816 22.7588 70.429 22.7479C70.2764 22.737 70.1264 22.7261 69.9797 22.7152C69.8322 22.7043 69.688 22.6943 69.5455 22.6842C69.403 22.6742 69.263 22.6641 69.1246 22.6549C68.9863 22.6457 68.8497 22.6356 68.7156 22.6272C68.5814 22.6188 68.4482 22.6088 68.3165 22.6004C68.1849 22.592 68.055 22.5828 67.9259 22.5744C67.7968 22.566 67.6694 22.5576 67.5428 22.5493C67.4162 22.5409 67.2905 22.5333 67.1647 22.525C67.0398 22.5174 66.9149 22.509 66.7909 22.5015C66.6668 22.4939 66.5427 22.4864 66.4195 22.4788C66.2963 22.4713 66.1722 22.4638 66.049 22.4562C65.9258 22.4487 65.8017 22.442 65.6776 22.4344C65.5536 22.4269 65.4287 22.4202 65.3038 22.4126C65.1789 22.4051 65.0523 22.3984 64.9257 22.3908C64.7991 22.3841 64.6709 22.3766 64.5418 22.3699C64.4127 22.3632 64.2827 22.3556 64.1511 22.3489C64.0195 22.3422 63.8862 22.3347 63.7521 22.328C63.618 22.3213 63.4805 22.3137 63.3422 22.307C63.2039 22.3003 63.063 22.2928 62.9205 22.286C62.778 22.2793 62.633 22.2718 62.4855 22.2651C62.3379 22.2575 62.1879 22.2508 62.0353 22.2433C61.8827 22.2357 61.7268 22.229 61.5684 22.2215C61.4099 22.214 61.2481 22.2072 61.083 22.1997C61.083 22.0337 61.083 21.8694 61.083 21.706C61.083 21.5433 61.083 21.3815 61.083 21.2214C61.083 21.0613 61.083 20.9029 61.083 20.7453C61.083 20.5877 61.083 20.4326 61.083 20.2775C61.083 20.1233 61.083 19.9699 61.083 19.8181C61.083 19.6664 61.083 19.5155 61.083 19.3663C61.083 19.2171 61.083 19.0687 61.083 18.922C61.083 18.7753 61.083 18.6295 61.083 18.4844C61.083 18.3394 61.083 18.1961 61.083 18.0536C61.083 17.9111 61.083 17.7694 61.083 17.6286C61.083 17.4877 61.083 17.3486 61.083 17.2094C61.083 17.0703 61.083 16.9328 61.083 16.7961C61.083 16.6595 61.083 16.5229 61.083 16.3879C61.083 16.2529 61.083 16.118 61.083 15.9838C61.083 15.8497 61.083 15.7173 61.083 15.5848C61.083 15.4524 61.083 15.3208 61.083 15.19C61.083 15.0592 61.083 14.9284 61.083 14.7985C61.083 14.6686 61.083 14.5395 61.083 14.4104C61.083 14.2813 61.083 14.153 61.083 14.0256C61.083 13.8974 61.083 13.7699 61.083 13.6434C61.083 13.5159 61.083 13.3894 61.083 13.2636C61.083 13.137 61.083 13.0113 61.083 12.8856C61.083 12.7598 61.083 12.6341 61.083 12.5092C61.083 12.3843 61.083 12.2585 61.083 12.1336C61.083 12.0087 61.083 11.8838 61.083 11.7589C61.083 11.634 61.083 11.5099 61.083 11.385C61.083 11.2601 61.083 11.1361 61.083 11.0112C61.083 10.8863 61.083 10.7622 61.083 10.6373C61.083 10.5124 61.083 10.3875 61.083 10.2626C61.083 10.1377 61.083 10.0128 61.083 9.88702C61.083 9.76128 61.083 9.63637 61.083 9.51063C61.083 9.38489 61.083 9.25915 61.083 9.13257C61.083 9.00599 61.083 8.87941 61.083 8.75283C61.083 8.62541 61.083 8.49799 61.083 8.37057C61.083 8.24231 61.083 8.11405 61.083 7.9858C61.083 7.8567 61.083 7.72761 61.083 7.59767C61.083 7.46774 61.083 7.33697 61.083 7.2062C61.083 7.07542 61.083 6.94381 61.083 6.81136C61.083 6.67892 61.083 6.54563 61.083 6.41234C61.083 6.27906 61.083 6.14409 61.083 6.00829C61.083 5.87333 61.083 5.73669 61.083 5.60005C61.083 5.46341 61.083 5.32509 61.083 5.18678C61.083 5.04762 61.083 4.90847 61.083 4.76763C61.083 4.6268 61.083 4.48513 61.083 4.34263C61.083 4.20012 61.083 4.05593 61.083 3.91175C61.083 3.76673 61.083 3.62087 61.083 3.47417C61.083 3.32747 61.083 3.17909 61.083 3.02988C61.083 2.88066 61.083 2.72977 61.083 2.57804C61.083 2.42631 61.083 2.27291 61.083 2.11866C61.083 1.96442 61.083 1.8085 61.083 1.6509C61.083 1.49331 61.083 1.33487 61.083 1.17476C61.083 1.01465 61.083 0.852859 61.083 0.690233C61.083 0.527606 61.083 0.362464 61.083 0.196485L61.0855 0.19397Z" fill="#E40A18"/>
<path d="M73.0678 0.19397H76.9558C76.9558 0.359111 76.9558 0.522576 76.9566 0.684365C76.9574 0.846153 76.9566 1.0071 76.9574 1.16638C76.9574 1.32565 76.9574 1.48325 76.9583 1.64001C76.9583 1.79676 76.9583 1.95185 76.9591 2.10609C76.9591 2.26033 76.9591 2.4129 76.9599 2.56463C76.9608 2.71636 76.9599 2.86641 76.9608 3.01563C76.9608 3.16484 76.9608 3.31322 76.9608 3.45991C76.9608 3.60661 76.9608 3.75248 76.9608 3.8975C76.9608 4.04252 76.9608 4.18587 76.9608 4.32837C76.9608 4.47088 76.9608 4.61255 76.9608 4.75338C76.9608 4.89421 76.9608 5.03421 76.9608 5.17252C76.9608 5.31168 76.9608 5.44916 76.9608 5.58663C76.9608 5.72411 76.9608 5.85991 76.9608 5.99572C76.9608 6.13152 76.9608 6.26648 76.9608 6.39977C76.9608 6.53389 76.9608 6.66718 76.9608 6.79963C76.9608 6.93208 76.9608 7.06453 76.9608 7.1953C76.9608 7.32691 76.9608 7.45768 76.9608 7.58761C76.9608 7.71755 76.9608 7.84748 76.9608 7.97658C76.9608 8.10567 76.9608 8.23393 76.9608 8.36219C76.9608 8.49044 76.9608 8.61786 76.9608 8.74444C76.9608 8.87186 76.9608 8.99844 76.9608 9.12418C76.9608 9.25076 76.9608 9.37651 76.9608 9.50225C76.9608 9.62799 76.9608 9.75289 76.9608 9.87864C76.9608 10.0044 76.9608 10.1284 76.9608 10.2533C76.9608 10.3783 76.9608 10.5023 76.9608 10.6264C76.9608 10.7504 76.9608 10.8745 76.9608 10.9986C76.9608 11.1226 76.9608 11.2467 76.9608 11.3699C76.9608 11.4932 76.9608 11.6172 76.9608 11.7413C76.9608 11.8654 76.9608 11.9886 76.9608 12.1127C76.9608 12.2367 76.9608 12.36 76.9608 12.484C76.9608 12.6081 76.9608 12.7321 76.9608 12.8562C76.9608 12.9803 76.9608 13.1052 76.9608 13.2292C76.9608 13.3542 76.9608 13.4782 76.9608 13.604C76.9608 13.7289 76.9608 13.8546 76.9608 13.9803C76.9608 14.1061 76.9608 14.2318 76.9608 14.3584C76.9608 14.485 76.9608 14.6116 76.9608 14.7382C76.9608 14.8647 76.9608 14.993 76.9608 15.1204C76.9608 15.2487 76.9608 15.3769 76.9608 15.506C76.9608 15.6351 76.9608 15.7642 76.9608 15.895C76.9608 16.0249 76.9608 16.1557 76.9608 16.2873C76.9608 16.4189 76.9608 16.5505 76.9608 16.683C76.9608 16.8154 76.9608 16.9487 76.9608 17.0828C76.9608 17.217 76.9608 17.3519 76.9608 17.4869C76.9608 17.6227 76.9608 17.7585 76.9608 17.896C76.9608 18.0334 76.9608 18.1709 76.9608 18.3101C76.9608 18.4492 76.9608 18.5892 76.9608 18.7301C76.9608 18.8709 76.9608 19.0126 76.9608 19.1551C76.9608 19.2976 76.9608 19.4418 76.9608 19.5859C76.9608 19.731 76.9608 19.8768 76.9608 20.0235C76.9608 20.1702 76.9608 20.3186 76.9616 20.4678C76.9616 20.617 76.9616 20.7671 76.9625 20.9188C76.9625 21.0705 76.9625 21.2231 76.9633 21.3773C76.9633 21.5316 76.9633 21.6867 76.9641 21.8434C76.9641 22.0002 76.9641 22.1578 76.965 22.3171C76.965 22.4763 76.965 22.6373 76.9658 22.7991C76.9658 22.9609 76.9658 23.1243 76.9667 23.2895C76.8116 23.2752 76.6632 23.261 76.5224 23.2484C76.3807 23.235 76.2457 23.2232 76.115 23.2115C75.9842 23.1998 75.8584 23.188 75.7361 23.1771C75.6137 23.1662 75.4938 23.1553 75.3756 23.1453C75.2574 23.1352 75.1409 23.1243 75.0244 23.1143C74.9078 23.1042 74.7913 23.0941 74.6731 23.0841C74.5549 23.074 74.435 23.064 74.3127 23.0531C74.1894 23.043 74.0637 23.0321 73.9329 23.0212C73.8021 23.0103 73.6672 22.9986 73.5255 22.9877C73.3838 22.9759 73.2363 22.9642 73.0804 22.9516C73.0804 22.7865 73.0804 22.6222 73.0795 22.4596C73.0795 22.2969 73.0795 22.136 73.0787 21.9759C73.0787 21.8158 73.0787 21.6582 73.0779 21.5006C73.077 21.343 73.0779 21.1879 73.077 21.0337C73.077 20.8794 73.077 20.726 73.0762 20.5743C73.0762 20.4225 73.0762 20.2717 73.0754 20.1224C73.0745 19.9732 73.0754 19.8248 73.0745 19.6773C73.0737 19.5298 73.0745 19.3839 73.0737 19.2389C73.0737 19.0939 73.0737 18.9497 73.0728 18.8072C73.0728 18.6647 73.0728 18.5222 73.0728 18.3813C73.0728 18.2405 73.0728 18.1005 73.0728 17.9613C73.0728 17.8222 73.0728 17.6839 73.0728 17.5472C73.0728 17.4098 73.0728 17.2731 73.0728 17.1382C73.0728 17.0024 73.0728 16.8674 73.0728 16.7333C73.0728 16.5991 73.0728 16.4659 73.0728 16.3334C73.0728 16.201 73.0728 16.0685 73.0728 15.9377C73.0728 15.8061 73.0728 15.6754 73.0728 15.5454C73.0728 15.4155 73.0728 15.2856 73.0728 15.1565C73.0728 15.0274 73.0728 14.8991 73.0728 14.7708C73.0728 14.6426 73.0728 14.5152 73.0728 14.3878C73.0728 14.2603 73.0728 14.1338 73.0728 14.0072C73.0728 13.8806 73.0728 13.7549 73.0728 13.6291C73.0728 13.5034 73.0728 13.3776 73.0728 13.2527C73.0728 13.1278 73.0728 13.0021 73.0728 12.878C73.0728 12.7539 73.0728 12.6282 73.0728 12.5041C73.0728 12.3801 73.0728 12.2552 73.0728 12.1311C73.0728 12.007 73.0728 11.883 73.0728 11.7589C73.0728 11.6348 73.0728 11.5108 73.0728 11.3867C73.0728 11.2626 73.0728 11.1386 73.0728 11.0145C73.0728 10.8904 73.0728 10.7655 73.0728 10.6415C73.0728 10.5174 73.0728 10.3925 73.0728 10.2676C73.0728 10.1427 73.0728 10.0178 73.0728 9.89289C73.0728 9.76798 73.0728 9.64224 73.0728 9.5165C73.0728 9.39076 73.0728 9.26501 73.0728 9.13843C73.0728 9.01185 73.0728 8.88527 73.0728 8.75785C73.0728 8.63043 73.0728 8.50302 73.0728 8.37476C73.0728 8.2465 73.0728 8.11825 73.0728 7.98915C73.0728 7.86005 73.0728 7.73012 73.0728 7.60019C73.0728 7.47025 73.0728 7.33948 73.0728 7.20787C73.0728 7.07626 73.0728 6.94465 73.0728 6.8122C73.0728 6.67975 73.0728 6.54647 73.0728 6.41234C73.0728 6.27822 73.0728 6.14325 73.0728 6.00745C73.0728 5.87165 73.0728 5.73501 73.0728 5.59837C73.0728 5.46089 73.0728 5.32258 73.0728 5.18426C73.0728 5.04511 73.0728 4.90511 73.0728 4.76428C73.0728 4.62345 73.0728 4.48178 73.072 4.33843C73.072 4.19593 73.072 4.05174 73.0712 3.90672C73.0712 3.7617 73.0712 3.61584 73.0703 3.4683C73.0703 3.32076 73.0703 3.17322 73.0695 3.02317C73.0695 2.87396 73.0695 2.72307 73.0686 2.57134C73.0678 2.41961 73.0686 2.2662 73.0678 2.11196C73.0678 1.95771 73.0678 1.80179 73.067 1.64504C73.067 1.48828 73.067 1.32984 73.0661 1.16973C73.0661 1.00962 73.0661 0.848668 73.0653 0.686041C73.0644 0.523414 73.0653 0.359111 73.0645 0.19397H73.0678Z" fill="#E40A18"/>
<path d="M92.7555 0.193815C92.701 0.355604 92.6482 0.514039 92.5954 0.669959C92.5426 0.82588 92.4914 0.979285 92.4403 1.13101C92.3892 1.2819 92.3397 1.43028 92.2902 1.57698C92.2408 1.72368 92.1922 1.86703 92.1444 2.00953C92.0966 2.1512 92.0496 2.2912 92.0027 2.42951C91.9558 2.56783 91.9097 2.70363 91.8644 2.83776C91.8191 2.97188 91.7739 3.10517 91.7294 3.23594C91.685 3.36671 91.6414 3.49664 91.5978 3.6249C91.5542 3.75316 91.5115 3.88058 91.4687 4.00632C91.426 4.13206 91.3832 4.25697 91.3413 4.38019C91.2994 4.50426 91.2575 4.62665 91.2156 4.74904C91.1736 4.87143 91.1326 4.99214 91.0915 5.11285C91.0504 5.23357 91.0093 5.35344 90.9683 5.47331C90.9272 5.59319 90.887 5.71222 90.8459 5.83042C90.8056 5.94946 90.7646 6.06766 90.7243 6.18669C90.6841 6.30489 90.643 6.42392 90.6028 6.54212C90.5625 6.66032 90.5215 6.77936 90.4804 6.89839C90.4393 7.01743 90.3991 7.13647 90.358 7.25634C90.3169 7.37621 90.2758 7.49609 90.2339 7.6168C90.1929 7.73751 90.1509 7.85906 90.109 7.98061C90.0671 8.103 90.0244 8.22539 89.9816 8.34946C89.9389 8.47352 89.8961 8.59843 89.8525 8.72417C89.8089 8.84991 89.7653 8.97733 89.7209 9.10559C89.6765 9.23385 89.632 9.36378 89.5859 9.49455C89.5398 9.62532 89.4946 9.75861 89.4485 9.89274C89.4024 10.0269 89.3546 10.1627 89.3068 10.3001C89.259 10.4376 89.2104 10.5776 89.1618 10.7184C89.1123 10.8601 89.0629 11.0035 89.0126 11.1485C88.9623 11.2943 88.9103 11.4419 88.8583 11.5911C88.8063 11.7411 88.7527 11.8929 88.699 12.048C88.7502 12.1988 88.8005 12.3472 88.8499 12.4948C88.8994 12.6423 88.9488 12.7865 88.9966 12.9298C89.0452 13.0732 89.093 13.214 89.14 13.3532C89.1869 13.4923 89.233 13.6306 89.2791 13.7664C89.3252 13.9022 89.3705 14.0372 89.4149 14.1696C89.4594 14.3029 89.5038 14.4345 89.5474 14.5645C89.591 14.6944 89.6346 14.8235 89.6773 14.9509C89.7201 15.0783 89.762 15.2049 89.8047 15.3298C89.8466 15.4547 89.8886 15.5796 89.9296 15.702C89.9707 15.8244 90.0118 15.9476 90.052 16.0692C90.0923 16.1907 90.1325 16.3115 90.1727 16.4305C90.213 16.5504 90.2524 16.6694 90.2918 16.7876C90.3312 16.9058 90.3706 17.024 90.4091 17.1414C90.4485 17.2587 90.4871 17.3761 90.5256 17.4926C90.5642 17.6091 90.6028 17.7256 90.6413 17.8422C90.6799 17.9587 90.7185 18.0744 90.7562 18.19C90.7947 18.3057 90.8325 18.4223 90.871 18.5379C90.9096 18.6536 90.9473 18.7701 90.9859 18.8858C91.0244 19.0015 91.0622 19.1189 91.1007 19.2354C91.1393 19.3519 91.1778 19.4693 91.2164 19.5866C91.255 19.704 91.2935 19.8222 91.3329 19.9412C91.3723 20.0603 91.4109 20.1793 91.4503 20.2992C91.4897 20.419 91.5291 20.5398 91.5693 20.6621C91.6096 20.7837 91.6489 20.9069 91.69 21.0301C91.7303 21.1542 91.7713 21.2783 91.8124 21.404C91.8535 21.5298 91.8946 21.6572 91.9365 21.7854C91.9784 21.9137 92.0203 22.0436 92.0631 22.1744C92.1058 22.3052 92.1486 22.4385 92.1922 22.5726C92.2357 22.7067 92.2793 22.8425 92.3246 22.98C92.369 23.1175 92.4143 23.2566 92.4596 23.3975C92.5048 23.5383 92.5518 23.6816 92.5979 23.8267C92.6448 23.9717 92.6918 24.1184 92.7404 24.2684C92.7882 24.4176 92.8376 24.5694 92.8871 24.7228C92.9365 24.8762 92.9868 25.0329 93.038 25.1914C92.8745 25.1679 92.7194 25.1461 92.5711 25.1243C92.4227 25.1034 92.2802 25.0832 92.1435 25.064C92.0069 25.0447 91.8744 25.0262 91.7453 25.0078C91.6163 24.9902 91.4905 24.9726 91.3664 24.955C91.2424 24.9374 91.12 24.9206 90.9976 24.9038C90.8752 24.8871 90.7528 24.8703 90.6288 24.8535C90.5047 24.8368 90.379 24.82 90.2499 24.8024C90.1208 24.7848 89.9883 24.7672 89.8517 24.7488C89.7142 24.7303 89.5725 24.7119 89.4233 24.6918C89.2749 24.6725 89.119 24.6515 88.9564 24.6306C88.9053 24.4696 88.8558 24.3112 88.8072 24.1561C88.7585 24.001 88.7099 23.8493 88.663 23.7001C88.616 23.5509 88.5699 23.405 88.5238 23.2617C88.4786 23.1183 88.4333 22.9766 88.3897 22.8383C88.3453 22.6992 88.3025 22.5634 88.2598 22.4284C88.217 22.2943 88.1751 22.1618 88.1332 22.0311C88.0913 21.9003 88.0502 21.7712 88.01 21.6438C87.9697 21.5163 87.9295 21.3906 87.8893 21.2657C87.849 21.1408 87.8096 21.0176 87.7711 20.8952C87.7317 20.7728 87.6931 20.6512 87.6545 20.5305C87.616 20.4098 87.5774 20.2891 87.5388 20.1701C87.5003 20.0502 87.4626 19.9312 87.424 19.8121C87.3854 19.6931 87.3477 19.5741 87.3092 19.455C87.2706 19.336 87.2329 19.2169 87.1943 19.0979C87.1558 18.9789 87.1172 18.859 87.0786 18.7391C87.0401 18.6192 87.0007 18.4985 86.9621 18.377C86.9227 18.2554 86.8833 18.133 86.8439 18.0098C86.8037 17.8866 86.7634 17.7617 86.7232 17.6359C86.683 17.5102 86.6411 17.3828 86.6 17.2545C86.5589 17.1263 86.5161 16.9955 86.4734 16.8639C86.4306 16.7323 86.3871 16.5982 86.3435 16.4623C86.2999 16.3265 86.2546 16.1891 86.2093 16.0491C86.1641 15.9091 86.1171 15.7666 86.0702 15.6216C86.0232 15.4765 85.9746 15.329 85.926 15.1789C85.8774 15.0289 85.8271 14.8755 85.7759 14.7196C85.7223 14.8738 85.6703 15.0255 85.6192 15.1739C85.5681 15.3223 85.5178 15.4673 85.4683 15.6098C85.4188 15.7523 85.3711 15.8915 85.3233 16.029C85.2755 16.1664 85.2294 16.3006 85.1833 16.433C85.1372 16.5655 85.0919 16.6954 85.0475 16.8236C85.003 16.9519 84.9595 17.0785 84.9159 17.2026C84.8723 17.3275 84.8295 17.4498 84.7876 17.5714C84.7457 17.6929 84.7038 17.8128 84.6619 17.9319C84.62 18.0509 84.5797 18.1691 84.5386 18.2856C84.4976 18.403 84.4573 18.5187 84.4171 18.6343C84.3769 18.75 84.3366 18.8649 84.2964 18.9797C84.2561 19.0946 84.2167 19.2086 84.1765 19.3226C84.1363 19.4366 84.0969 19.5506 84.0566 19.6654C84.0164 19.7803 83.9762 19.8943 83.9359 20.0091C83.8957 20.124 83.8554 20.2396 83.8144 20.3562C83.7733 20.4727 83.7322 20.5892 83.6911 20.7074C83.6501 20.8256 83.6081 20.9446 83.5654 21.0645C83.5235 21.1844 83.4807 21.3059 83.4371 21.4292C83.3936 21.5524 83.35 21.6765 83.3055 21.803C83.2611 21.9296 83.2158 22.057 83.1697 22.187C83.1236 22.3169 83.0775 22.4494 83.0297 22.5835C82.982 22.7176 82.9342 22.8542 82.8847 22.9934C82.8353 23.1326 82.7858 23.2742 82.7347 23.4184C82.6835 23.5626 82.6316 23.7101 82.5779 23.8602C82.4161 23.8426 82.2635 23.8258 82.1185 23.8099C81.9727 23.794 81.8343 23.7789 81.7011 23.7646C81.5678 23.7504 81.4387 23.7361 81.3129 23.7227C81.1872 23.7093 81.0648 23.6959 80.9433 23.6833C80.8217 23.6707 80.701 23.6582 80.5794 23.6447C80.4579 23.6322 80.3347 23.6196 80.2098 23.6062C80.084 23.5936 79.9558 23.5802 79.8216 23.5659C79.6875 23.5517 79.5492 23.5383 79.4033 23.5232C79.2575 23.5081 79.1049 23.493 78.9431 23.4771C79.001 23.3228 79.0571 23.172 79.1133 23.0227C79.1694 22.8735 79.2239 22.7268 79.2776 22.5818C79.3312 22.4368 79.3849 22.2943 79.4369 22.1543C79.4888 22.0143 79.5408 21.8751 79.5919 21.7385C79.6431 21.6019 79.6934 21.4669 79.7428 21.3336C79.7923 21.2003 79.8418 21.0687 79.8895 20.9379C79.9373 20.8072 79.9859 20.6789 80.0329 20.5515C80.0798 20.4241 80.1268 20.2975 80.1737 20.1726C80.2198 20.0477 80.2659 19.9236 80.3112 19.8004C80.3565 19.6772 80.4017 19.5556 80.447 19.4341C80.4914 19.3125 80.5367 19.1926 80.5803 19.0728C80.6239 18.9529 80.6683 18.8338 80.7127 18.7157C80.7563 18.5966 80.7999 18.4784 80.8435 18.3611C80.8871 18.2429 80.9307 18.1255 80.9734 18.0081C81.017 17.8908 81.0598 17.7734 81.1034 17.6561C81.147 17.5387 81.1897 17.4213 81.2333 17.3031C81.2769 17.1858 81.3196 17.0676 81.3632 16.9486C81.4068 16.8304 81.4504 16.7113 81.494 16.5914C81.5376 16.4724 81.582 16.3517 81.6265 16.231C81.6709 16.1103 81.7153 15.9887 81.7597 15.8663C81.8042 15.7439 81.8494 15.6207 81.8955 15.4958C81.9408 15.3709 81.9869 15.2452 82.033 15.1186C82.0791 14.9912 82.1261 14.8629 82.1739 14.7338C82.2216 14.6047 82.2694 14.4731 82.3172 14.3398C82.3658 14.2065 82.4144 14.0724 82.4639 13.9358C82.5134 13.7991 82.5637 13.6608 82.6148 13.5208C82.6659 13.3808 82.7179 13.2383 82.7699 13.0933C82.8218 12.9483 82.8755 12.8016 82.93 12.6524C82.9845 12.5031 83.039 12.3514 83.0951 12.1972C83.1513 12.0429 83.2075 11.8862 83.2653 11.7261C83.2108 11.5693 83.1572 11.4151 83.1052 11.2642C83.0524 11.1124 83.0004 10.9641 82.9501 10.8174C82.899 10.6707 82.8487 10.5265 82.7992 10.3848C82.7498 10.2431 82.7011 10.1031 82.6525 9.96483C82.6047 9.82735 82.5569 9.69155 82.51 9.55742C82.4631 9.4233 82.417 9.29085 82.3708 9.16092C82.3247 9.03014 82.2803 8.90189 82.235 8.77363C82.1906 8.64621 82.1462 8.52047 82.1026 8.39556C82.059 8.27066 82.0154 8.14743 81.9727 8.02504C81.9299 7.90265 81.8872 7.78194 81.8444 7.66123C81.8025 7.54135 81.7597 7.42148 81.7187 7.30328C81.6768 7.18509 81.6357 7.06689 81.5938 6.94953C81.5527 6.83217 81.5116 6.71565 81.4705 6.59913C81.4295 6.4826 81.3884 6.36692 81.3473 6.25124C81.3062 6.13556 81.266 6.01987 81.2249 5.90503C81.1838 5.79018 81.1436 5.6745 81.1025 5.55882C81.0614 5.44314 81.0204 5.32829 80.9793 5.21261C80.9382 5.09693 80.8971 4.98124 80.8561 4.86472C80.815 4.7482 80.7731 4.63168 80.7312 4.51348C80.6893 4.39612 80.6473 4.27792 80.6046 4.15889C80.5618 4.03985 80.5199 3.91998 80.4763 3.79926C80.4336 3.67855 80.39 3.557 80.3464 3.43461C80.3028 3.31222 80.2584 3.18816 80.2139 3.06325C80.1695 2.93835 80.1243 2.81177 80.0781 2.68435C80.032 2.55693 79.9859 2.427 79.939 2.29623C79.892 2.16545 79.8443 2.03301 79.7965 1.89888C79.7487 1.76476 79.6992 1.62895 79.6498 1.49064C79.6003 1.35232 79.55 1.21317 79.4989 1.07066C79.4478 0.928988 79.3958 0.784804 79.343 0.638105C79.2902 0.491405 79.2365 0.343029 79.182 0.192139H83.2116C83.2628 0.344706 83.3131 0.493082 83.3625 0.639781C83.412 0.785642 83.4598 0.928988 83.5067 1.06982C83.5537 1.21065 83.5998 1.34813 83.6459 1.48393C83.6911 1.61973 83.7356 1.75218 83.78 1.88379C83.8236 2.01456 83.8672 2.14366 83.9099 2.27108C83.9527 2.3985 83.9946 2.5234 84.0357 2.64747C84.0768 2.77153 84.1178 2.89392 84.1581 3.01463C84.1983 3.13535 84.2385 3.25522 84.2779 3.37426C84.3173 3.49329 84.3567 3.61065 84.3961 3.72801C84.4355 3.84537 84.4741 3.96189 84.5127 4.07841C84.5512 4.19493 84.5898 4.31062 84.6283 4.4263C84.6669 4.54198 84.7055 4.65767 84.7432 4.77335C84.7817 4.88903 84.8203 5.00555 84.8589 5.12207C84.8974 5.2386 84.936 5.35595 84.9754 5.47415C85.0148 5.59235 85.0533 5.71055 85.0936 5.83042C85.133 5.9503 85.1732 6.07101 85.2135 6.1934C85.2537 6.31579 85.2948 6.43985 85.3358 6.56476C85.3769 6.6905 85.4188 6.81708 85.4616 6.94617C85.5043 7.07527 85.5471 7.20604 85.5907 7.34017C85.6343 7.47429 85.6787 7.60926 85.7248 7.74757C85.7701 7.88589 85.8162 8.02672 85.8631 8.1709C85.9101 8.31509 85.9579 8.46179 86.0073 8.611C86.0559 8.76105 86.1062 8.91446 86.1574 9.07038C86.2093 8.91865 86.2605 8.76944 86.3099 8.62358C86.3594 8.47772 86.4089 8.33437 86.4566 8.19438C86.5044 8.05438 86.5514 7.91607 86.5975 7.7811C86.6436 7.6453 86.6888 7.51285 86.7333 7.38208C86.7777 7.25131 86.8213 7.12221 86.8649 6.9948C86.9085 6.86738 86.9504 6.74247 86.9923 6.61841C87.0342 6.49434 87.0761 6.37279 87.1172 6.25124C87.1583 6.12969 87.1985 6.01065 87.2387 5.89162C87.279 5.77258 87.3192 5.65522 87.3586 5.53786C87.398 5.4205 87.4374 5.30398 87.4768 5.18746C87.5162 5.07094 87.5556 4.95526 87.5942 4.83957C87.6327 4.72389 87.6721 4.60821 87.7115 4.49252C87.7509 4.37684 87.7895 4.26032 87.8289 4.1438C87.8683 4.02728 87.9077 3.90992 87.9471 3.79172C87.9865 3.67352 88.0267 3.55533 88.067 3.43545C88.1072 3.31558 88.1483 3.19486 88.1885 3.07247C88.2296 2.95009 88.2715 2.82602 88.3134 2.70112C88.3553 2.57537 88.3981 2.44879 88.4417 2.3197C88.4853 2.1906 88.5289 2.05899 88.5733 1.92571C88.6177 1.79242 88.663 1.65662 88.7091 1.5183C88.7552 1.37998 88.8021 1.23915 88.8508 1.09497C88.8985 0.950784 88.948 0.804084 88.9975 0.654032C89.0478 0.50398 89.0981 0.350574 89.1509 0.193815H90.021C90.1535 0.193815 90.2809 0.193815 90.4058 0.193815H92.7563H92.7555Z" fill="#E40A18"/>
</svg>
