<svg width="40" height="47" viewBox="0 0 40 47" fill="none" xmlns="http://www.w3.org/2000/svg">
<path d="M13.2684 32.8091V23.152L10.4545 24.0331V22.0118L15.5058 20.5607V32.8091H13.2684Z" fill="white"/>
<path d="M24.0202 33.0682C23.071 33.0682 22.2404 32.8148 21.5285 32.3081C20.8166 31.7898 20.2628 31.0642 19.8673 30.1314C19.4831 29.187 19.291 28.0756 19.291 26.7972C19.291 25.5303 19.4831 24.4246 19.8673 23.4802C20.2628 22.5358 20.8166 21.8103 21.5285 21.3035C22.2404 20.7852 23.071 20.5261 24.0202 20.5261C24.9695 20.5261 25.8 20.7852 26.512 21.3035C27.2239 21.8103 27.772 22.5358 28.1562 23.4802C28.5517 24.4246 28.7495 25.5303 28.7495 26.7972C28.7495 28.0756 28.5517 29.187 28.1562 30.1314C27.772 31.0642 27.2239 31.7898 26.512 32.3081C25.8 32.8148 24.9695 33.0682 24.0202 33.0682ZM24.0202 31.0297C24.7661 31.0297 25.3593 30.6554 25.8 29.9068C26.2521 29.1582 26.4781 28.1216 26.4781 26.7972C26.4781 25.4727 26.2521 24.4362 25.8 23.6876C25.3593 22.9389 24.7661 22.5646 24.0202 22.5646C23.2744 22.5646 22.6755 22.9389 22.2235 23.6876C21.7827 24.4362 21.5624 25.4727 21.5624 26.7972C21.5624 28.1216 21.7827 29.1582 22.2235 29.9068C22.6755 30.6554 23.2744 31.0297 24.0202 31.0297Z" fill="white"/>
<path fill-rule="evenodd" clip-rule="evenodd" d="M14.6329 1.7734L18.4311 6.11171C16.8532 6.37378 15.176 6.78842 13.5583 7.33664C11.0308 8.19318 8.52857 9.41605 6.77091 10.996C3.40763 14.0191 1.13885 18.1065 0.328922 22.6018C-0.481005 27.0971 0.214926 31.7394 2.30495 35.7831C4.39498 39.8268 7.75781 43.0373 11.8534 44.899C15.949 46.7607 20.5396 47.1655 24.8881 46.0485C29.2365 44.9315 33.0905 42.3574 35.831 38.7397C38.5715 35.1219 40.0395 30.6705 39.9992 26.1002C39.9927 25.3647 39.4024 24.7738 38.6807 24.7804C37.959 24.787 37.3793 25.3886 37.3857 26.1241C37.4207 30.0972 36.1446 33.9669 33.7622 37.1119C31.3799 40.2568 28.0295 42.4945 24.2493 43.4656C20.4691 44.4367 16.4783 44.0847 12.918 42.4663C9.3576 40.8479 6.43421 38.057 4.61731 34.5417C2.8004 31.0264 2.19541 26.9907 2.8995 23.0829C3.60359 19.175 5.57589 15.6217 8.49966 12.9937C9.88553 11.7479 12.0167 10.6661 14.383 9.86423C15.5273 9.47643 16.6985 9.16357 17.8259 8.93158L14.6343 12.6642L16.6046 14.4142L22.0722 8.01992C22.5048 7.51397 22.5004 6.75898 22.062 6.25822L16.583 0L14.6329 1.7734ZM22.2469 1.67737L26.5343 7.10995L22.2404 12.1221L24.2091 13.874L29.2234 8.021C29.6401 7.53456 29.6544 6.81352 29.2573 6.31033L24.2835 0.00793517L22.2469 1.67737Z" fill="white"/>
</svg>
