<svg width="40" height="24" viewBox="0 0 60 64" fill="none" xmlns="http://www.w3.org/2000/svg">
  <path
    d="M28.9324 10.3883C28.4963 10.1996 28.018 10.13 27.5462 10.1866C27.0744 10.2432 26.6261 10.424 26.247 10.7105L13.4104 20.8616H3.60834C2.8961 20.8616 2.21304 21.1446 1.70941 21.6482C1.20579 22.1518 0.922852 22.8349 0.922852 23.5471V39.66C0.922852 40.3723 1.20579 41.0553 1.70941 41.5589C2.21304 42.0626 2.8961 42.3455 3.60834 42.3455H13.4104L26.1127 52.4966C26.5852 52.8757 27.1719 53.0839 27.7777 53.0874C28.1788 53.0941 28.5754 53.0018 28.9324 52.8189C29.3894 52.6012 29.7756 52.2589 30.0464 51.8312C30.3173 51.4036 30.4617 50.9081 30.4632 50.402V12.8052C30.4617 12.299 30.3173 11.8035 30.0464 11.3759C29.7756 10.9483 29.3894 10.6059 28.9324 10.3883ZM25.0922 44.8161L16.0153 37.5653C15.5428 37.1863 14.956 36.978 14.3503 36.9745H6.29382V26.2326H14.3503C14.956 26.2291 15.5428 26.0209 16.0153 25.6418L25.0922 18.391V44.8161Z"
    fill="white"
  />
  <path
    d="M36.1858 53.0306C36.1858 53.8523 36.8529 54.5235 37.6729 54.4701C43.201 54.1105 48.4311 51.7549 52.3721 47.8139C56.665 43.521 59.0767 37.6987 59.0767 31.6276C59.0767 25.5566 56.665 19.7342 52.3721 15.4414C48.4311 11.5004 43.201 9.14478 37.6729 8.78513C36.8529 8.73178 36.1858 9.40297 36.1858 10.2247C36.1858 11.0465 36.853 11.7068 37.6724 11.7681C42.4106 12.1226 46.8851 14.1628 50.2679 17.5456C54.0027 21.2804 56.1009 26.3458 56.1009 31.6276C56.1009 36.9094 54.0027 41.9749 50.2679 45.7097C46.8851 49.0925 42.4105 51.1326 37.6724 51.4871C36.853 51.5484 36.1858 52.2088 36.1858 53.0306Z"
    fill="white"
  />
  <path
    d="M36.184 41.6403C36.184 42.4305 36.827 43.0802 37.611 42.9817C40.1203 42.6665 42.4698 41.526 44.2771 39.7187C46.4235 37.5723 47.6294 34.6611 47.6294 31.6256C47.6294 28.5901 46.4235 25.6789 44.2771 23.5325C42.4698 21.7252 40.1203 20.5847 37.611 20.2694C36.827 20.1709 36.184 20.8207 36.184 21.6109C36.184 22.401 36.8289 23.0294 37.6081 23.1605C39.3565 23.4546 40.9837 24.2856 42.2538 25.5557C43.8637 27.1656 44.768 29.349 44.768 31.6256C44.768 33.9022 43.8637 36.0856 42.2538 37.6954C40.9837 38.9656 39.3565 39.7966 37.6081 40.0907C36.8289 40.2218 36.184 40.8502 36.184 41.6403Z"
    fill="white"
  />
  <path
    d="M36.1859 47.3384C36.1859 48.1443 36.8405 48.8041 37.6436 48.7357C41.6628 48.3934 45.4513 46.6435 48.3256 43.7692C51.5452 40.5496 53.354 36.1828 53.354 31.6295C53.354 27.0763 51.5452 22.7095 48.3256 19.4899C45.4513 16.6156 41.6628 14.8657 37.6436 14.5234C36.8405 14.455 36.1859 15.1148 36.1859 15.9207C36.1859 16.7267 36.841 17.3723 37.6427 17.4546C40.8867 17.7879 43.9351 19.2269 46.2618 21.5536C48.9341 24.2259 50.4354 27.8503 50.4354 31.6295C50.4354 35.4088 48.9341 39.0332 46.2618 41.7055C43.9351 44.0322 40.8867 45.4712 37.6427 45.8045C36.841 45.8868 36.1859 46.5324 36.1859 47.3384Z"
    fill="white"
  />
</svg>
