<svg width="149" height="41" viewBox="0 0 149 41" fill="none" xmlns="http://www.w3.org/2000/svg">
<path d="M13.5291 38.4948C13.4875 38.3768 13.4459 38.2641 13.4084 38.1514C13.3695 38.0388 13.3333 37.9274 13.2997 37.8094C13.2662 37.6914 13.234 37.568 13.2045 37.4325C13.175 37.2971 13.1482 37.1509 13.1227 36.9886C13.0986 36.8249 13.0758 36.6452 13.057 36.4427C13.0382 36.2402 13.0221 36.0135 13.0087 35.76C12.9953 35.5065 12.9859 35.2235 12.9792 34.9069C12.9725 34.5904 12.9698 34.239 12.9698 33.8487C12.9698 33.5805 12.9698 33.3283 12.9698 33.0855C12.9698 32.8441 12.9698 32.6148 12.9698 32.3921C12.9698 32.1708 12.9698 31.9575 12.9698 31.7483C12.9698 31.5404 12.9698 31.3365 12.9698 31.134C12.9698 30.9315 12.9698 30.7316 12.9698 30.5305C12.9698 30.3293 12.9698 30.1254 12.9698 29.9162C12.9698 29.7083 12.9698 29.495 12.9698 29.2724C12.9698 29.0511 12.9698 28.8204 12.9698 28.5789C12.9698 28.3375 12.9698 28.084 12.9698 27.8158C12.9698 27.4925 12.9604 27.1881 12.9403 26.9024C12.9202 26.6167 12.8893 26.3498 12.8477 26.1003C12.8062 25.8508 12.7539 25.6201 12.6895 25.4055C12.6264 25.1923 12.5513 24.9951 12.4655 24.8154C12.3796 24.6357 12.2817 24.472 12.1731 24.3232C12.0645 24.1756 11.9437 24.0428 11.8123 23.9261C11.6795 23.8095 11.536 23.7075 11.3804 23.6203C11.2248 23.5332 11.0558 23.4607 10.8761 23.4017C10.695 23.3427 10.5032 23.2984 10.298 23.2663C10.0928 23.2354 9.87419 23.2166 9.64484 23.2113C9.41415 23.2059 9.17004 23.2126 8.91386 23.2327C8.69926 23.2488 8.51149 23.2636 8.33712 23.277C8.16276 23.2904 8.00181 23.3025 7.84086 23.3145C7.67991 23.3266 7.51896 23.3387 7.3446 23.3521C7.17024 23.3655 6.98246 23.3803 6.76786 23.3964C6.76786 23.6619 6.76786 23.9221 6.76786 24.177C6.76786 24.4318 6.76786 24.6813 6.76786 24.9267C6.76786 25.1722 6.76786 25.4123 6.76786 25.6497C6.76786 25.8857 6.76786 26.1191 6.76786 26.3471C6.76786 26.5765 6.76786 26.8004 6.76786 27.0231C6.76786 27.2444 6.76786 27.463 6.76786 27.679C6.76786 27.8949 6.76786 28.1082 6.76786 28.3187C6.76786 28.5293 6.76786 28.7385 6.76786 28.9451C6.76786 29.1517 6.76786 29.3569 6.76786 29.5594C6.76786 29.7633 6.76786 29.9644 6.76786 30.1656C6.76786 30.3668 6.76786 30.5667 6.76786 30.7665C6.76786 30.9664 6.76786 31.1649 6.76786 31.3647C6.76786 31.5646 6.76786 31.7631 6.76786 31.9629C6.76786 32.1628 6.76786 32.3626 6.76786 32.5638C6.76786 32.765 6.76786 32.9675 6.76786 33.17C6.76786 33.3739 6.76786 33.5778 6.76786 33.7843C6.76786 33.9909 6.76786 34.1988 6.76786 34.4107C6.76786 34.6226 6.76786 34.8345 6.76786 35.0505C6.76786 35.2664 6.76786 35.485 6.76786 35.7063C6.76786 35.9276 6.76786 36.153 6.76786 36.3823C6.76786 36.6117 6.76786 36.8437 6.76786 37.0798C6.76786 37.3158 6.76786 37.5573 6.76786 37.8027C6.76786 38.0482 6.76786 38.2976 6.76786 38.5525C6.76786 38.8073 6.76786 39.0675 6.76786 39.3331C6.51973 39.3653 6.28501 39.3975 6.05834 39.427C5.83301 39.4565 5.61707 39.486 5.40918 39.5141C5.20128 39.5423 5.0001 39.5691 4.80427 39.596C4.60845 39.6228 4.41799 39.6483 4.22888 39.6737C4.0411 39.6992 3.85467 39.7247 3.66958 39.7502C3.48448 39.7757 3.29805 39.8012 3.11028 39.828C2.9225 39.8535 2.7307 39.8803 2.53622 39.9085C2.34174 39.9366 2.14055 39.9635 1.93132 39.993C1.72208 40.0225 1.50748 40.0533 1.28215 40.0855C1.05682 40.1177 0.822106 40.1512 0.573975 40.1874V34.176C0.573975 33.9399 0.573975 33.7065 0.573975 33.4732V22.5929C0.573975 22.3918 0.573975 22.1906 0.573975 21.9907V10.2856C0.573975 10.067 0.573975 9.84706 0.573975 9.62575V4.76641C0.573975 4.52364 0.573975 4.27953 0.573975 4.03274V0.984084C0.573975 0.7212 0.573975 0.456974 0.573975 0.191406H4.66344C4.86597 0.191406 5.06716 0.191406 5.26835 0.191406H9.96272C10.2551 0.191406 10.5408 0.198113 10.8198 0.210184C11.0988 0.222255 11.3683 0.241032 11.6312 0.263834C11.8941 0.287976 12.1503 0.317484 12.3984 0.353697C12.6466 0.389911 12.888 0.43149 13.1214 0.479775C13.3547 0.52806 13.5814 0.58171 13.8 0.642066C14.0187 0.702422 14.2306 0.768143 14.4358 0.839229C14.641 0.910316 14.8382 0.988108 15.0286 1.07261C15.2191 1.15576 15.4028 1.24563 15.5799 1.34086C15.7569 1.43609 15.9273 1.53802 16.0895 1.64398C16.2532 1.75128 16.4088 1.86394 16.5576 1.98331C16.7065 2.10269 16.85 2.22742 16.9855 2.35752C17.121 2.48762 17.2511 2.62577 17.3731 2.76795C17.4965 2.91012 17.6119 3.059 17.7218 3.21324C17.8318 3.36748 17.9351 3.52843 18.0317 3.69475C18.1282 3.86106 18.2194 4.03408 18.3026 4.21247C18.3858 4.39086 18.4649 4.57595 18.536 4.76641C18.6071 4.95686 18.6728 5.15403 18.7318 5.35656C18.7908 5.55908 18.8431 5.76832 18.8901 5.98292C18.937 6.19752 18.9773 6.41882 19.0121 6.6455C19.047 6.87217 19.0752 7.10554 19.098 7.34563C19.1208 7.58571 19.1382 7.82982 19.1489 8.08197C19.1597 8.33413 19.165 8.59165 19.165 8.85588C19.165 9.09328 19.165 9.30519 19.165 9.50504C19.165 9.70354 19.165 9.88864 19.165 10.0684C19.165 10.2481 19.165 10.4238 19.165 10.6035C19.165 10.7832 19.165 10.9683 19.165 11.1668C19.165 11.3654 19.165 11.5786 19.165 11.816C19.165 12.0923 19.157 12.3632 19.1436 12.6261C19.1302 12.889 19.11 13.1465 19.0819 13.3973C19.055 13.6482 19.0202 13.8923 18.9799 14.1297C18.9397 14.3671 18.8914 14.5978 18.8378 14.8231C18.7828 15.0471 18.7224 15.2657 18.654 15.4776C18.5856 15.6895 18.5105 15.8947 18.4287 16.0946C18.3469 16.2944 18.257 16.4862 18.1618 16.674C18.0652 16.8604 17.9619 17.0415 17.8519 17.2159C17.742 17.3902 17.6239 17.5579 17.4992 17.7202C17.3745 17.8825 17.243 18.0381 17.1035 18.1869C16.964 18.3358 16.8178 18.4807 16.6649 18.6175C16.512 18.7543 16.3511 18.8857 16.1821 19.0118C16.0144 19.1365 15.8387 19.2559 15.655 19.3699C15.4726 19.4826 15.2821 19.5899 15.0836 19.6918C15.2902 19.7629 15.4887 19.842 15.6764 19.9292C15.8656 20.0164 16.0453 20.1103 16.2156 20.2109C16.386 20.3115 16.5496 20.4215 16.7038 20.5368C16.8581 20.6522 17.0043 20.7756 17.1411 20.9057C17.2792 21.0358 17.408 21.1726 17.53 21.3161C17.6521 21.4596 17.7661 21.6098 17.8734 21.7667C17.9807 21.9237 18.08 22.0873 18.1725 22.2563C18.265 22.4253 18.3495 22.6023 18.4287 22.7847C18.5078 22.9672 18.5789 23.1563 18.6446 23.3507C18.7103 23.5452 18.7694 23.7464 18.8217 23.953C18.874 24.1595 18.9209 24.3728 18.9625 24.5901C19.0027 24.8087 19.0389 25.0327 19.0685 25.262C19.098 25.4914 19.1221 25.7274 19.1409 25.9675C19.1597 26.2076 19.1731 26.4544 19.1825 26.7052C19.1919 26.956 19.1959 27.2135 19.1945 27.4751C19.1945 27.734 19.1945 27.9767 19.1945 28.2101C19.1945 28.4435 19.1945 28.6648 19.1945 28.878C19.1945 29.0913 19.1945 29.2978 19.1945 29.4977C19.1945 29.6989 19.1945 29.8947 19.1945 30.0892C19.1945 30.2837 19.1945 30.4768 19.1945 30.6713C19.1945 30.8658 19.1945 31.0616 19.1945 31.2628C19.1945 31.464 19.1945 31.6692 19.1945 31.8824C19.1945 32.0957 19.1945 32.317 19.1945 32.5504C19.1945 32.7838 19.1945 33.0265 19.1945 33.2854C19.1945 33.5469 19.1945 33.7977 19.1986 34.0405C19.2026 34.2833 19.2079 34.518 19.2187 34.7447C19.2294 34.9713 19.2428 35.1913 19.2629 35.4059C19.2831 35.6205 19.3085 35.8284 19.3407 36.0323C19.3729 36.2361 19.4132 36.436 19.4614 36.6318C19.5097 36.829 19.5661 37.0221 19.6331 37.2139C19.7002 37.4057 19.7766 37.5962 19.8652 37.7866C19.6117 37.8134 19.3716 37.8389 19.1422 37.8631C18.9115 37.8872 18.6916 37.9113 18.4796 37.9342C18.2677 37.957 18.0625 37.9798 17.8627 38.0012C17.6628 38.0227 17.4683 38.0441 17.2765 38.0656C17.0847 38.0871 16.8943 38.1085 16.7052 38.1286C16.5161 38.1488 16.3256 38.1716 16.1338 38.193C15.942 38.2145 15.7475 38.2373 15.5477 38.2601C15.3478 38.2829 15.1426 38.307 14.9307 38.3312C14.7188 38.3553 14.4988 38.3808 14.2681 38.4076C14.0388 38.4344 13.7987 38.4626 13.5452 38.4921L13.5291 38.4948ZM6.78798 5.7871C6.78798 6.05401 6.78798 6.31421 6.78798 6.5677C6.78798 6.8212 6.78798 7.06799 6.78798 7.30807C6.78798 7.54816 6.78798 7.78422 6.78798 8.01357C6.78798 8.24427 6.78798 8.46825 6.78798 8.68956C6.78798 8.91086 6.78798 9.12681 6.78798 9.34141C6.78798 9.55466 6.78798 9.76524 6.78798 9.97313C6.78798 10.181 6.78798 10.3862 6.78798 10.5901C6.78798 10.794 6.78798 10.9952 6.78798 11.1977C6.78798 11.3989 6.78798 11.5987 6.78798 11.7999C6.78798 11.9998 6.78798 12.2009 6.78798 12.4021C6.78798 12.6033 6.78798 12.8059 6.78798 13.0097C6.78798 13.2136 6.78798 13.4188 6.78798 13.6267C6.78798 13.8346 6.78798 14.0452 6.78798 14.2584C6.78798 14.4717 6.78798 14.689 6.78798 14.9103C6.78798 15.1316 6.78798 15.3569 6.78798 15.5863C6.78798 15.817 6.78798 16.0517 6.78798 16.2918C6.78798 16.5318 6.78798 16.7786 6.78798 17.0321C6.78798 17.2856 6.78798 17.5445 6.78798 17.8127C7.03075 17.798 7.24266 17.7859 7.43983 17.7738C7.63699 17.7618 7.8194 17.751 8.00181 17.7416C8.18422 17.7309 8.36663 17.7202 8.56379 17.7095C8.76096 17.6987 8.97287 17.6853 9.21698 17.6719C9.44902 17.6585 9.67167 17.6357 9.88358 17.6035C10.0968 17.57 10.2994 17.527 10.4939 17.4721C10.687 17.4171 10.8707 17.3513 11.0438 17.2722C11.2168 17.1931 11.3791 17.1019 11.5306 16.9973C11.6822 16.8926 11.8217 16.7733 11.9504 16.6405C12.0792 16.5077 12.1959 16.3602 12.3019 16.1965C12.4078 16.0329 12.5004 15.8545 12.5808 15.6573C12.6613 15.4615 12.7297 15.2483 12.7834 15.0176C12.837 14.7869 12.8799 14.5387 12.9081 14.2705C12.9363 14.0022 12.951 13.7166 12.951 13.4094C12.951 13.1573 12.951 12.9266 12.951 12.7093C12.951 12.492 12.951 12.2895 12.951 12.0923C12.951 11.8965 12.951 11.7074 12.951 11.5183C12.951 11.3291 12.951 11.14 12.951 10.9442C12.951 10.7484 12.951 10.5445 12.951 10.3272C12.951 10.1099 12.951 9.87925 12.951 9.62709C12.951 9.32263 12.9403 9.03694 12.9161 8.77137C12.892 8.50447 12.8558 8.25768 12.8075 8.02832C12.7592 7.79897 12.6975 7.58705 12.6224 7.39391C12.5486 7.20077 12.4601 7.02507 12.3595 6.8668C12.2589 6.70853 12.1436 6.5677 12.0162 6.44297C11.8874 6.31823 11.7466 6.21093 11.5897 6.12107C11.4341 6.02986 11.2624 5.95609 11.0773 5.89708C10.8922 5.83806 10.6924 5.79649 10.4778 5.76966C10.2632 5.74284 10.0338 5.73211 9.78835 5.73613C9.54827 5.74015 9.33233 5.74418 9.13114 5.7482C8.92995 5.75222 8.74352 5.75491 8.56111 5.75893C8.3787 5.76161 8.20166 5.76564 8.01925 5.76832C7.83684 5.771 7.6504 5.77503 7.44922 5.77905C7.24803 5.78307 7.03209 5.7871 6.792 5.79112L6.78798 5.7871Z" fill="#E40A18"/>
<path d="M29.4967 15.648C29.7596 15.6386 30.0117 15.6292 30.2558 15.6198C30.5 15.6104 30.736 15.6024 30.964 15.5943C31.192 15.5863 31.4147 15.5782 31.6306 15.5715C31.8466 15.5635 32.0571 15.5568 32.2637 15.5501C32.4702 15.5433 32.6728 15.5366 32.874 15.5286C33.0751 15.5219 33.2723 15.5152 33.4708 15.5085C33.6693 15.5018 33.8651 15.4951 34.0623 15.4884C34.2595 15.4817 34.458 15.4749 34.6592 15.4682C34.8604 15.4615 35.0629 15.4548 35.2694 15.4481C35.476 15.4414 35.6866 15.4347 35.9025 15.428C36.1184 15.4213 36.3397 15.4146 36.5691 15.4079C36.7985 15.4012 37.0332 15.3931 37.2773 15.3864C37.5214 15.3784 37.7735 15.3717 38.0364 15.3636C38.0364 15.6211 38.0364 15.8612 38.0351 16.0906C38.0351 16.3199 38.0351 16.5359 38.0351 16.7451C38.0351 16.9543 38.0351 17.1542 38.0351 17.3514C38.0351 17.5485 38.0351 17.7417 38.0351 17.9335C38.0351 18.1266 38.0351 18.3197 38.0351 18.5156C38.0351 18.7114 38.0351 18.9126 38.0351 19.1218C38.0351 19.331 38.0351 19.547 38.0351 19.7763C38.0351 20.0057 38.0351 20.2458 38.0337 20.5033C37.7709 20.514 37.5187 20.5234 37.2746 20.5341C37.0305 20.5449 36.7944 20.5543 36.5664 20.5636C36.3384 20.573 36.1158 20.5824 35.8998 20.5918C35.6839 20.6012 35.4733 20.6092 35.2654 20.6186C35.0589 20.628 34.855 20.6361 34.6551 20.6455C34.454 20.6548 34.2568 20.6629 34.0583 20.6709C33.8611 20.6803 33.664 20.6884 33.4668 20.6978C33.2696 20.7072 33.0711 20.7152 32.8699 20.7246C32.6688 20.734 32.4662 20.7434 32.2597 20.7528C32.0531 20.7621 31.8425 20.7715 31.6266 20.7823C31.4107 20.793 31.1894 20.8024 30.96 20.8131C30.7306 20.8238 30.4959 20.8359 30.2518 20.8466C30.0077 20.8587 29.7556 20.8708 29.4927 20.8842C29.4927 21.1364 29.4927 21.3818 29.4913 21.6205C29.4913 21.8593 29.4913 22.0913 29.49 22.318C29.49 22.5447 29.49 22.7646 29.49 22.9806C29.49 23.1965 29.49 23.4071 29.49 23.615C29.49 23.8229 29.49 24.0254 29.49 24.2253C29.49 24.4251 29.49 24.6223 29.49 24.8181C29.49 25.0139 29.49 25.2057 29.49 25.3975C29.49 25.5893 29.49 25.7798 29.49 25.9689C29.49 26.158 29.49 26.3484 29.49 26.5376C29.49 26.7267 29.49 26.9171 29.49 27.1089C29.49 27.3007 29.49 27.4925 29.49 27.6884C29.49 27.8842 29.49 28.08 29.49 28.2812C29.49 28.481 29.49 28.6849 29.49 28.8915C29.49 29.098 29.49 29.3099 29.49 29.5259C29.49 29.7418 29.49 29.9631 29.49 30.1884C29.49 30.4138 29.49 30.6472 29.4886 30.8859C29.4886 31.1246 29.4887 31.3701 29.4873 31.6222C29.7395 31.6035 29.9849 31.5847 30.2237 31.5672C30.4624 31.5498 30.6944 31.5324 30.9211 31.5163C31.1478 31.5002 31.3691 31.4841 31.585 31.4693C31.801 31.4546 32.0129 31.4385 32.2194 31.4251C32.4273 31.4103 32.6299 31.3969 32.831 31.3822C33.0309 31.3687 33.2281 31.3553 33.4239 31.3419C33.6184 31.3285 33.8115 31.3151 34.0033 31.303C34.1951 31.2896 34.3855 31.2775 34.5747 31.2655C34.7638 31.2534 34.9542 31.24 35.1434 31.2279C35.3325 31.2158 35.5243 31.2038 35.7147 31.1904C35.9065 31.1783 36.0997 31.1662 36.2941 31.1528C36.49 31.1407 36.6871 31.1287 36.887 31.1152C37.0868 31.1018 37.2907 31.0898 37.4986 31.0777C37.7065 31.0656 37.9171 31.0522 38.133 31.0388C38.3489 31.0254 38.5702 31.012 38.7969 30.9986C39.0236 30.9851 39.2556 30.9717 39.4957 30.9583C39.7344 30.9449 39.9799 30.9302 40.2334 30.9154C40.2334 31.1716 40.2334 31.4117 40.2321 31.6397C40.2321 31.8677 40.2321 32.0836 40.2321 32.2915C40.2321 32.4994 40.2321 32.6993 40.2321 32.8951C40.2321 33.0909 40.2321 33.2827 40.2321 33.4745C40.2321 33.6663 40.2321 33.8581 40.2321 34.0539C40.2321 34.2497 40.2321 34.4496 40.2321 34.6575C40.2321 34.8654 40.2321 35.0813 40.2321 35.3093C40.2321 35.5373 40.2321 35.7774 40.2307 36.0336C39.9692 36.051 39.713 36.0685 39.4622 36.0846C39.21 36.102 38.9632 36.1181 38.7205 36.1355C38.4777 36.153 38.239 36.1691 38.0042 36.1852C37.7695 36.2013 37.5388 36.2187 37.3122 36.2348C37.0855 36.2509 36.8615 36.267 36.6402 36.2831C36.4189 36.2992 36.2016 36.3153 35.987 36.3314C35.7724 36.3475 35.5605 36.3636 35.3499 36.3796C35.1407 36.3957 34.9328 36.4118 34.7276 36.4266C34.5224 36.4413 34.3185 36.4588 34.116 36.4735C33.9134 36.4896 33.7136 36.5057 33.5137 36.5205C33.3139 36.5366 33.1167 36.5527 32.9196 36.5674C32.7224 36.5822 32.5252 36.5996 32.3294 36.6157C32.1336 36.6318 31.9378 36.6479 31.7419 36.664C31.5461 36.6801 31.3503 36.6962 31.1545 36.7123C30.9587 36.7284 30.7615 36.7458 30.5643 36.7619C30.3672 36.778 30.1687 36.7954 29.9702 36.8129C29.7703 36.8303 29.5705 36.8477 29.3693 36.8652C29.1668 36.8826 28.9642 36.9001 28.759 36.9188C28.5538 36.9376 28.3459 36.955 28.1367 36.9738C27.9274 36.9926 27.7155 37.0114 27.5009 37.0315C27.2863 37.0516 27.069 37.0704 26.8491 37.0919C26.6291 37.112 26.4051 37.1334 26.1784 37.1535C25.9518 37.175 25.7211 37.1965 25.4864 37.2193C25.2516 37.2421 25.0142 37.2649 24.7715 37.2877C24.5287 37.3105 24.2833 37.3346 24.0311 37.3601C23.779 37.3856 23.5241 37.4097 23.2639 37.4352C23.2639 37.1696 23.2639 36.9054 23.2653 36.6439C23.2653 36.3823 23.2653 36.1235 23.2666 35.866C23.2666 35.6084 23.2666 35.3549 23.2679 35.1014C23.2679 34.8493 23.2679 34.5985 23.2693 34.3503C23.2693 34.1022 23.2693 33.8554 23.2693 33.6113C23.2693 33.3672 23.2693 33.1244 23.2693 32.8844C23.2693 32.6443 23.2693 32.4055 23.2693 32.1681C23.2693 31.9307 23.2693 31.696 23.2693 31.4626C23.2693 31.2293 23.2693 30.9972 23.2693 30.7679C23.2693 30.5372 23.2693 30.3092 23.2693 30.0825C23.2693 29.8558 23.2693 29.6305 23.2693 29.4065C23.2693 29.1825 23.2693 28.9599 23.2693 28.7386C23.2693 28.5172 23.2693 28.2973 23.2693 28.0787C23.2693 27.86 23.2693 27.6428 23.2693 27.4268C23.2693 27.2109 23.2693 26.9963 23.2693 26.7817C23.2693 26.5671 23.2693 26.3552 23.2693 26.1432C23.2693 25.9313 23.2693 25.7207 23.2693 25.5115C23.2693 25.3023 23.2693 25.093 23.2693 24.8851C23.2693 24.6773 23.2693 24.4694 23.2693 24.2641C23.2693 24.0589 23.2693 23.8524 23.2693 23.6472C23.2693 23.442 23.2693 23.2381 23.2693 23.0342C23.2693 22.8304 23.2693 22.6278 23.2693 22.4253C23.2693 22.2228 23.2693 22.0202 23.2693 21.8191C23.2693 21.6179 23.2693 21.4167 23.2693 21.2155C23.2693 21.0143 23.2693 20.8145 23.2693 20.6133C23.2693 20.4121 23.2693 20.2136 23.2693 20.0137C23.2693 19.8139 23.2693 19.614 23.2693 19.4142C23.2693 19.2143 23.2693 19.0145 23.2693 18.816C23.2693 18.6161 23.2693 18.4163 23.2693 18.2178C23.2693 18.0193 23.2693 17.8181 23.2693 17.6183C23.2693 17.4184 23.2693 17.2186 23.2693 17.0187C23.2693 16.8189 23.2693 16.6177 23.2693 16.4165C23.2693 16.2153 23.2693 16.0141 23.2693 15.8129C23.2693 15.6118 23.2693 15.4092 23.2693 15.2067C23.2693 15.0042 23.2693 14.8016 23.2693 14.5978C23.2693 14.3939 23.2693 14.19 23.2693 13.9848C23.2693 13.7796 23.2693 13.5744 23.2693 13.3678C23.2693 13.1613 23.2693 12.9547 23.2693 12.7468C23.2693 12.5389 23.2693 12.3297 23.2693 12.1205C23.2693 11.9112 23.2693 11.6993 23.2693 11.4888C23.2693 11.2768 23.2693 11.0649 23.2693 10.8503C23.2693 10.6357 23.2693 10.4211 23.2693 10.2052C23.2693 9.98924 23.2693 9.77195 23.2693 9.55333C23.2693 9.33471 23.2693 9.11474 23.2693 8.89344C23.2693 8.67213 23.2693 8.44948 23.2693 8.22549C23.2693 8.0015 23.2693 7.77617 23.2693 7.5495C23.2693 7.32283 23.2693 7.09348 23.2693 6.86413C23.2693 6.63343 23.2693 6.40274 23.2693 6.16936C23.2693 5.93598 23.2693 5.70126 23.2693 5.46386C23.2693 5.22646 23.2693 4.98772 23.2693 4.74763C23.2693 4.50755 23.2693 4.26478 23.2693 4.02068C23.2693 3.77657 23.2693 3.52978 23.2693 3.28165C23.2693 3.03352 23.2693 2.78271 23.2706 2.53055C23.272 2.2784 23.2706 2.02356 23.272 1.76604C23.272 1.50852 23.272 1.24966 23.2733 0.988114C23.2733 0.726571 23.2733 0.463686 23.2746 0.196777H24.7835C25.0263 0.196777 25.2637 0.196777 25.4984 0.196777H40.2414C40.2414 0.452956 40.2414 0.69304 40.2401 0.921052C40.2401 1.14906 40.2401 1.36501 40.2401 1.5729C40.2401 1.78079 40.2401 1.98064 40.2401 2.17646C40.2401 2.37228 40.2401 2.56408 40.2401 2.75588C40.2401 2.94768 40.2401 3.13948 40.2401 3.3353C40.2401 3.53112 40.2401 3.73097 40.2401 3.93886C40.2401 4.14675 40.2401 4.3627 40.2401 4.59071C40.2401 4.81872 40.2401 5.0588 40.2388 5.31498C39.9853 5.31767 39.7398 5.32035 39.5011 5.32169C39.2623 5.32303 39.0303 5.32571 38.8036 5.3284C38.577 5.33108 38.3556 5.33242 38.1397 5.3351C37.9238 5.33778 37.7118 5.33913 37.5053 5.34181C37.2974 5.34449 37.0949 5.34583 36.8937 5.34851C36.6938 5.3512 36.4967 5.35254 36.3009 5.35522C36.1064 5.3579 35.9132 5.35924 35.7214 5.36193C35.5296 5.36461 35.3392 5.36595 35.1501 5.36863C34.9596 5.37132 34.7705 5.37266 34.5814 5.37534C34.3909 5.37802 34.2018 5.37936 34.01 5.38205C33.8182 5.38473 33.6251 5.38607 33.4306 5.38875C33.2361 5.39143 33.0376 5.39278 32.8377 5.39546C32.6379 5.39814 32.434 5.39948 32.2261 5.40216C32.0182 5.40485 31.8077 5.40753 31.5917 5.41021C31.3758 5.41289 31.1545 5.41558 30.9278 5.41826C30.7011 5.42094 30.4691 5.42362 30.2304 5.42631C29.9916 5.42899 29.7462 5.43167 29.4927 5.4357C29.4927 5.69053 29.4927 5.93866 29.4913 6.17875C29.4913 6.41883 29.4913 6.65221 29.49 6.88022C29.49 7.10823 29.49 7.32954 29.49 7.54548C29.49 7.76142 29.49 7.97334 29.49 8.18123C29.49 8.38913 29.49 8.59165 29.49 8.79284C29.49 8.99269 29.49 9.19119 29.49 9.38567C29.49 9.5815 29.49 9.77464 29.49 9.96778C29.49 10.1609 29.49 10.3514 29.49 10.5432C29.49 10.735 29.49 10.9268 29.49 11.1186C29.49 11.3117 29.49 11.5048 29.49 11.7007C29.49 11.8965 29.49 12.0937 29.49 12.2935C29.49 12.4933 29.49 12.6972 29.49 12.9051C29.49 13.113 29.49 13.3236 29.49 13.5409C29.49 13.7568 29.49 13.9781 29.49 14.2061C29.49 14.4341 29.49 14.6675 29.4886 14.9076C29.4873 15.1477 29.4887 15.3958 29.4873 15.6506L29.4967 15.648Z" fill="#E40A18"/>
<path d="M44.1177 0.195435H44.8796C45.125 0.195435 45.3638 0.195435 45.5958 0.195435H53.9571C54.2401 0.195435 54.5164 0.202141 54.786 0.214212C55.0556 0.226283 55.3185 0.245061 55.576 0.270545C55.8322 0.296028 56.083 0.326877 56.3258 0.364432C56.5699 0.401987 56.806 0.444907 57.0366 0.494533C57.2673 0.544159 57.4913 0.599151 57.7086 0.662189C57.9259 0.723887 58.1378 0.79229 58.3417 0.864718C58.5469 0.938486 58.7441 1.01762 58.9359 1.10346C59.1277 1.1893 59.3127 1.2805 59.4911 1.37842C59.6695 1.47633 59.8425 1.5796 60.0075 1.68824C60.1738 1.79689 60.3321 1.91223 60.485 2.03295C60.6379 2.15366 60.7841 2.27973 60.9249 2.41252C61.0644 2.5453 61.1985 2.68345 61.326 2.82696C61.4534 2.97048 61.5741 3.1207 61.6881 3.27494C61.8021 3.43053 61.9107 3.59014 62.0113 3.75645C62.1133 3.92277 62.2085 4.09445 62.297 4.27149C62.3855 4.44853 62.4687 4.63229 62.5438 4.82006C62.6203 5.00918 62.69 5.20232 62.753 5.40216C62.8161 5.60201 62.8738 5.80722 62.9234 6.0178C62.9744 6.22837 63.0186 6.44431 63.0562 6.66562C63.0937 6.88692 63.1259 7.1136 63.1501 7.34563C63.1742 7.57767 63.1943 7.81507 63.2064 8.05783C63.2185 8.3006 63.2252 8.54873 63.2252 8.80223C63.2252 9.06377 63.2252 9.31995 63.2252 9.57076C63.2252 9.82292 63.2252 10.0697 63.2252 10.3125C63.2252 10.5552 63.2252 10.794 63.2252 11.03C63.2252 11.2648 63.2252 11.4968 63.2252 11.7248C63.2252 11.9528 63.2252 12.1768 63.2252 12.3995C63.2252 12.6208 63.2252 12.8394 63.2252 13.0553C63.2252 13.2713 63.2252 13.4845 63.2252 13.6951C63.2252 13.9057 63.2252 14.1149 63.2252 14.3215C63.2252 14.528 63.2252 14.7332 63.2252 14.9358C63.2252 15.1383 63.2252 15.3395 63.2252 15.5407C63.2252 15.7405 63.2252 15.939 63.2252 16.1375C63.2252 16.336 63.2252 16.5318 63.2252 16.729C63.2252 16.9262 63.2252 17.122 63.2252 17.3178C63.2252 17.5136 63.2252 17.7095 63.2252 17.9053C63.2252 18.1011 63.2252 18.2969 63.2252 18.4941C63.2252 18.6913 63.2252 18.8871 63.2252 19.0856C63.2252 19.2841 63.2252 19.4826 63.2252 19.6824C63.2252 19.8823 63.2252 20.0835 63.2252 20.2873C63.2252 20.4899 63.2252 20.6951 63.2252 20.9016C63.2252 21.1082 63.2252 21.3161 63.2252 21.528C63.2252 21.7386 63.2252 21.9518 63.2252 22.1678C63.2252 22.3837 63.2252 22.6023 63.2252 22.8236C63.2252 23.0449 63.2252 23.2703 63.2252 23.4983C63.2252 23.7263 63.2252 23.9583 63.2252 24.1931C63.2252 24.4278 63.2252 24.6665 63.2252 24.9106C63.2252 25.1534 63.2252 25.4002 63.2252 25.6523C63.2252 25.9045 63.2252 26.1607 63.2252 26.4209C63.2252 26.6744 63.2185 26.9225 63.205 27.1653C63.1916 27.408 63.1729 27.6454 63.1474 27.8788C63.1219 28.1108 63.0897 28.3389 63.0521 28.5615C63.0146 28.7842 62.969 29.0001 62.918 29.212C62.8671 29.4239 62.8094 29.6305 62.7463 29.8303C62.6833 30.0315 62.6122 30.2273 62.5358 30.4178C62.4593 30.6082 62.3762 30.7933 62.2876 30.9731C62.1991 31.1528 62.1025 31.3272 62.0006 31.4962C61.8987 31.6652 61.79 31.8288 61.676 31.9857C61.5607 32.144 61.44 32.2955 61.3125 32.4431C61.1851 32.5906 61.051 32.7314 60.9102 32.8669C60.7693 33.0024 60.6231 33.1338 60.4689 33.2586C60.316 33.3833 60.1551 33.5027 59.9887 33.6167C59.8224 33.7307 59.6494 33.8393 59.471 33.9413C59.2913 34.0445 59.1062 34.1411 58.9144 34.2323C58.7226 34.3235 58.5241 34.4093 58.3189 34.4898C58.1137 34.5703 57.9018 34.6441 57.6845 34.7138C57.4672 34.7836 57.2419 34.8453 57.0112 34.9029C56.7805 34.9606 56.5417 35.0116 56.2976 35.0585C56.0535 35.1041 55.8027 35.1444 55.5452 35.1792C55.2877 35.2141 55.0248 35.2423 54.7538 35.2651C54.4843 35.2879 54.2066 35.3053 53.9236 35.316C53.6607 35.3268 53.4059 35.3362 53.1604 35.3469C52.9136 35.3576 52.6749 35.367 52.4429 35.3764C52.2108 35.3858 51.9842 35.3965 51.7629 35.4059C51.5415 35.4153 51.327 35.4247 51.115 35.4354C50.9031 35.4448 50.6966 35.4542 50.4914 35.4636C50.2875 35.473 50.085 35.4823 49.8851 35.4917C49.6853 35.5011 49.4868 35.5105 49.2896 35.5199C49.0924 35.5293 48.8953 35.5387 48.6981 35.5494C48.5009 35.5588 48.3024 35.5695 48.1026 35.5789C47.9027 35.5896 47.7016 35.599 47.4963 35.6098C47.2925 35.6205 47.0846 35.6312 46.8727 35.642C46.6607 35.6527 46.4461 35.6648 46.2248 35.6768C46.0035 35.6889 45.7782 35.701 45.5462 35.7144C45.3141 35.7278 45.0754 35.7412 44.8286 35.7546C44.5818 35.7694 44.3283 35.7841 44.0654 35.7989C44.0654 35.5347 44.0654 35.2745 44.0668 35.0156C44.0668 34.7567 44.0668 34.5006 44.0681 34.2457C44.0681 33.9909 44.0681 33.7387 44.0695 33.4893C44.0695 33.2398 44.0695 32.9916 44.0695 32.7462C44.0695 32.5008 44.0695 32.2566 44.0695 32.0152C44.0695 31.7738 44.0695 31.5337 44.0695 31.2963C44.0695 31.0589 44.0695 30.8228 44.0695 30.5895C44.0695 30.3561 44.0695 30.1227 44.0695 29.8934C44.0695 29.6627 44.0695 29.4347 44.0695 29.2066C44.0695 28.98 44.0695 28.7546 44.0695 28.5307C44.0695 28.3067 44.0695 28.084 44.0695 27.8641C44.0695 27.6441 44.0695 27.4241 44.0695 27.2055C44.0695 26.9869 44.0695 26.7709 44.0695 26.555C44.0695 26.3391 44.0695 26.1258 44.0695 25.9125C44.0695 25.6993 44.0695 25.4874 44.0695 25.2768C44.0695 25.0662 44.0695 24.8556 44.0695 24.6477C44.0695 24.4385 44.0695 24.232 44.0695 24.0241C44.0695 23.8162 44.0695 23.611 44.0695 23.4057C44.0695 23.2005 44.0695 22.9967 44.0695 22.7928C44.0695 22.5889 44.0695 22.3864 44.0695 22.1839C44.0695 21.9813 44.0695 21.7801 44.0695 21.579C44.0695 21.3778 44.0695 21.1779 44.0695 20.9767C44.0695 20.7769 44.0695 20.577 44.0695 20.3785C44.0695 20.1787 44.0695 19.9802 44.0695 19.7817C44.0695 19.5832 44.0695 19.3847 44.0695 19.1862C44.0695 18.9877 44.0695 18.7905 44.0695 18.592C44.0695 18.3935 44.0695 18.1963 44.0695 17.9992C44.0695 17.802 44.0695 17.6035 44.0695 17.4063C44.0695 17.2092 44.0695 17.0107 44.0695 16.8122C44.0695 16.6137 44.0695 16.4152 44.0695 16.2167C44.0695 16.0181 44.0695 15.8196 44.0695 15.6198C44.0695 15.4199 44.0695 15.2214 44.0695 15.0216C44.0695 14.8218 44.0695 14.6206 44.0695 14.4194C44.0695 14.2182 44.0695 14.017 44.0695 13.8145C44.0695 13.6119 44.0695 13.4094 44.0695 13.2055C44.0695 13.0017 44.0695 12.7978 44.0695 12.5926C44.0695 12.3874 44.0695 12.1822 44.0695 11.9743C44.0695 11.7677 44.0695 11.5598 44.0695 11.3506C44.0695 11.1414 44.0695 10.9321 44.0695 10.7216C44.0695 10.511 44.0695 10.2991 44.0695 10.0858C44.0695 9.87254 44.0695 9.65794 44.0695 9.44334C44.0695 9.22874 44.0695 9.01146 44.0695 8.79284C44.0695 8.57421 44.0695 8.35559 44.0695 8.13429C44.0695 7.91298 44.0695 7.69033 44.0695 7.46769C44.0695 7.24504 44.0695 7.01837 44.0695 6.7917C44.0695 6.56502 44.0695 6.33567 44.0695 6.10498C44.0695 5.87428 44.0695 5.64225 44.0695 5.40887C44.0695 5.17549 44.0695 4.93943 44.0695 4.70203C44.0695 4.46463 44.0695 4.22455 44.0695 3.98312C44.0695 3.7417 44.0695 3.49759 44.0695 3.25214C44.0695 3.00669 44.0695 2.75856 44.0695 2.50909C44.0695 2.25962 44.0695 2.00746 44.0708 1.75262C44.0708 1.49779 44.0708 1.24161 44.0721 0.982748C44.0735 0.723887 44.0721 0.462343 44.0735 0.199458L44.1177 0.195435ZM50.3317 5.23451C50.3317 5.50007 50.3317 5.76162 50.3317 6.02048C50.3317 6.27934 50.3317 6.53418 50.3317 6.78633C50.3317 7.03849 50.3317 7.28662 50.3317 7.53341C50.3317 7.7802 50.3317 8.02296 50.3317 8.26305C50.3317 8.50313 50.3317 8.74053 50.3317 8.97525C50.3317 9.20997 50.3317 9.442 50.3317 9.6727C50.3317 9.90205 50.3317 10.1301 50.3317 10.3554C50.3317 10.5807 50.3317 10.8034 50.3317 11.0247C50.3317 11.246 50.3317 11.4646 50.3317 11.6819C50.3317 11.8992 50.3317 12.1151 50.3317 12.3284C50.3317 12.5416 50.3317 12.7549 50.3317 12.9655C50.3317 13.176 50.3317 13.3853 50.3317 13.5932C50.3317 13.8011 50.3317 14.0076 50.3317 14.2128C50.3317 14.418 50.3317 14.6232 50.3317 14.8258C50.3317 15.0296 50.3317 15.2322 50.3317 15.4334C50.3317 15.6345 50.3317 15.8357 50.3317 16.0369C50.3317 16.2381 50.3317 16.438 50.3317 16.6365C50.3317 16.8363 50.3317 17.0348 50.3317 17.2347C50.3317 17.4332 50.3317 17.633 50.3317 17.8315C50.3317 18.03 50.3317 18.2299 50.3317 18.4284C50.3317 18.6269 50.3317 18.8267 50.3317 19.0266C50.3317 19.2264 50.3317 19.4263 50.3317 19.6261C50.3317 19.8273 50.3317 20.0271 50.3317 20.2297C50.3317 20.4309 50.3317 20.6347 50.3317 20.8373C50.3317 21.0398 50.3317 21.245 50.3317 21.4502C50.3317 21.6554 50.3317 21.862 50.3317 22.0699C50.3317 22.2778 50.3317 22.487 50.3317 22.6976C50.3317 22.9081 50.3317 23.1201 50.3317 23.3347C50.3317 23.5479 50.3317 23.7639 50.3317 23.9811C50.3317 24.1984 50.3317 24.417 50.3317 24.6384C50.3317 24.8597 50.3317 25.0823 50.3317 25.3076C50.3317 25.533 50.3317 25.761 50.3317 25.9903C50.3317 26.2197 50.3317 26.4531 50.3317 26.6878C50.3317 26.9225 50.3317 27.1599 50.3317 27.4C50.3317 27.6401 50.3317 27.8828 50.3317 28.1296C50.3317 28.3751 50.3317 28.6245 50.3317 28.8767C50.3317 29.1289 50.3317 29.3837 50.3317 29.6426C50.3317 29.9014 50.3317 30.163 50.3317 30.4285C50.5665 30.4191 50.7811 30.4111 50.9823 30.403C51.1834 30.395 51.3726 30.3883 51.555 30.3816C51.7374 30.3749 51.9131 30.3682 52.0888 30.3615C52.2645 30.3548 52.4402 30.348 52.6226 30.3413C52.805 30.3346 52.9928 30.3279 53.1953 30.3212C53.3965 30.3145 53.6111 30.3065 53.8458 30.2984C54.0658 30.2904 54.2764 30.2729 54.4762 30.2421C54.676 30.2126 54.8665 30.171 55.0449 30.116C55.2233 30.0624 55.3923 29.9953 55.5492 29.9148C55.7061 29.8344 55.851 29.7405 55.9851 29.6318C56.1179 29.5232 56.2399 29.4011 56.3486 29.2616C56.4572 29.1235 56.5538 28.9692 56.637 28.7989C56.7201 28.6286 56.7912 28.4421 56.8475 28.2369C56.9039 28.0331 56.9481 27.8117 56.9763 27.5717C57.0058 27.3316 57.0206 27.0727 57.0206 26.7951C57.0206 26.5349 57.0206 26.28 57.0206 26.0292C57.0206 25.7784 57.0206 25.5316 57.0206 25.2889C57.0206 25.0461 57.0206 24.8073 57.0206 24.5726C57.0206 24.3379 57.0206 24.1059 57.0206 23.8779C57.0206 23.6499 57.0206 23.4245 57.0206 23.2032C57.0206 22.9819 57.0206 22.7619 57.0206 22.546C57.0206 22.3301 57.0206 22.1168 57.0206 21.9049C57.0206 21.693 57.0206 21.4851 57.0206 21.2772C57.0206 21.0706 57.0206 20.8654 57.0206 20.6615C57.0206 20.4577 57.0206 20.2565 57.0206 20.0566C57.0206 19.8568 57.0206 19.657 57.0206 19.4598C57.0206 19.2613 57.0206 19.0641 57.0206 18.8683C57.0206 18.6725 57.0206 18.4767 57.0206 18.2808C57.0206 18.085 57.0206 17.8905 57.0206 17.696C57.0206 17.5016 57.0206 17.3057 57.0206 17.1113C57.0206 16.9154 57.0206 16.7196 57.0206 16.5238C57.0206 16.328 57.0206 16.1308 57.0206 15.9323C57.0206 15.7338 57.0206 15.5353 57.0206 15.3355C57.0206 15.1356 57.0206 14.9331 57.0206 14.7305C57.0206 14.5267 57.0206 14.3228 57.0206 14.1149C57.0206 13.907 57.0206 13.6991 57.0206 13.4872C57.0206 13.2753 57.0206 13.062 57.0206 12.8461C57.0206 12.6302 57.0206 12.4115 57.0206 12.1889C57.0206 11.9662 57.0206 11.7422 57.0206 11.5142C57.0206 11.2862 57.0206 11.0542 57.0206 10.8195C57.0206 10.5847 57.0206 10.346 57.0206 10.1032C57.0206 9.86047 57.0206 9.61368 57.0206 9.36287C57.0206 9.11206 57.0206 8.85588 57.0206 8.59702C57.0206 8.28451 57.0031 7.99748 56.9669 7.73325C56.9307 7.46903 56.877 7.23028 56.806 7.01166C56.7349 6.79438 56.6477 6.59856 56.5431 6.42419C56.4385 6.24983 56.3177 6.09693 56.1823 5.9628C56.0468 5.82868 55.8952 5.71467 55.7289 5.61944C55.5626 5.52422 55.3815 5.44642 55.1871 5.38473C54.9926 5.32303 54.7834 5.28011 54.562 5.25194C54.3407 5.22378 54.1047 5.21036 53.8579 5.21171C53.6245 5.21171 53.4099 5.21439 53.2087 5.21573C53.0075 5.21573 52.8184 5.21841 52.6374 5.21975C52.4549 5.21975 52.2806 5.22243 52.1049 5.22243C51.9292 5.22243 51.7548 5.22512 51.5724 5.22512C51.39 5.22512 51.2022 5.2278 51.001 5.22914C50.7998 5.22914 50.5852 5.23182 50.3519 5.23317L50.3317 5.23451Z" fill="#E40A18"/>
<path d="M67.1925 0.19543H73.4132C73.4132 0.462339 73.4132 0.726565 73.4132 0.988108C73.4132 1.24965 73.4132 1.50985 73.4132 1.76603C73.4132 2.02221 73.4132 2.27839 73.4132 2.53054C73.4132 2.7827 73.4132 3.03351 73.4132 3.28164C73.4132 3.52977 73.4132 3.77522 73.4132 4.01933C73.4132 4.26344 73.4132 4.50486 73.4132 4.74495C73.4132 4.98503 73.4132 5.22243 73.4132 5.45849C73.4132 5.69455 73.4132 5.92793 73.4132 6.15996C73.4132 6.392 73.4132 6.62269 73.4132 6.85205C73.4132 7.0814 73.4132 7.30807 73.4132 7.5334C73.4132 7.75873 73.4132 7.98272 73.4132 8.20537C73.4132 8.42802 73.4132 8.64932 73.4132 8.86795C73.4132 9.08791 73.4132 9.30519 73.4132 9.52248C73.4132 9.73976 73.4132 9.95436 73.4132 10.169C73.4132 10.3836 73.4132 10.5968 73.4132 10.8087C73.4132 11.0206 73.4132 11.2326 73.4132 11.4418C73.4132 11.6524 73.4132 11.8616 73.4132 12.0695C73.4132 12.2774 73.4132 12.4853 73.4132 12.6918C73.4132 12.8984 73.4132 13.1036 73.4132 13.3088C73.4132 13.514 73.4132 13.7179 73.4132 13.9218C73.4132 14.1256 73.4132 14.3282 73.4132 14.532C73.4132 14.7346 73.4132 14.9371 73.4132 15.1383C73.4132 15.3395 73.4132 15.542 73.4132 15.7432C73.4132 15.9444 73.4132 16.1456 73.4132 16.3454C73.4132 16.5466 73.4132 16.7464 73.4132 16.9463C73.4132 17.1461 73.4132 17.3473 73.4132 17.5472C73.4132 17.747 73.4132 17.9482 73.4132 18.148C73.4132 18.3479 73.4132 18.5491 73.4132 18.7489C73.4132 18.9501 73.4132 19.15 73.4132 19.3511C73.4132 19.5523 73.4132 19.7535 73.4132 19.9561C73.4132 20.1572 73.4132 20.3598 73.4132 20.5623C73.4132 20.7648 73.4132 20.9687 73.4132 21.1726C73.4132 21.3764 73.4132 21.5803 73.4132 21.7855C73.4132 21.9907 73.4132 22.1959 73.4132 22.4025C73.4132 22.609 73.4132 22.8169 73.4132 23.0248C73.4132 23.2327 73.4132 23.442 73.4132 23.6525C73.4132 23.8631 73.4132 24.0737 73.4132 24.2856C73.4132 24.4975 73.4132 24.7108 73.4132 24.9254C73.4132 25.14 73.4132 25.3559 73.4132 25.5719C73.4132 25.7891 73.4132 26.0064 73.4132 26.2264C73.4132 26.4464 73.4132 26.6663 73.4132 26.889C73.4132 27.1116 73.4132 27.3356 73.4132 27.5609C73.4132 27.7863 73.4132 28.0129 73.4132 28.2423C73.4132 28.4716 73.4132 28.701 73.4132 28.9344C73.4132 29.1664 73.4132 29.4011 73.4132 29.6358C73.4132 29.8719 73.4132 30.1093 73.4132 30.3494C73.4132 30.5895 73.4132 30.8309 73.4132 31.075C73.4132 31.3191 73.4132 31.5646 73.4132 31.8127C73.4132 32.0608 73.4132 32.3103 73.4132 32.5638C73.4132 32.8159 73.4132 33.0708 73.4132 33.3283C73.4132 33.5858 73.4132 33.8447 73.4132 34.1062C73.4132 34.3678 73.4132 34.632 73.4132 34.8989C73.1637 34.8989 72.9263 34.8989 72.6997 34.9016C72.473 34.9016 72.2557 34.9029 72.0465 34.9043C71.8372 34.9043 71.6347 34.9069 71.4375 34.9069C71.2404 34.9069 71.0486 34.9096 70.8581 34.911C70.669 34.9123 70.4812 34.9137 70.2948 34.915C70.1084 34.9163 69.9206 34.9177 69.7315 34.9204C69.5424 34.9217 69.3492 34.9244 69.1534 34.9257C68.9562 34.9284 68.7537 34.9298 68.5445 34.9324C68.3352 34.9351 68.1179 34.9378 67.8913 34.9405C67.6646 34.9432 67.4272 34.9472 67.1777 34.9499C67.1777 34.683 67.1777 34.4174 67.1777 34.1559C67.1777 33.893 67.1777 33.6341 67.1777 33.3766C67.1777 33.1191 67.1777 32.8642 67.1777 32.6107C67.1777 32.3572 67.1777 32.1078 67.1777 31.8583C67.1777 31.6102 67.1777 31.3634 67.1777 31.1193C67.1777 30.8752 67.1777 30.6337 67.1777 30.3936C67.1777 30.1536 67.1777 29.9148 67.1777 29.6788C67.1777 29.4427 67.1777 29.208 67.1777 28.9759C67.1777 28.7439 67.1777 28.5132 67.1777 28.2839C67.1777 28.0545 67.1777 27.8278 67.1777 27.6012C67.1777 27.3758 67.1777 27.1505 67.1777 26.9279C67.1777 26.7052 67.1777 26.4839 67.1777 26.2639C67.1777 26.044 67.1777 25.8254 67.1777 25.6081C67.1777 25.3908 67.1777 25.1748 67.1777 24.9602C67.1777 24.7456 67.1777 24.5324 67.1777 24.3191C67.1777 24.1072 67.1777 23.8953 67.1777 23.6847C67.1777 23.4741 67.1777 23.2649 67.1777 23.057C67.1777 22.8491 67.1777 22.6412 67.1777 22.4333C67.1777 22.2254 67.1777 22.0202 67.1777 21.815C67.1777 21.6098 67.1777 21.4046 67.1777 21.2007C67.1777 20.9969 67.1777 20.793 67.1777 20.5905C67.1777 20.3879 67.1777 20.1854 67.1777 19.9829C67.1777 19.7803 67.1777 19.5792 67.1777 19.378C67.1777 19.1768 67.1777 18.9756 67.1777 18.7744C67.1777 18.5732 67.1777 18.3734 67.1777 18.1722C67.1777 17.971 67.1777 17.7712 67.1777 17.57C67.1777 17.3688 67.1777 17.1689 67.1777 16.9677C67.1777 16.7666 67.1777 16.5667 67.1777 16.3655C67.1777 16.1643 67.1777 15.9632 67.1777 15.762C67.1777 15.5608 67.1777 15.3582 67.1777 15.1571C67.1777 14.9545 67.1777 14.752 67.1777 14.5495C67.1777 14.3469 67.1777 14.1431 67.1777 13.9392C67.1777 13.7353 67.1777 13.5301 67.1777 13.3249C67.1777 13.1197 67.1777 12.9132 67.1777 12.7066C67.1777 12.5 67.1777 12.2922 67.1777 12.0829C67.1777 11.8737 67.1777 11.6644 67.1777 11.4552C67.1777 11.2446 67.1777 11.0341 67.1777 10.8208C67.1777 10.6089 67.1777 10.3943 67.1777 10.1797C67.1777 9.96509 67.1777 9.74915 67.1777 9.53186C67.1777 9.31458 67.1777 9.09596 67.1777 8.87599C67.1777 8.65603 67.1777 8.43472 67.1777 8.21207C67.1777 7.98943 67.1777 7.76544 67.1777 7.53877C67.1777 7.31344 67.1777 7.08543 67.1777 6.85607C67.1777 6.62672 67.1777 6.39602 67.1777 6.16399C67.1777 5.93195 67.1777 5.69723 67.1777 5.46117C67.1777 5.22511 67.1777 4.98637 67.1777 4.74629C67.1777 4.5062 67.1777 4.26478 67.1777 4.02067C67.1777 3.77656 67.1777 3.52977 67.1777 3.28164C67.1777 3.03351 67.1777 2.7827 67.1777 2.53054C67.1777 2.27705 67.1777 2.02221 67.1777 1.76469C67.1777 1.50717 67.1777 1.24697 67.1777 0.985426C67.1777 0.722541 67.1777 0.458315 67.1777 0.191406L67.1925 0.19543Z" fill="#E40A18"/>
<path d="M84.1687 15.6545C84.4369 15.6572 84.6931 15.6586 84.9413 15.6613C85.1894 15.6639 85.4268 15.6653 85.6575 15.668C85.8882 15.6706 86.1122 15.672 86.3295 15.6747C86.5467 15.6773 86.7587 15.6787 86.9679 15.6814C87.1758 15.6841 87.381 15.6854 87.5835 15.6881C87.786 15.6908 87.9872 15.6921 88.1884 15.6948C88.3896 15.6975 88.5908 15.7001 88.7933 15.7015C88.9959 15.7042 89.2011 15.7069 89.409 15.7095C89.6168 15.7122 89.8301 15.7149 90.0474 15.7176C90.2647 15.7203 90.4887 15.7229 90.7194 15.727C90.9501 15.731 91.1888 15.7337 91.4356 15.7377C91.6837 15.7417 91.9399 15.7457 92.2081 15.7498C92.2081 15.9992 92.2081 16.234 92.2081 16.4566C92.2081 16.6793 92.2081 16.8898 92.2081 17.0937C92.2081 17.2962 92.2081 17.4921 92.2081 17.6839C92.2081 17.8757 92.2081 18.0634 92.2081 18.2499C92.2081 18.4376 92.2081 18.6254 92.2081 18.8159C92.2081 19.0077 92.2081 19.2021 92.2081 19.406C92.2081 19.6085 92.2081 19.8205 92.2081 20.0431C92.2081 20.2658 92.2081 20.5005 92.2081 20.7499C91.9399 20.7446 91.6837 20.7392 91.4356 20.7352C91.1875 20.7298 90.9501 20.7258 90.7194 20.7218C90.4887 20.7178 90.2647 20.7137 90.0474 20.7097C89.8301 20.7057 89.6168 20.7017 89.409 20.699C89.2011 20.6963 88.9959 20.6923 88.7933 20.6883C88.5908 20.6856 88.3896 20.6815 88.1884 20.6789C87.9872 20.6762 87.786 20.6722 87.5835 20.6695C87.381 20.6668 87.1758 20.6641 86.9679 20.6601C86.76 20.6574 86.5467 20.6547 86.3295 20.6507C86.1122 20.648 85.8882 20.6453 85.6575 20.6426C85.4268 20.64 85.188 20.6373 84.9413 20.6333C84.6945 20.6292 84.4369 20.6279 84.1687 20.6239C84.1687 20.8854 84.1687 21.1403 84.1687 21.3897C84.1687 21.6392 84.1687 21.8846 84.1687 22.1234C84.1687 22.3621 84.1687 22.5982 84.1687 22.8275C84.1687 23.0569 84.1687 23.2836 84.1687 23.5062C84.1687 23.7289 84.1687 23.9475 84.1687 24.1621C84.1687 24.378 84.1687 24.5899 84.1687 24.7992C84.1687 25.0084 84.1687 25.215 84.1687 25.4202C84.1687 25.624 84.1687 25.8266 84.1687 26.0278C84.1687 26.229 84.1687 26.4275 84.1687 26.626C84.1687 26.8245 84.1687 27.0216 84.1687 27.2175C84.1687 27.4133 84.1687 27.6104 84.1687 27.8063C84.1687 28.0021 84.1687 28.1979 84.1687 28.3951C84.1687 28.5909 84.1687 28.7881 84.1687 28.9866C84.1687 29.1851 84.1687 29.3836 84.1687 29.5848C84.1687 29.7859 84.1687 29.9885 84.1687 30.1923C84.1687 30.3962 84.1687 30.6041 84.1687 30.8133C84.1687 31.0226 84.1687 31.2345 84.1687 31.4504C84.1687 31.6664 84.1687 31.8837 84.1687 32.1063C84.1687 32.329 84.1687 32.5543 84.1687 32.785C84.1687 33.0157 84.1687 33.2504 84.1687 33.4891C84.1687 33.7292 84.1687 33.9733 84.1687 34.2228C84.1687 34.4723 84.1687 34.7284 84.1687 34.9886C83.9192 34.9846 83.6818 34.9793 83.4552 34.9752C83.2285 34.9712 83.0112 34.9672 82.802 34.9645C82.5927 34.9618 82.3902 34.9578 82.193 34.9551C81.9959 34.9524 81.8041 34.9497 81.615 34.9471C81.4258 34.9444 81.2381 34.9417 81.0516 34.939C80.8652 34.9363 80.6774 34.935 80.4883 34.9323C80.2992 34.9296 80.1061 34.9283 79.9102 34.9256C79.7131 34.9229 79.5105 34.9216 79.3013 34.9202C79.0921 34.9189 78.8748 34.9162 78.6481 34.9149C78.4214 34.9135 78.184 34.9109 77.9346 34.9095C77.9346 34.6426 77.9346 34.3784 77.9346 34.1155C77.9346 33.854 77.9346 33.5938 77.9346 33.3362C77.9346 33.0787 77.9346 32.8239 77.9346 32.5717C77.9346 32.3196 77.9346 32.0687 77.9346 31.8206C77.9346 31.5725 77.9346 31.327 77.9346 31.0829C77.9346 30.8388 77.9346 30.5974 77.9346 30.3573C77.9346 30.1172 77.9346 29.8798 77.9346 29.6438C77.9346 29.4077 77.9346 29.1743 77.9346 28.941C77.9346 28.7089 77.9346 28.4782 77.9346 28.2489C77.9346 28.0195 77.9346 27.7928 77.9346 27.5675C77.9346 27.3422 77.9346 27.1182 77.9346 26.8956C77.9346 26.6729 77.9346 26.4516 77.9346 26.233C77.9346 26.013 77.9346 25.7957 77.9346 25.5784C77.9346 25.3612 77.9346 25.1452 77.9346 24.9306C77.9346 24.716 77.9346 24.5028 77.9346 24.2908C77.9346 24.0789 77.9346 23.867 77.9346 23.6578C77.9346 23.4472 77.9346 23.238 77.9346 23.0301C77.9346 22.8222 77.9346 22.6143 77.9346 22.4077C77.9346 22.2012 77.9346 21.996 77.9346 21.7908C77.9346 21.5855 77.9346 21.3817 77.9346 21.1778C77.9346 20.9739 77.9346 20.7701 77.9346 20.5675C77.9346 20.365 77.9346 20.1625 77.9346 19.9613C77.9346 19.7601 77.9346 19.5576 77.9346 19.3564C77.9346 19.1552 77.9346 18.954 77.9346 18.7542C77.9346 18.553 77.9346 18.3531 77.9346 18.152C77.9346 17.9508 77.9346 17.7509 77.9346 17.5511C77.9346 17.3512 77.9346 17.15 77.9346 16.9502C77.9346 16.7503 77.9346 16.5492 77.9346 16.348C77.9346 16.1468 77.9346 15.9469 77.9346 15.7457C77.9346 15.5446 77.9346 15.3434 77.9346 15.1408C77.9346 14.9383 77.9346 14.7371 77.9346 14.5346C77.9346 14.3321 77.9346 14.1282 77.9346 13.9243C77.9346 13.7205 77.9346 13.5166 77.9346 13.3114C77.9346 13.1062 77.9346 12.901 77.9346 12.6944C77.9346 12.4879 77.9346 12.28 77.9346 12.0721C77.9346 11.8642 77.9346 11.6549 77.9346 11.4444C77.9346 11.2338 77.9346 11.0232 77.9346 10.8113C77.9346 10.5994 77.9346 10.3861 77.9346 10.1715C77.9346 9.95692 77.9346 9.74098 77.9346 9.5237C77.9346 9.30641 77.9346 9.08779 77.9346 8.86917C77.9346 8.6492 77.9346 8.4279 77.9346 8.20659C77.9346 7.98528 77.9346 7.75995 77.9346 7.53462C77.9346 7.30929 77.9346 7.08128 77.9346 6.85327C77.9346 6.62392 77.9346 6.39456 77.9346 6.16118C77.9346 5.92915 77.9346 5.69443 77.9346 5.45837C77.9346 5.22231 77.9346 4.98491 77.9346 4.74483C77.9346 4.50474 77.9346 4.26332 77.9346 4.01921C77.9346 3.7751 77.9346 3.52965 77.9346 3.28152C77.9346 3.03339 77.9346 2.78258 77.9346 2.53042C77.9346 2.27827 77.9346 2.02343 77.9346 1.76591C77.9346 1.50839 77.9346 1.24953 77.9346 0.986646C77.9346 0.723761 77.9346 0.459535 77.9346 0.192627H94.3917C94.3917 0.44344 94.3917 0.678159 94.3917 0.900806C94.3917 1.12345 94.3917 1.33537 94.3917 1.53924C94.3917 1.74311 94.3917 1.93893 94.3917 2.13073C94.3917 2.32253 94.3917 2.51031 94.3917 2.69808C94.3917 2.88585 94.3917 3.07363 94.3917 3.26543C94.3917 3.45723 94.3917 3.65305 94.3917 3.85692C94.3917 4.06079 94.3917 4.27137 94.3917 4.49535C94.3917 4.71934 94.3917 4.95406 94.3917 5.20353C94.1355 5.20219 93.8874 5.20085 93.6473 5.19951C93.4059 5.19951 93.1725 5.19683 92.9445 5.19549C92.7165 5.19549 92.4952 5.1928 92.2779 5.1928C92.0606 5.1928 91.8487 5.19012 91.6408 5.19012C91.4329 5.19012 91.229 5.18878 91.0278 5.18744C90.8267 5.18744 90.6295 5.1861 90.4323 5.18476C90.2365 5.18476 90.042 5.18341 89.8489 5.18207C89.6557 5.18207 89.464 5.18073 89.2722 5.17939C89.0804 5.17939 88.8885 5.17805 88.6954 5.17671C88.5023 5.17671 88.3078 5.17537 88.112 5.17403C87.9161 5.17403 87.7176 5.17268 87.5165 5.17134C87.3153 5.17134 87.1114 5.17 86.9035 5.16866C86.6956 5.16866 86.4837 5.16732 86.2664 5.16598C86.0491 5.16598 85.8278 5.16464 85.5998 5.1633C85.3718 5.1633 85.1384 5.16195 84.897 5.16061C84.6556 5.16061 84.4074 5.15927 84.1526 5.15793C84.1526 5.41947 84.1526 5.67431 84.1526 5.9211C84.1526 6.16789 84.1526 6.40797 84.1526 6.64135C84.1526 6.87473 84.1526 7.10274 84.1526 7.32405C84.1526 7.54535 84.1526 7.76398 84.1526 7.97589C84.1526 8.18915 84.1526 8.39839 84.1526 8.6036C84.1526 8.80881 84.1526 9.01268 84.1526 9.21253C84.1526 9.41371 84.1526 9.61222 84.1526 9.80938C84.1526 10.0065 84.1526 10.2037 84.1526 10.4009C84.1526 10.598 84.1526 10.7939 84.1526 10.9924C84.1526 11.1895 84.1526 11.3894 84.1526 11.5892C84.1526 11.7904 84.1526 11.9929 84.1526 12.1981C84.1526 12.4034 84.1526 12.6126 84.1526 12.8259C84.1526 13.0391 84.1526 13.2564 84.1526 13.4777C84.1526 13.699 84.1526 13.927 84.1526 14.1604C84.1526 14.3938 84.1526 14.6339 84.1526 14.8806C84.1526 15.1274 84.1526 15.3809 84.1526 15.6438L84.1687 15.6545Z" fill="#E40A18"/>
<path d="M97.3922 0.195435H103.613C103.613 0.459661 103.613 0.722545 103.614 0.981406C103.614 1.24027 103.614 1.49645 103.614 1.75128C103.614 2.00478 103.614 2.25559 103.614 2.50507C103.614 2.7532 103.614 2.99999 103.614 3.24409C103.614 3.4882 103.614 3.72963 103.614 3.96837C103.614 4.20711 103.614 4.44451 103.614 4.67923C103.614 4.91395 103.614 5.14598 103.614 5.37668C103.614 5.60737 103.614 5.83539 103.614 6.06206C103.614 6.28873 103.614 6.51406 103.614 6.73671C103.614 6.95935 103.614 7.18066 103.614 7.40062C103.614 7.62059 103.614 7.83787 103.614 8.05515C103.614 8.27244 103.614 8.48703 103.614 8.70029C103.614 8.91355 103.614 9.12681 103.614 9.33739C103.614 9.54796 103.614 9.75854 103.614 9.96643C103.614 10.1757 103.614 10.3822 103.614 10.5888C103.614 10.7953 103.614 11.0005 103.614 11.2057C103.614 11.411 103.614 11.6148 103.614 11.8174C103.614 12.0199 103.614 12.2224 103.614 12.4249C103.614 12.6261 103.614 12.8273 103.614 13.0285C103.614 13.2297 103.614 13.4295 103.614 13.6294C103.614 13.8292 103.614 14.0291 103.614 14.2276C103.614 14.4261 103.614 14.6259 103.614 14.8244C103.614 15.0229 103.614 15.2214 103.614 15.42C103.614 15.6185 103.614 15.817 103.614 16.0155C103.614 16.214 103.614 16.4125 103.614 16.6123C103.614 16.8108 103.614 17.0107 103.614 17.2105C103.614 17.4104 103.614 17.6102 103.614 17.8114C103.614 18.0126 103.614 18.2124 103.614 18.415C103.614 18.6161 103.614 18.8187 103.614 19.0225C103.614 19.2251 103.614 19.4289 103.614 19.6342C103.614 19.8394 103.614 20.0446 103.614 20.2511C103.614 20.4577 103.614 20.6656 103.614 20.8735C103.614 21.0827 103.614 21.2919 103.614 21.5025C103.614 21.7131 103.614 21.9263 103.614 22.1396C103.614 22.3529 103.614 22.5688 103.614 22.7847C103.614 23.0007 103.614 23.2193 103.614 23.4393C103.614 23.6592 103.614 23.8805 103.614 24.1032C103.614 24.3258 103.614 24.5512 103.614 24.7778C103.614 25.0045 103.614 25.2325 103.614 25.4632C103.614 25.6939 103.614 25.926 103.614 26.1607C103.614 26.3954 103.614 26.6328 103.614 26.8715C103.614 27.1103 103.614 27.3517 103.614 27.5958C103.614 27.8399 103.614 28.0854 103.614 28.3348C103.614 28.583 103.614 28.8351 103.614 29.0886C103.614 29.3421 103.614 29.5983 103.616 29.8585C103.616 30.1174 103.616 30.3789 103.617 30.6445C103.873 30.6565 104.121 30.6686 104.363 30.6807C104.604 30.6928 104.837 30.7048 105.067 30.7156C105.295 30.7276 105.517 30.7384 105.735 30.7491C105.952 30.7598 106.164 30.7719 106.372 30.7826C106.58 30.7933 106.784 30.8041 106.985 30.8148C107.186 30.8255 107.385 30.8363 107.58 30.847C107.776 30.8577 107.971 30.8685 108.164 30.8792C108.357 30.8899 108.549 30.9006 108.741 30.9114C108.932 30.9221 109.124 30.9328 109.317 30.9449C109.51 30.9556 109.705 30.9677 109.901 30.9784C110.097 30.9905 110.295 31.0012 110.496 31.0133C110.697 31.0254 110.901 31.0375 111.109 31.0495C111.317 31.0616 111.529 31.075 111.746 31.0884C111.964 31.1018 112.185 31.1152 112.413 31.13C112.641 31.1448 112.874 31.1595 113.116 31.1743C113.357 31.189 113.605 31.2051 113.86 31.2225C113.86 31.4814 113.86 31.7242 113.861 31.9535C113.861 32.1842 113.861 32.4015 113.861 32.6121C113.861 32.8227 113.861 33.0238 113.861 33.2223C113.861 33.4209 113.861 33.614 113.861 33.8085C113.861 34.003 113.861 34.1961 113.861 34.3946C113.861 34.5931 113.861 34.7943 113.861 35.0049C113.861 35.2154 113.861 35.4327 113.861 35.6634C113.861 35.8941 113.861 36.1355 113.863 36.3944C113.6 36.3743 113.341 36.3555 113.088 36.3367C112.834 36.3179 112.586 36.2992 112.342 36.2817C112.098 36.2643 111.858 36.2469 111.623 36.2294C111.387 36.212 111.156 36.1959 110.928 36.1798C110.7 36.1637 110.476 36.1476 110.255 36.1329C110.033 36.1181 109.815 36.102 109.6 36.0886C109.386 36.0752 109.172 36.0591 108.962 36.0457C108.751 36.0323 108.543 36.0175 108.337 36.0041C108.13 35.9907 107.926 35.9773 107.724 35.9639C107.521 35.9504 107.32 35.9384 107.119 35.925C106.919 35.9129 106.719 35.8995 106.521 35.8874C106.322 35.8753 106.124 35.8633 105.927 35.8512C105.729 35.8391 105.531 35.8271 105.334 35.815C105.137 35.8029 104.938 35.7922 104.74 35.7801C104.541 35.768 104.341 35.7573 104.141 35.7452C103.942 35.7332 103.739 35.7224 103.536 35.7104C103.334 35.6996 103.129 35.6876 102.922 35.6768C102.716 35.6661 102.508 35.654 102.297 35.6433C102.087 35.6326 101.873 35.6205 101.659 35.6098C101.444 35.599 101.224 35.587 101.003 35.5762C100.782 35.5655 100.556 35.5534 100.328 35.5427C100.1 35.532 99.8682 35.5199 99.6321 35.5092C99.396 35.4971 99.156 35.4864 98.9118 35.4743C98.6677 35.4622 98.4183 35.4515 98.1648 35.4394C97.9113 35.4274 97.6524 35.4166 97.3882 35.4046C97.3882 35.139 97.3882 34.8761 97.3882 34.6146C97.3882 34.3544 97.3882 34.0955 97.3882 33.8393C97.3882 33.5831 97.3882 33.3296 97.3882 33.0775C97.3882 32.8253 97.3882 32.5772 97.3882 32.3291C97.3882 32.0823 97.3882 31.8368 97.3882 31.5941C97.3882 31.3513 97.3882 31.1099 97.3882 30.8711C97.3882 30.6324 97.3882 30.395 97.3882 30.1603C97.3882 29.9256 97.3882 29.6922 97.3882 29.4601C97.3882 29.2281 97.3882 28.9988 97.3882 28.7707C97.3882 28.5427 97.3882 28.3161 97.3882 28.0907C97.3882 27.8654 97.3882 27.6428 97.3882 27.4201C97.3882 27.1975 97.3882 26.9775 97.3882 26.7589C97.3882 26.5402 97.3882 26.3216 97.3882 26.1057C97.3882 25.8897 97.3882 25.6738 97.3882 25.4592C97.3882 25.2446 97.3882 25.0327 97.3882 24.8208C97.3882 24.6088 97.3882 24.3983 97.3882 24.189C97.3882 23.9798 97.3882 23.7706 97.3882 23.5627C97.3882 23.3548 97.3882 23.1482 97.3882 22.9417C97.3882 22.7351 97.3882 22.5299 97.3882 22.326C97.3882 22.1208 97.3882 21.917 97.3882 21.7144C97.3882 21.5106 97.3882 21.308 97.3882 21.1068C97.3882 20.9043 97.3882 20.7031 97.3882 20.5019C97.3882 20.3008 97.3882 20.0996 97.3882 19.8997C97.3882 19.6999 97.3882 19.4987 97.3882 19.2988C97.3882 19.099 97.3882 18.8991 97.3882 18.6993C97.3882 18.4995 97.3882 18.301 97.3882 18.1011C97.3882 17.9013 97.3882 17.7028 97.3882 17.5029C97.3882 17.3031 97.3882 17.1046 97.3882 16.9047C97.3882 16.7049 97.3882 16.505 97.3882 16.3052C97.3882 16.1053 97.3882 15.9055 97.3882 15.7043C97.3882 15.5031 97.3882 15.3033 97.3882 15.1021C97.3882 14.9009 97.3882 14.6997 97.3882 14.4972C97.3882 14.2946 97.3882 14.0921 97.3882 13.8896C97.3882 13.6857 97.3882 13.4818 97.3882 13.278C97.3882 13.0728 97.3882 12.8676 97.3882 12.6623C97.3882 12.4558 97.3882 12.2492 97.3882 12.0413C97.3882 11.8335 97.3882 11.6242 97.3882 11.415C97.3882 11.2057 97.3882 10.9952 97.3882 10.7833C97.3882 10.5713 97.3882 10.3581 97.3882 10.1448C97.3882 9.93156 97.3882 9.71562 97.3882 9.49834C97.3882 9.2824 97.3882 9.06377 97.3882 8.84515C97.3882 8.62652 97.3882 8.40522 97.3882 8.18391C97.3882 7.96127 97.3882 7.73862 97.3882 7.51329C97.3882 7.28796 97.3882 7.06129 97.3882 6.83328C97.3882 6.60526 97.3882 6.37457 97.3882 6.14387C97.3882 5.91184 97.3882 5.67846 97.3882 5.44374C97.3882 5.20902 97.3882 4.97162 97.3882 4.73288C97.3882 4.49414 97.3882 4.25271 97.3882 4.00995C97.3882 3.76718 97.3882 3.52173 97.3882 3.27494C97.3882 3.02815 97.3882 2.77868 97.3882 2.52653C97.3882 2.27437 97.3882 2.02087 97.3882 1.7647C97.3882 1.50852 97.3882 1.24966 97.3882 0.989454C97.3882 0.729252 97.3882 0.465026 97.3882 0.199458L97.3922 0.195435Z" fill="#E40A18"/>
<path d="M116.564 0.195435H122.785C122.785 0.459661 122.785 0.721204 122.786 0.980065C122.787 1.23893 122.786 1.49645 122.787 1.75128C122.787 2.00612 122.787 2.25828 122.789 2.50909C122.789 2.7599 122.789 3.00803 122.79 3.25482C122.79 3.50161 122.79 3.74572 122.791 3.98849C122.793 4.23125 122.791 4.47134 122.793 4.71008C122.793 4.94882 122.793 5.18622 122.793 5.42094C122.793 5.65566 122.793 5.88904 122.793 6.12107C122.793 6.35311 122.793 6.58246 122.793 6.81047C122.793 7.03849 122.793 7.26516 122.793 7.49049C122.793 7.71582 122.793 7.93981 122.793 8.16111C122.793 8.38376 122.793 8.60372 122.793 8.82369C122.793 9.04365 122.793 9.26093 122.793 9.47822C122.793 9.6955 122.793 9.91144 122.793 10.1247C122.793 10.3393 122.793 10.5526 122.793 10.7645C122.793 10.9764 122.793 11.1883 122.793 11.3975C122.793 11.6081 122.793 11.8174 122.793 12.0252C122.793 12.2331 122.793 12.441 122.793 12.6476C122.793 12.8541 122.793 13.0594 122.793 13.2646C122.793 13.4698 122.793 13.6736 122.793 13.8762C122.793 14.08 122.793 14.2826 122.793 14.4838C122.793 14.6863 122.793 14.8875 122.793 15.0887C122.793 15.2898 122.793 15.4897 122.793 15.6909C122.793 15.8921 122.793 16.0906 122.793 16.2904C122.793 16.4903 122.793 16.6888 122.793 16.8873C122.793 17.0858 122.793 17.2843 122.793 17.4828C122.793 17.6813 122.793 17.8798 122.793 18.077C122.793 18.2741 122.793 18.4726 122.793 18.6711C122.793 18.8696 122.793 19.0668 122.793 19.2653C122.793 19.4638 122.793 19.661 122.793 19.8595C122.793 20.058 122.793 20.2565 122.793 20.455C122.793 20.6535 122.793 20.8533 122.793 21.0519C122.793 21.2517 122.793 21.4502 122.793 21.6514C122.793 21.8512 122.793 22.0524 122.793 22.2536C122.793 22.4548 122.793 22.656 122.793 22.8585C122.793 23.061 122.793 23.2636 122.793 23.4661C122.793 23.6686 122.793 23.8738 122.793 24.0777C122.793 24.2829 122.793 24.4881 122.793 24.6947C122.793 24.9012 122.793 25.1078 122.793 25.317C122.793 25.5249 122.793 25.7342 122.793 25.9447C122.793 26.1553 122.793 26.3659 122.793 26.5778C122.793 26.7897 122.793 27.003 122.793 27.2176C122.793 27.4322 122.793 27.6481 122.793 27.8641C122.793 28.0813 122.793 28.2986 122.793 28.5186C122.793 28.7385 122.793 28.9585 122.793 29.1812C122.793 29.4038 122.793 29.6278 122.793 29.8531C122.793 30.0785 122.793 30.3051 122.793 30.5331C122.793 30.7612 122.793 30.9918 122.793 31.2225C122.793 31.4546 122.793 31.688 122.793 31.9227C122.793 32.1574 122.793 32.3948 122.794 32.6335C122.794 32.8723 122.794 33.1124 122.795 33.3551C122.795 33.5979 122.795 33.842 122.797 34.0888C122.797 34.3356 122.797 34.5837 122.798 34.8345C122.798 35.0853 122.798 35.3375 122.799 35.5923C122.799 35.8472 122.799 36.1047 122.801 36.3635C122.801 36.6224 122.801 36.884 122.802 37.1482C122.554 37.1254 122.317 37.1026 122.091 37.0825C121.865 37.061 121.649 37.0422 121.439 37.0234C121.23 37.0047 121.029 36.9859 120.833 36.9684C120.637 36.951 120.446 36.9336 120.256 36.9175C120.067 36.9014 119.881 36.8839 119.694 36.8679C119.508 36.8518 119.322 36.8357 119.132 36.8196C118.943 36.8035 118.752 36.7874 118.556 36.7699C118.359 36.7539 118.157 36.7364 117.948 36.719C117.739 36.7015 117.523 36.6828 117.296 36.6653C117.07 36.6466 116.834 36.6278 116.584 36.6077C116.584 36.3434 116.584 36.0805 116.583 35.8203C116.583 35.5601 116.583 35.3026 116.581 35.0464C116.581 34.7903 116.581 34.5381 116.58 34.286C116.579 34.0338 116.58 33.7857 116.579 33.5389C116.579 33.2921 116.579 33.0466 116.577 32.8039C116.577 32.5611 116.577 32.3197 116.576 32.0809C116.575 31.8422 116.576 31.6048 116.575 31.3687C116.573 31.1327 116.575 30.8993 116.573 30.6673C116.573 30.4352 116.573 30.2045 116.572 29.9765C116.572 29.7485 116.572 29.5205 116.572 29.2952C116.572 29.0698 116.572 28.8458 116.572 28.6232C116.572 28.4006 116.572 28.1792 116.572 27.9606C116.572 27.7407 116.572 27.522 116.572 27.3061C116.572 27.0888 116.572 26.8729 116.572 26.6583C116.572 26.4437 116.572 26.2304 116.572 26.0185C116.572 25.8066 116.572 25.5947 116.572 25.3854C116.572 25.1749 116.572 24.9656 116.572 24.7577C116.572 24.5498 116.572 24.3419 116.572 24.1354C116.572 23.9288 116.572 23.7236 116.572 23.5184C116.572 23.3132 116.572 23.1093 116.572 22.9055C116.572 22.7016 116.572 22.4991 116.572 22.2965C116.572 22.094 116.572 21.8928 116.572 21.6916C116.572 21.4904 116.572 21.2893 116.572 21.0894C116.572 20.8896 116.572 20.6884 116.572 20.4899C116.572 20.2914 116.572 20.0902 116.572 19.8917C116.572 19.6932 116.572 19.4933 116.572 19.2948C116.572 19.0963 116.572 18.8978 116.572 18.6993C116.572 18.5008 116.572 18.3023 116.572 18.1038C116.572 17.9053 116.572 17.7068 116.572 17.5083C116.572 17.3098 116.572 17.1099 116.572 16.9114C116.572 16.7129 116.572 16.5131 116.572 16.3132C116.572 16.1134 116.572 15.9135 116.572 15.7137C116.572 15.5138 116.572 15.3126 116.572 15.1115C116.572 14.9103 116.572 14.7091 116.572 14.5066C116.572 14.304 116.572 14.1015 116.572 13.8976C116.572 13.6938 116.572 13.4899 116.572 13.2847C116.572 13.0795 116.572 12.8743 116.572 12.6677C116.572 12.4612 116.572 12.2533 116.572 12.0454C116.572 11.8375 116.572 11.6282 116.572 11.4177C116.572 11.2071 116.572 10.9965 116.572 10.7846C116.572 10.5727 116.572 10.3594 116.572 10.1448C116.572 9.93022 116.572 9.71428 116.572 9.49699C116.572 9.27971 116.572 9.06109 116.572 8.84247C116.572 8.6225 116.572 8.40119 116.572 8.17989C116.572 7.95724 116.572 7.73325 116.572 7.50792C116.572 7.28259 116.572 7.05592 116.571 6.82657C116.571 6.59856 116.571 6.36786 116.569 6.13583C116.569 5.90379 116.569 5.67041 116.568 5.43435C116.568 5.19829 116.568 4.96223 116.567 4.72215C116.567 4.48341 116.567 4.24198 116.565 3.99922C116.564 3.75645 116.565 3.511 116.564 3.26421C116.564 3.01742 116.564 2.76795 116.563 2.51714C116.563 2.26632 116.563 2.01283 116.561 1.75665C116.561 1.50047 116.561 1.24295 116.56 0.982748C116.559 0.722545 116.56 0.459661 116.559 0.195435H116.564Z" fill="#E40A18"/>
<path d="M148.064 0.195309C147.977 0.45417 147.893 0.707667 147.808 0.957139C147.724 1.20661 147.642 1.45206 147.56 1.69483C147.478 1.93625 147.399 2.17365 147.32 2.40837C147.241 2.64309 147.163 2.87244 147.087 3.10045C147.01 3.32713 146.935 3.55111 146.86 3.77242C146.785 3.99373 146.711 4.21101 146.639 4.42561C146.566 4.64021 146.494 4.85347 146.423 5.0627C146.352 5.27194 146.282 5.47983 146.212 5.68504C146.142 5.89025 146.074 6.09412 146.006 6.29531C145.937 6.4965 145.869 6.69634 145.802 6.89351C145.735 7.09201 145.668 7.28783 145.6 7.48366C145.533 7.67948 145.468 7.87262 145.402 8.06576C145.336 8.2589 145.271 8.4507 145.205 8.6425C145.139 8.83429 145.075 9.02475 145.009 9.21387C144.945 9.40432 144.879 9.59344 144.815 9.7839C144.75 9.97301 144.684 10.1635 144.62 10.3526C144.556 10.5417 144.49 10.7322 144.424 10.9226C144.358 11.1131 144.294 11.3035 144.228 11.4953C144.163 11.6871 144.097 11.8789 144.03 12.0721C143.964 12.2652 143.897 12.4597 143.83 12.6542C143.763 12.85 143.695 13.0458 143.626 13.2443C143.558 13.4428 143.489 13.6427 143.42 13.8439C143.35 14.045 143.28 14.2489 143.209 14.4541C143.138 14.6593 143.067 14.8672 142.993 15.0765C142.919 15.2857 142.847 15.499 142.773 15.7136C142.699 15.9282 142.623 16.1454 142.546 16.3654C142.47 16.5854 142.392 16.8094 142.314 17.0347C142.235 17.2614 142.156 17.4907 142.076 17.7227C141.995 17.9561 141.912 18.1922 141.829 18.4309C141.746 18.671 141.66 18.9138 141.574 19.1619C141.656 19.4033 141.736 19.6407 141.815 19.8768C141.895 20.1129 141.974 20.3435 142.05 20.5729C142.128 20.8023 142.204 21.0276 142.28 21.2502C142.355 21.4729 142.428 21.6942 142.502 21.9115C142.576 22.1288 142.648 22.3447 142.719 22.5566C142.791 22.7699 142.862 22.9804 142.931 23.1883C143.001 23.3962 143.071 23.6028 143.139 23.8067C143.208 24.0105 143.275 24.2131 143.343 24.4129C143.41 24.6127 143.477 24.8126 143.543 25.0084C143.609 25.2042 143.674 25.4014 143.739 25.5959C143.803 25.7904 143.868 25.9835 143.932 26.174C143.996 26.3658 144.059 26.5562 144.122 26.7453C144.185 26.9344 144.249 27.1236 144.31 27.3113C144.373 27.4991 144.435 27.6869 144.497 27.8733C144.558 28.0598 144.62 28.2462 144.682 28.4326C144.743 28.6191 144.805 28.8041 144.865 28.9892C144.927 29.1743 144.988 29.3608 145.049 29.5459C145.111 29.731 145.171 29.9174 145.233 30.1025C145.295 30.2876 145.355 30.4753 145.417 30.6618C145.478 30.8482 145.54 31.036 145.602 31.2238C145.664 31.4115 145.725 31.6007 145.788 31.7911C145.851 31.9816 145.913 32.172 145.976 32.3638C146.039 32.5556 146.102 32.7488 146.166 32.9446C146.231 33.1391 146.294 33.3362 146.36 33.5334C146.424 33.7319 146.49 33.9304 146.555 34.1316C146.621 34.3328 146.687 34.5366 146.754 34.7419C146.821 34.9471 146.888 35.155 146.956 35.3642C147.025 35.5734 147.093 35.7867 147.163 36.0013C147.233 36.2159 147.303 36.4332 147.375 36.6531C147.446 36.8731 147.518 37.0957 147.591 37.3211C147.663 37.5464 147.738 37.7758 147.812 38.0078C147.887 38.2398 147.962 38.4746 148.04 38.7146C148.117 38.9534 148.196 39.1961 148.275 39.4416C148.354 39.687 148.435 39.9379 148.516 40.1914C148.255 40.1538 148.007 40.1189 147.769 40.084C147.532 40.0505 147.304 40.0183 147.085 39.9875C146.867 39.9566 146.655 39.9271 146.448 39.8976C146.242 39.8695 146.04 39.8413 145.842 39.8131C145.643 39.785 145.448 39.7581 145.252 39.7313C145.056 39.7045 144.86 39.6777 144.662 39.6508C144.463 39.624 144.262 39.5972 144.055 39.569C143.849 39.5408 143.637 39.5127 143.418 39.4832C143.198 39.4537 142.972 39.4242 142.733 39.392C142.495 39.3611 142.246 39.3276 141.986 39.2941C141.904 39.0365 141.825 38.783 141.747 38.5349C141.669 38.2868 141.591 38.044 141.516 37.8053C141.441 37.5665 141.367 37.3331 141.294 37.1038C141.221 36.8744 141.149 36.6478 141.079 36.4265C141.008 36.2038 140.94 35.9865 140.871 35.7706C140.803 35.556 140.736 35.3441 140.669 35.1348C140.602 34.9256 140.536 34.7191 140.472 34.5152C140.407 34.3113 140.343 34.1101 140.278 33.9103C140.214 33.7104 140.151 33.5133 140.089 33.3175C140.026 33.1216 139.965 32.9271 139.903 32.734C139.841 32.5409 139.779 32.3477 139.718 32.1573C139.656 31.9655 139.596 31.775 139.534 31.5846C139.472 31.3941 139.412 31.2036 139.35 31.0132C139.289 30.8227 139.228 30.6323 139.167 30.4418C139.105 30.2514 139.043 30.0596 138.981 29.8678C138.92 29.676 138.857 29.4828 138.795 29.2883C138.732 29.0939 138.669 28.898 138.606 28.7009C138.541 28.5037 138.477 28.3039 138.413 28.1027C138.348 27.9015 138.281 27.6976 138.216 27.4924C138.15 27.2872 138.081 27.078 138.013 26.8674C137.945 26.6568 137.875 26.4422 137.805 26.2249C137.735 26.0076 137.663 25.7877 137.591 25.5637C137.518 25.3397 137.443 25.1117 137.368 24.8797C137.293 24.6476 137.215 24.4116 137.137 24.1715C137.059 23.9314 136.979 23.6859 136.897 23.4365C136.811 23.6833 136.728 23.926 136.646 24.1634C136.564 24.4008 136.484 24.6329 136.405 24.8609C136.326 25.0889 136.249 25.3115 136.173 25.5315C136.096 25.7515 136.023 25.9661 135.949 26.178C135.875 26.3899 135.803 26.5978 135.732 26.803C135.66 27.0082 135.591 27.2107 135.521 27.4093C135.451 27.6091 135.383 27.8049 135.316 27.9994C135.249 28.1939 135.182 28.3857 135.115 28.5761C135.048 28.7666 134.983 28.9557 134.917 29.1421C134.852 29.3299 134.787 29.515 134.723 29.7001C134.659 29.8852 134.594 30.0689 134.53 30.2527C134.465 30.4364 134.402 30.6189 134.338 30.8013C134.274 30.9837 134.211 31.1661 134.146 31.3498C134.082 31.5336 134.017 31.716 133.953 31.8998C133.889 32.0835 133.824 32.2686 133.759 32.455C133.693 32.6415 133.627 32.8279 133.561 33.017C133.496 33.2061 133.429 33.3966 133.36 33.5884C133.293 33.7802 133.225 33.9747 133.155 34.1718C133.085 34.369 133.016 34.5675 132.944 34.77C132.873 34.9725 132.801 35.1764 132.727 35.3843C132.653 35.5922 132.58 35.8041 132.503 36.0187C132.427 36.2333 132.35 36.452 132.271 36.6746C132.192 36.8972 132.113 37.1239 132.031 37.3546C131.949 37.5853 131.866 37.8214 131.78 38.0614C131.521 38.0333 131.277 38.0065 131.045 37.981C130.812 37.9555 130.591 37.9313 130.377 37.9085C130.164 37.8857 129.957 37.8629 129.756 37.8415C129.555 37.82 129.359 37.7986 129.165 37.7784C128.97 37.7583 128.777 37.7382 128.583 37.7167C128.388 37.6966 128.191 37.6765 127.991 37.655C127.79 37.6349 127.585 37.6135 127.37 37.5907C127.156 37.5679 126.934 37.5464 126.701 37.5223C126.468 37.4981 126.223 37.474 125.965 37.4485C126.057 37.2017 126.147 36.9603 126.237 36.7215C126.327 36.4828 126.414 36.2481 126.5 36.016C126.586 35.784 126.671 35.556 126.755 35.332C126.838 35.108 126.921 34.8854 127.003 34.6667C127.085 34.4481 127.165 34.2322 127.244 34.0189C127.323 33.8057 127.402 33.5951 127.479 33.3859C127.555 33.1766 127.633 32.9714 127.708 32.7675C127.783 32.5637 127.858 32.3611 127.934 32.1613C128.007 31.9614 128.081 31.7629 128.154 31.5658C128.226 31.3686 128.298 31.1741 128.371 30.9797C128.442 30.7852 128.514 30.5934 128.584 30.4016C128.654 30.2098 128.725 30.0193 128.796 29.8302C128.866 29.6397 128.935 29.4506 129.005 29.2629C129.075 29.0737 129.145 28.886 129.213 28.6982C129.283 28.5104 129.351 28.3226 129.421 28.1349C129.491 27.9471 129.559 27.7593 129.629 27.5702C129.699 27.3824 129.767 27.1933 129.837 27.0029C129.907 26.8137 129.976 26.6233 130.046 26.4315C130.116 26.241 130.187 26.0479 130.258 25.8547C130.329 25.6616 130.4 25.4671 130.471 25.2713C130.542 25.0755 130.615 24.8783 130.688 24.6785C130.761 24.4786 130.835 24.2774 130.908 24.0749C130.982 23.871 131.057 23.6658 131.134 23.4593C131.21 23.2527 131.287 23.0421 131.363 22.8289C131.441 22.6156 131.519 22.401 131.598 22.1824C131.677 21.9638 131.757 21.7425 131.839 21.5185C131.921 21.2945 132.004 21.0665 132.087 20.8344C132.171 20.6024 132.256 20.3677 132.344 20.129C132.431 19.8902 132.518 19.6474 132.608 19.4007C132.698 19.1539 132.788 18.903 132.88 18.6469C132.793 18.3961 132.707 18.1493 132.624 17.9078C132.539 17.6651 132.456 17.4277 132.376 17.193C132.294 16.9582 132.213 16.7275 132.134 16.5009C132.055 16.2742 131.977 16.0502 131.9 15.8289C131.823 15.6089 131.747 15.3917 131.672 15.1771C131.597 14.9625 131.523 14.7505 131.449 14.5426C131.375 14.3334 131.304 14.1282 131.232 13.923C131.161 13.7191 131.09 13.5179 131.02 13.3181C130.95 13.1182 130.88 12.9211 130.812 12.7253C130.743 12.5294 130.675 12.3363 130.607 12.1432C130.54 11.9514 130.471 11.7596 130.405 11.5704C130.338 11.3813 130.273 11.1922 130.206 11.0044C130.14 10.8167 130.074 10.6302 130.008 10.4438C129.943 10.2574 129.877 10.0723 129.811 9.88717C129.746 9.70208 129.681 9.51699 129.615 9.33324C129.55 9.14949 129.485 8.9644 129.42 8.7793C129.354 8.59421 129.288 8.41046 129.222 8.22537C129.157 8.04027 129.091 7.85518 129.025 7.66875C128.96 7.48232 128.893 7.29588 128.825 7.10677C128.758 6.91899 128.691 6.72987 128.623 6.53942C128.555 6.34896 128.487 6.15716 128.418 5.96402C128.349 5.77088 128.28 5.5764 128.21 5.38058C128.14 5.18476 128.069 4.98625 127.998 4.7864C127.927 4.58656 127.854 4.38403 127.781 4.18016C127.707 3.97629 127.633 3.7684 127.558 3.55916C127.483 3.34993 127.406 3.13801 127.33 2.92341C127.254 2.70881 127.174 2.49153 127.095 2.27022C127.016 2.04892 126.936 1.82627 126.854 1.59826C126.772 1.37158 126.689 1.14089 126.604 0.906171C126.52 0.671453 126.434 0.434052 126.347 0.192627H132.794C132.876 0.436734 132.957 0.674135 133.036 0.908854C133.115 1.14223 133.191 1.37158 133.266 1.59691C133.341 1.82224 133.415 2.04221 133.489 2.25949C133.561 2.47677 133.633 2.68869 133.704 2.89927C133.773 3.1085 133.843 3.31505 133.911 3.51892C133.98 3.72279 134.047 3.92264 134.113 4.12114C134.178 4.31965 134.244 4.51547 134.309 4.70861C134.373 4.90175 134.437 5.09355 134.5 5.28401C134.563 5.47446 134.626 5.66224 134.689 5.85001C134.752 6.03779 134.814 6.22422 134.876 6.41066C134.938 6.59709 134.999 6.78218 135.061 6.96728C135.123 7.15237 135.184 7.33746 135.245 7.52255C135.306 7.70764 135.368 7.89408 135.43 8.08051C135.491 8.26695 135.553 8.45472 135.616 8.64384C135.679 8.83295 135.741 9.02207 135.805 9.21387C135.868 9.40567 135.933 9.59881 135.997 9.79463C136.062 9.99045 136.127 10.189 136.193 10.3888C136.259 10.59 136.326 10.7925 136.394 10.9991C136.463 11.2056 136.531 11.4149 136.601 11.6295C136.67 11.8441 136.742 12.06 136.815 12.2813C136.888 12.5026 136.961 12.7279 137.037 12.9586C137.112 13.1893 137.188 13.424 137.267 13.6628C137.345 13.9029 137.426 14.1483 137.507 14.3978C137.591 14.155 137.672 13.9163 137.751 13.6829C137.831 13.4495 137.91 13.2202 137.986 12.9962C138.063 12.7722 138.138 12.5509 138.212 12.335C138.285 12.1177 138.358 11.9058 138.429 11.6965C138.5 11.4873 138.57 11.2807 138.639 11.0769C138.709 10.873 138.776 10.6731 138.843 10.4746C138.91 10.2761 138.977 10.0817 139.043 9.88717C139.109 9.69269 139.173 9.50224 139.238 9.31178C139.302 9.12132 139.366 8.93355 139.429 8.74577C139.492 8.558 139.555 8.37156 139.619 8.18513C139.682 7.9987 139.745 7.8136 139.806 7.62851C139.868 7.44342 139.931 7.25833 139.994 7.07323C140.057 6.88814 140.119 6.70171 140.182 6.51527C140.245 6.32884 140.308 6.14107 140.371 5.95195C140.434 5.76283 140.498 5.57372 140.563 5.38192C140.627 5.19012 140.693 4.99698 140.757 4.80116C140.823 4.60534 140.89 4.40683 140.957 4.20698C141.024 4.0058 141.093 3.80327 141.162 3.59672C141.232 3.39016 141.302 3.17959 141.373 2.96633C141.444 2.75307 141.516 2.53579 141.59 2.31448C141.664 2.09318 141.739 1.86785 141.817 1.63715C141.893 1.40646 141.972 1.17174 142.052 0.931655C142.132 0.691572 142.212 0.446123 142.297 0.195309H143.689C143.901 0.195309 144.105 0.195309 144.305 0.195309H148.066H148.064Z" fill="#E40A18"/>
</svg>
