<svg width="59" height="64" viewBox="0 0 59 64" fill="none" xmlns="http://www.w3.org/2000/svg">
<path d="M28.0096 10.3883C27.5735 10.1996 27.0951 10.13 26.6233 10.1866C26.1515 10.2432 25.7032 10.424 25.3241 10.7105L12.4875 20.8616H2.68548C1.97325 20.8616 1.29019 21.1446 0.78656 21.6482C0.282934 22.1518 0 22.8349 0 23.5471V39.66C0 40.3723 0.282934 41.0553 0.78656 41.5589C1.29019 42.0626 1.97325 42.3455 2.68548 42.3455H12.4875L25.1898 52.4966C25.6623 52.8757 26.2491 53.0839 26.8548 53.0874C27.256 53.0941 27.6526 53.0018 28.0096 52.8189C28.4666 52.6012 28.8528 52.2589 29.1236 51.8312C29.3944 51.4036 29.5389 50.9081 29.5403 50.402V12.8052C29.5389 12.299 29.3944 11.8035 29.1236 11.3759C28.8528 10.9483 28.4666 10.6059 28.0096 10.3883ZM24.1694 44.8161L15.0924 37.5653C14.6199 37.1863 14.0332 36.978 13.4274 36.9745H5.37097V26.2326H13.4274C14.0332 26.2291 14.6199 26.0209 15.0924 25.6418L24.1694 18.391V44.8161Z" fill="white"/>
<path d="M35.2611 41.6403C35.2611 42.4305 35.9042 43.0802 36.6881 42.9817C39.1975 42.6665 41.547 41.526 43.3543 39.7187C45.5007 37.5723 46.7065 34.6611 46.7065 31.6256C46.7065 28.5901 45.5007 25.6789 43.3543 23.5325C41.547 21.7252 39.1975 20.5847 36.6881 20.2694C35.9042 20.1709 35.2611 20.8207 35.2611 21.6109C35.2611 22.401 35.9061 23.0294 36.6853 23.1605C38.4336 23.4546 40.0608 24.2856 41.331 25.5557C42.9408 27.1656 43.8452 29.349 43.8452 31.6256C43.8452 33.9022 42.9408 36.0856 41.331 37.6954C40.0608 38.9656 38.4336 39.7966 36.6853 40.0907C35.9061 40.2218 35.2611 40.8502 35.2611 41.6403Z" fill="white"/>
</svg>
