<svg width="60" height="64" viewBox="0 0 60 64" fill="none" xmlns="http://www.w3.org/2000/svg">
<path d="M31.0616 10.2207C30.6247 10.0317 30.1454 9.96196 29.6728 10.0187C29.2001 10.0754 28.7509 10.2565 28.3711 10.5436L15.5107 20.7135H5.69047C4.97691 20.7135 4.29258 20.997 3.78802 21.5015C3.28346 22.0061 3 22.6904 3 23.404V39.5468C3 40.2604 3.28346 40.9447 3.78802 41.4493C4.29258 41.9538 4.97691 42.2373 5.69047 42.2373H15.5107L28.2366 52.4073C28.71 52.7871 29.2978 52.9957 29.9047 52.9992C30.3066 53.0058 30.7039 52.9134 31.0616 52.7301C31.5195 52.5121 31.9063 52.1691 32.1777 51.7406C32.449 51.3122 32.5937 50.8158 32.5952 50.3087V12.6421C32.5937 12.135 32.449 11.6386 32.1777 11.2102C31.9063 10.7818 31.5195 10.4388 31.0616 10.2207ZM27.2142 44.7125L18.1204 37.4483C17.6471 37.0685 17.0592 36.8599 16.4524 36.8564H8.38094V26.0945H16.4524C17.0592 26.091 17.6471 25.8824 18.1204 25.5026L27.2142 18.2383V44.7125ZM51.1863 31.4754L56.0292 26.6595C56.28 26.4086 56.479 26.1108 56.6148 25.783C56.7505 25.4553 56.8204 25.104 56.8204 24.7492C56.8204 24.3945 56.7505 24.0432 56.6148 23.7154C56.479 23.3877 56.28 23.0899 56.0292 22.839C55.7783 22.5881 55.4805 22.3892 55.1528 22.2534C54.825 22.1176 54.4737 22.0478 54.1189 22.0478C53.7642 22.0478 53.4129 22.1176 53.0851 22.2534C52.7574 22.3892 52.4596 22.5881 52.2087 22.839L47.3928 27.6818L42.5768 22.839C42.0702 22.3324 41.3831 22.0478 40.6666 22.0478C39.9501 22.0478 39.263 22.3324 38.7564 22.839C38.2497 23.3456 37.9651 24.0328 37.9651 24.7492C37.9651 25.4657 38.2497 26.1528 38.7564 26.6595L43.5992 31.4754L38.7564 36.2914C38.5042 36.5415 38.304 36.839 38.1674 37.1669C38.0308 37.4948 37.9605 37.8464 37.9605 38.2016C37.9605 38.5568 38.0308 38.9084 38.1674 39.2363C38.304 39.5641 38.5042 39.8617 38.7564 40.1118C39.0065 40.364 39.304 40.5641 39.6319 40.7007C39.9598 40.8373 40.3114 40.9077 40.6666 40.9077C41.0218 40.9077 41.3734 40.8373 41.7013 40.7007C42.0291 40.5641 42.3267 40.364 42.5768 40.1118L47.3928 35.269L52.2087 40.1118C52.4588 40.364 52.7564 40.5641 53.0843 40.7007C53.4121 40.8373 53.7638 40.9077 54.1189 40.9077C54.4741 40.9077 54.8258 40.8373 55.1536 40.7007C55.4815 40.5641 55.7791 40.364 56.0292 40.1118C56.2813 39.8617 56.4815 39.5641 56.6181 39.2363C56.7547 38.9084 56.825 38.5568 56.825 38.2016C56.825 37.8464 56.7547 37.4948 56.6181 37.1669C56.4815 36.839 56.2813 36.5415 56.0292 36.2914L51.1863 31.4754Z" fill="white"/>
</svg>
