<svg width="126" height="156" viewBox="0 0 126 156" fill="none" xmlns="http://www.w3.org/2000/svg">
<mask id="path-1-outside-1_3447_1461" maskUnits="userSpaceOnUse" x="-0.189331" y="-0.752014" width="127" height="157" fill="black">
<rect fill="white" x="-0.189331" y="-0.752014" width="127" height="157"/>
<path d="M58.06 3.99998C71.252 3.99998 82.608 6.71998 92.128 12.16C101.648 17.6 108.992 25.556 114.16 36.028C119.328 46.364 121.912 59.284 121.912 74.788C121.912 91.244 118.784 105.184 112.528 116.608C106.408 128.032 97.908 136.736 87.028 142.72C76.148 148.704 63.5 151.696 49.084 151.696C41.604 151.696 34.396 150.88 27.46 149.248C20.524 147.616 14.54 145.168 9.50804 141.904L21.748 117.628C25.692 120.348 29.908 122.252 34.396 123.34C38.884 124.292 43.576 124.768 48.472 124.768C60.712 124.768 70.436 121.028 77.644 113.548C84.988 106.068 88.6601 94.984 88.6601 80.296C88.6601 77.848 88.592 75.128 88.456 72.136C88.32 69.144 87.98 66.152 87.436 63.16L96.412 71.728C94.1 77.032 90.836 81.52 86.62 85.192C82.404 88.728 77.508 91.448 71.932 93.352C66.356 95.12 60.1 96.004 53.164 96.004C44.052 96.004 35.756 94.168 28.276 90.496C20.932 86.824 15.016 81.656 10.528 74.992C6.17604 68.328 4.00004 60.508 4.00004 51.532C4.00004 41.74 6.38004 33.308 11.14 26.236C16.036 19.164 22.564 13.724 30.724 9.91598C39.02 5.97198 48.132 3.99998 58.06 3.99998ZM60.1 28.684C55.34 28.684 51.192 29.568 47.656 31.336C44.12 32.968 41.332 35.416 39.292 38.68C37.252 41.808 36.232 45.548 36.232 49.9C36.232 56.428 38.408 61.664 42.76 65.608C47.248 69.416 53.164 71.32 60.508 71.32C65.268 71.32 69.484 70.436 73.156 68.668C76.964 66.764 79.888 64.18 81.928 60.916C83.968 57.652 84.988 53.98 84.988 49.9C84.988 45.82 83.968 42.216 81.928 39.088C80.024 35.824 77.236 33.308 73.5641 31.54C69.892 29.636 65.404 28.684 60.1 28.684Z"/>
</mask>
<path d="M92.128 12.16L94.1126 8.687L94.1126 8.687L92.128 12.16ZM114.16 36.028L110.573 37.7982L110.578 37.8075L110.582 37.8168L114.16 36.028ZM112.528 116.608L109.02 114.687L109.011 114.703L109.002 114.719L112.528 116.608ZM87.028 142.72L88.9557 146.225L88.9557 146.225L87.028 142.72ZM9.50804 141.904L5.93636 140.103L4.32089 143.307L7.33128 145.26L9.50804 141.904ZM21.748 117.628L24.019 114.335L20.242 111.73L18.1764 115.827L21.748 117.628ZM34.396 123.34L33.4536 127.227L33.5097 127.241L33.566 127.253L34.396 123.34ZM77.644 113.548L74.7898 110.746L74.7767 110.759L74.7637 110.772L77.644 113.548ZM88.456 72.136L84.4602 72.3176L84.4602 72.3176L88.456 72.136ZM87.436 63.16L90.198 60.2666L81.3001 51.7732L83.5006 63.8755L87.436 63.16ZM96.412 71.728L100.079 73.3263L101.196 70.7643L99.174 68.8346L96.412 71.728ZM86.62 85.192L89.1905 88.2567L89.2191 88.2328L89.2472 88.2083L86.62 85.192ZM71.932 93.352L73.141 97.1649L73.183 97.1516L73.2246 97.1374L71.932 93.352ZM28.276 90.496L26.4872 94.0737L26.5002 94.0802L26.5134 94.0867L28.276 90.496ZM10.528 74.992L7.17896 77.1791L7.19446 77.2029L7.2103 77.2264L10.528 74.992ZM11.14 26.236L7.85128 23.9591L7.83634 23.9807L7.82169 24.0025L11.14 26.236ZM30.724 9.91598L32.4156 13.5407L32.4286 13.5347L32.4415 13.5285L30.724 9.91598ZM47.656 31.336L49.3323 34.9678L49.389 34.9416L49.4449 34.9137L47.656 31.336ZM39.292 38.68L42.6425 40.865L42.6636 40.8327L42.684 40.8L39.292 38.68ZM42.76 65.608L40.074 68.5719L40.1224 68.6158L40.1721 68.658L42.76 65.608ZM73.156 68.668L74.8913 72.272L74.9182 72.259L74.9449 72.2457L73.156 68.668ZM81.928 60.916L78.5361 58.796L78.5361 58.796L81.928 60.916ZM81.928 39.088L78.4729 41.1035L78.5232 41.1896L78.5776 41.2731L81.928 39.088ZM73.5641 31.54L71.7228 35.091L71.7754 35.1183L71.8288 35.144L73.5641 31.54ZM58.06 3.99998V7.99998C70.6972 7.99998 81.3398 10.6022 90.1435 15.6329L92.128 12.16L94.1126 8.687C83.8763 2.83771 71.8069 -1.66893e-05 58.06 -1.66893e-05V3.99998ZM92.128 12.16L90.1435 15.6329C98.9258 20.6514 105.734 27.9918 110.573 37.7982L114.16 36.028L117.747 34.2578C112.251 23.1202 104.37 14.5485 94.1126 8.687L92.128 12.16ZM114.16 36.028L110.582 37.8168C115.394 47.441 117.912 59.7026 117.912 74.788H121.912H125.912C125.912 58.8654 123.262 45.287 117.738 34.2391L114.16 36.028ZM121.912 74.788H117.912C117.912 90.7459 114.879 103.987 109.02 114.687L112.528 116.608L116.036 118.529C122.689 106.381 125.912 91.7421 125.912 74.788H121.912ZM112.528 116.608L109.002 114.719C103.231 125.493 95.272 133.621 85.1004 139.215L87.028 142.72L88.9557 146.225C100.544 139.851 109.586 130.571 116.054 118.497L112.528 116.608ZM87.028 142.72L85.1004 139.215C74.8998 144.825 62.9353 147.696 49.084 147.696V151.696V155.696C64.0648 155.696 77.3963 152.583 88.9557 146.225L87.028 142.72ZM49.084 151.696V147.696C41.8972 147.696 34.9974 146.912 28.3762 145.354L27.46 149.248L26.5439 153.142C33.7947 154.848 41.3109 155.696 49.084 155.696V151.696ZM27.46 149.248L28.3762 145.354C21.8061 143.808 16.2657 141.52 11.6848 138.548L9.50804 141.904L7.33128 145.26C12.8143 148.816 19.242 151.424 26.5439 153.142L27.46 149.248ZM9.50804 141.904L13.0797 143.705L25.3197 119.429L21.748 117.628L18.1764 115.827L5.93636 140.103L9.50804 141.904ZM21.748 117.628L19.4771 120.921C23.8085 123.908 28.4724 126.02 33.4536 127.227L34.396 123.34L35.3384 119.453C31.3437 118.484 27.5755 116.788 24.019 114.335L21.748 117.628ZM34.396 123.34L33.566 127.253C38.3445 128.267 43.3157 128.768 48.472 128.768V124.768V120.768C43.8364 120.768 39.4236 120.317 35.2261 119.427L34.396 123.34ZM48.472 124.768V128.768C61.5888 128.768 72.4283 124.725 80.5244 116.324L77.644 113.548L74.7637 110.772C68.4438 117.331 59.8353 120.768 48.472 120.768V124.768ZM77.644 113.548L80.4983 116.35C88.8288 107.866 92.6601 95.6067 92.6601 80.296H88.6601H84.6601C84.6601 94.3613 81.1473 104.27 74.7898 110.746L77.644 113.548ZM88.6601 80.296H92.6601C92.6601 77.7758 92.5901 74.9941 92.4519 71.9543L88.456 72.136L84.4602 72.3176C84.594 75.2619 84.6601 77.9201 84.6601 80.296H88.6601ZM88.456 72.136L92.4519 71.9544C92.3077 68.7805 91.9471 65.6102 91.3715 62.4444L87.436 63.16L83.5006 63.8755C84.013 66.6938 84.3324 69.5075 84.4602 72.3176L88.456 72.136ZM87.436 63.16L84.6741 66.0534L93.6501 74.6214L96.412 71.728L99.174 68.8346L90.198 60.2666L87.436 63.16ZM96.412 71.728L92.7453 70.1296C90.6618 74.9092 87.7457 78.9071 83.9929 82.1757L86.62 85.192L89.2472 88.2083C93.9264 84.1329 97.5383 79.1547 100.079 73.3263L96.412 71.728ZM86.62 85.192L84.0496 82.1272C80.2375 85.3244 75.782 87.8106 70.6395 89.5666L71.932 93.352L73.2246 97.1374C79.2341 95.0854 84.5706 92.1315 89.1905 88.2567L86.62 85.192ZM71.932 93.352L70.7231 89.5391C65.6028 91.1625 59.7638 92.004 53.164 92.004V96.004V100.004C60.4363 100.004 67.1092 99.0774 73.141 97.1649L71.932 93.352ZM53.164 96.004V92.004C44.6051 92.004 36.9203 90.2835 30.0387 86.9053L28.276 90.496L26.5134 94.0867C34.5918 98.0524 43.499 100.004 53.164 100.004V96.004ZM28.276 90.496L30.0649 86.9183C23.3237 83.5476 17.9397 78.8365 13.8458 72.7576L10.528 74.992L7.2103 77.2264C12.0923 84.4755 18.5404 90.1003 26.4872 94.0737L28.276 90.496ZM10.528 74.992L13.8771 72.8048C10.0026 66.8719 8.00004 59.8336 8.00004 51.532H4.00004H4.42341e-05C4.42341e-05 61.1824 2.34949 69.784 7.17896 77.1791L10.528 74.992ZM4.00004 51.532H8.00004C8.00004 42.4139 10.2062 34.7871 14.4584 28.4695L11.14 26.236L7.82169 24.0025C2.55392 31.8289 4.42341e-05 41.066 4.42341e-05 51.532H4.00004ZM11.14 26.236L14.4288 28.5128C18.902 22.0516 24.8666 17.0636 32.4156 13.5407L30.724 9.91598L29.0325 6.29125C20.2615 10.3844 13.1701 16.2764 7.85128 23.9591L11.14 26.236ZM30.724 9.91598L32.4415 13.5285C40.1585 9.85979 48.6774 7.99998 58.06 7.99998V3.99998V-1.66893e-05C47.5867 -1.66893e-05 37.8816 2.08418 29.0066 6.30344L30.724 9.91598ZM60.1 28.684V24.684C54.8443 24.684 50.0607 25.6615 45.8672 27.7583L47.656 31.336L49.4449 34.9137C52.3233 33.4745 55.8358 32.684 60.1 32.684V28.684ZM47.656 31.336L45.9798 27.7041C41.7458 29.6583 38.3578 32.6276 35.9001 36.56L39.292 38.68L42.684 40.8C44.3063 38.2044 46.4943 36.2777 49.3323 34.9678L47.656 31.336ZM39.292 38.68L35.9416 36.4949C33.4114 40.3746 32.232 44.9031 32.232 49.9H36.232H40.232C40.232 46.1928 41.0927 43.2414 42.6425 40.865L39.292 38.68ZM36.232 49.9H32.232C32.232 57.417 34.7868 63.7804 40.074 68.5719L42.76 65.608L45.4461 62.644C42.0293 59.5475 40.232 55.4389 40.232 49.9H36.232ZM42.76 65.608L40.1721 68.658C45.5484 73.2197 52.4584 75.32 60.508 75.32V71.32V67.32C53.8697 67.32 48.9477 65.6122 45.348 62.5579L42.76 65.608ZM60.508 71.32V75.32C65.7684 75.32 70.5942 74.341 74.8913 72.272L73.156 68.668L71.4208 65.064C68.3739 66.531 64.7677 67.32 60.508 67.32V71.32ZM73.156 68.668L74.9449 72.2457C79.3392 70.0485 82.8494 66.989 85.32 63.036L81.928 60.916L78.5361 58.796C76.9267 61.3709 74.5889 63.4794 71.3672 65.0903L73.156 68.668ZM81.928 60.916L85.32 63.036C87.7816 59.0975 88.988 54.6826 88.988 49.9H84.988H80.988C80.988 53.2773 80.1545 56.2064 78.5361 58.796L81.928 60.916ZM84.988 49.9H88.988C88.988 45.1188 87.7814 40.7408 85.2785 36.9029L81.928 39.088L78.5776 41.2731C80.1547 43.6912 80.988 46.5212 80.988 49.9H84.988ZM81.928 39.088L85.3832 37.0725C83.0453 33.0647 79.631 30.0216 75.2993 27.936L73.5641 31.54L71.8288 35.144C74.8411 36.5944 77.0028 38.5833 78.4729 41.1035L81.928 39.088ZM73.5641 31.54L75.4053 27.989C71.0265 25.7185 65.8692 24.684 60.1 24.684V28.684V32.684C64.9389 32.684 68.7576 33.5535 71.7228 35.091L73.5641 31.54Z" fill="white" fill-opacity="0.3" mask="url(#path-1-outside-1_3447_1461)"/>
</svg>
