<svg width="127" height="154" viewBox="0 0 127 154" fill="none" xmlns="http://www.w3.org/2000/svg">
<mask id="path-1-outside-1_3024_1338" maskUnits="userSpaceOnUse" x="19" y="-0.181824" width="74" height="154" fill="black">
<rect fill="white" x="19" y="-0.181824" width="74" height="154"/>
<path d="M56.3738 149.818V41.0862L23.9378 50.0622V22.1142L88.6058 5.18217V149.818H56.3738Z"/>
</mask>
<path d="M56.3738 149.818H52.3738V153.818H56.3738V149.818ZM56.3738 41.0862H60.3738V35.8289L55.307 37.2311L56.3738 41.0862ZM23.9378 50.0622H19.9378V55.3194L25.0047 53.9173L23.9378 50.0622ZM23.9378 22.1142L22.9247 18.2446L19.9378 19.0266V22.1142H23.9378ZM88.6059 5.18217H92.6059V1.04904e-05L87.5927 1.31261L88.6059 5.18217ZM88.6059 149.818V153.818H92.6059V149.818H88.6059ZM60.3738 149.818V41.0862H52.3738V149.818H60.3738ZM55.307 37.2311L22.871 46.2071L25.0047 53.9173L57.4407 44.9413L55.307 37.2311ZM27.9378 50.0622V22.1142H19.9378V50.0622H27.9378ZM24.951 25.9837L89.619 9.05173L87.5927 1.31261L22.9247 18.2446L24.951 25.9837ZM84.6059 5.18217V149.818H92.6059V5.18217H84.6059ZM88.6059 145.818H56.3738V153.818H88.6059V145.818Z" fill="white" fill-opacity="0.3" mask="url(#path-1-outside-1_3024_1338)"/>
</svg>
