<svg width="40" height="47" viewBox="0 0 40 47" fill="none" xmlns="http://www.w3.org/2000/svg">
<path d="M14.0644 32.8091V23.152L11.2505 24.0331V22.0118L16.3018 20.5607V32.8091H14.0644Z" fill="white"/>
<path d="M24.8162 33.0682C23.867 33.0682 23.0364 32.8148 22.3245 32.3081C21.6126 31.7898 21.0588 31.0642 20.6633 30.1314C20.2791 29.187 20.087 28.0756 20.087 26.7972C20.087 25.5303 20.2791 24.4246 20.6633 23.4802C21.0588 22.5358 21.6126 21.8103 22.3245 21.3035C23.0364 20.7852 23.867 20.5261 24.8162 20.5261C25.7655 20.5261 26.596 20.7852 27.308 21.3035C28.0199 21.8103 28.568 22.5358 28.9522 23.4802C29.3477 24.4246 29.5455 25.5303 29.5455 26.7972C29.5455 28.0756 29.3477 29.187 28.9522 30.1314C28.568 31.0642 28.0199 31.7898 27.308 32.3081C26.596 32.8148 25.7655 33.0682 24.8162 33.0682ZM24.8162 31.0297C25.5621 31.0297 26.1553 30.6554 26.596 29.9068C27.0481 29.1582 27.2741 28.1216 27.2741 26.7972C27.2741 25.4727 27.0481 24.4362 26.596 23.6876C26.1553 22.9389 25.5621 22.5646 24.8162 22.5646C24.0704 22.5646 23.4715 22.9389 23.0195 23.6876C22.5787 24.4362 22.3584 25.4727 22.3584 26.7972C22.3584 28.1216 22.5787 29.1582 23.0195 29.9068C23.4715 30.6554 24.0704 31.0297 24.8162 31.0297Z" fill="white"/>
<path fill-rule="evenodd" clip-rule="evenodd" d="M25.3671 1.7734L21.5689 6.11171C23.1468 6.37378 24.824 6.78842 26.4417 7.33664C28.9692 8.19318 31.4714 9.41605 33.2291 10.996C36.5924 14.0191 38.8612 18.1065 39.6711 22.6018C40.481 27.0971 39.7851 31.7394 37.695 35.7831C35.605 39.8268 32.2422 43.0373 28.1466 44.899C24.051 46.7607 19.4604 47.1655 15.1119 46.0485C10.7635 44.9315 6.90951 42.3574 4.16903 38.7397C1.42854 35.1219 -0.0394554 30.6705 0.000804901 26.1002C0.00728226 25.3647 0.59758 24.7738 1.31926 24.7804C2.04095 24.787 2.62074 25.3886 2.61426 26.1241C2.57926 30.0972 3.85542 33.9669 6.23778 37.1119C8.62015 40.2569 11.9705 42.4946 15.7507 43.4656C19.5309 44.4367 23.5217 44.0848 27.082 42.4663C30.6424 40.8479 33.5658 38.057 35.3827 34.5417C37.1996 31.0264 37.8046 26.9908 37.1005 23.0829C36.3964 19.175 34.4241 15.6218 31.5003 12.9937C30.1145 11.748 27.9833 10.6661 25.617 9.86424C24.4727 9.47644 23.3015 9.16357 22.1741 8.93158L25.3657 12.6642L23.3954 14.4142L17.9278 8.01993C17.4952 7.51397 17.4996 6.75898 17.938 6.25822L23.417 0L25.3671 1.7734ZM17.7531 1.67737L13.4657 7.10996L17.7596 12.1221L15.7909 13.874L10.7766 8.021C10.3599 7.53456 10.3456 6.81353 10.7427 6.31033L15.7165 0.00793517L17.7531 1.67737Z" fill="white"/>
</svg>
