<svg width="123" height="151" viewBox="0 0 123 151" fill="none" xmlns="http://www.w3.org/2000/svg">
<mask id="path-1-outside-1_3447_1461" maskUnits="userSpaceOnUse" x="-0.800049" y="-0.200012" width="124" height="151" fill="black">
<rect fill="white" x="-0.800049" y="-0.200012" width="124" height="151"/>
<path d="M29.5 146.8L87.0281 16.648L95.596 30.928H18.688L33.376 15.424V54.184H4.00005V3.99998H118.444V25.42L65.404 146.8H29.5Z"/>
</mask>
<path d="M29.5 146.8L25.8415 145.183L23.3587 150.8H29.5V146.8ZM87.0281 16.648L90.458 14.59L86.4886 7.97426L83.3695 15.0309L87.0281 16.648ZM95.596 30.928V34.928H102.661L99.026 28.87L95.596 30.928ZM18.688 30.928L15.7842 28.177L9.38857 34.928H18.688V30.928ZM33.376 15.424H37.376V5.38564L30.4722 12.673L33.376 15.424ZM33.376 54.184V58.184H37.376V54.184H33.376ZM4.00005 54.184H4.50313e-05V58.184H4.00005V54.184ZM4.00005 3.99998V-2.19345e-05H4.50313e-05V3.99998H4.00005ZM118.444 3.99998H122.444V-2.19345e-05H118.444V3.99998ZM118.444 25.42L122.109 27.0216L122.444 26.2558V25.42H118.444ZM65.404 146.8V150.8H68.0214L69.0694 148.402L65.404 146.8ZM29.5 146.8L33.1586 148.417L90.6866 18.2651L87.0281 16.648L83.3695 15.0309L25.8415 145.183L29.5 146.8ZM87.0281 16.648L83.5981 18.706L92.1661 32.986L95.596 30.928L99.026 28.87L90.458 14.59L87.0281 16.648ZM95.596 30.928V26.928H18.688V30.928V34.928H95.596V30.928ZM18.688 30.928L21.5919 33.679L36.2799 18.175L33.376 15.424L30.4722 12.673L15.7842 28.177L18.688 30.928ZM33.376 15.424H29.376V54.184H33.376H37.376V15.424H33.376ZM33.376 54.184V50.184H4.00005V54.184V58.184H33.376V54.184ZM4.00005 54.184H8.00005V3.99998H4.00005H4.50313e-05V54.184H4.00005ZM4.00005 3.99998V7.99998H118.444V3.99998V-2.19345e-05H4.00005V3.99998ZM118.444 3.99998H114.444V25.42H118.444H122.444V3.99998H118.444ZM118.444 25.42L114.779 23.8183L61.7387 145.198L65.404 146.8L69.0694 148.402L122.109 27.0216L118.444 25.42ZM65.404 146.8V142.8H29.5V146.8V150.8H65.404V146.8Z" fill="white" fill-opacity="0.3" mask="url(#path-1-outside-1_3447_1461)"/>
</svg>
