<svg width="217" height="156" viewBox="0 0 217 156" fill="none" xmlns="http://www.w3.org/2000/svg">
<mask id="path-1-outside-1_3447_1461" maskUnits="userSpaceOnUse" x="-0.0842285" y="-0.752014" width="217" height="157" fill="black">
<rect fill="white" x="-0.0842285" y="-0.752014" width="217" height="157"/>
<path d="M32.56 149.248V18.688L46.84 32.968H4.00002V6.44798H65.608V149.248H32.56ZM151.615 151.696C139.919 151.696 129.447 148.84 120.199 143.128C110.951 137.28 103.675 128.848 98.3707 117.832C93.0667 106.816 90.4147 93.488 90.4147 77.848C90.4147 62.208 93.0667 48.88 98.3707 37.864C103.675 26.848 110.951 18.484 120.199 12.772C129.447 6.92398 139.919 3.99998 151.615 3.99998C163.447 3.99998 173.919 6.92398 183.031 12.772C192.279 18.484 199.555 26.848 204.859 37.864C210.163 48.88 212.815 62.208 212.815 77.848C212.815 93.488 210.163 106.816 204.859 117.832C199.555 128.848 192.279 137.28 183.031 143.128C173.919 148.84 163.447 151.696 151.615 151.696ZM151.615 123.748C157.191 123.748 162.019 122.184 166.099 119.056C170.315 115.928 173.579 110.964 175.891 104.164C178.339 97.364 179.563 88.592 179.563 77.848C179.563 67.104 178.339 58.332 175.891 51.532C173.579 44.732 170.315 39.768 166.099 36.64C162.019 33.512 157.191 31.948 151.615 31.948C146.175 31.948 141.347 33.512 137.131 36.64C133.051 39.768 129.787 44.732 127.339 51.532C125.027 58.332 123.871 67.104 123.871 77.848C123.871 88.592 125.027 97.364 127.339 104.164C129.787 110.964 133.051 115.928 137.131 119.056C141.347 122.184 146.175 123.748 151.615 123.748Z"/>
</mask>
<path d="M32.56 149.248H28.56V153.248H32.56V149.248ZM32.56 18.688L35.3884 15.8595L28.56 9.03112V18.688H32.56ZM46.84 32.968V36.968H56.4969L49.6684 30.1395L46.84 32.968ZM4.00002 32.968H2.15285e-05V36.968H4.00002V32.968ZM4.00002 6.44798V2.44798H2.15285e-05V6.44798H4.00002ZM65.608 6.44798H69.608V2.44798H65.608V6.44798ZM65.608 149.248V153.248H69.608V149.248H65.608ZM32.56 149.248H36.56V18.688H32.56H28.56V149.248H32.56ZM32.56 18.688L29.7316 21.5164L44.0116 35.7964L46.84 32.968L49.6684 30.1395L35.3884 15.8595L32.56 18.688ZM46.84 32.968V28.968H4.00002V32.968V36.968H46.84V32.968ZM4.00002 32.968H8.00002V6.44798H4.00002H2.15285e-05V32.968H4.00002ZM4.00002 6.44798V10.448H65.608V6.44798V2.44798H4.00002V6.44798ZM65.608 6.44798H61.608V149.248H65.608H69.608V6.44798H65.608ZM65.608 149.248V145.248H32.56V149.248V153.248H65.608V149.248ZM120.199 143.128L118.061 146.509L118.079 146.52L118.097 146.531L120.199 143.128ZM98.3707 117.832L94.7667 119.567L98.3707 117.832ZM98.3707 37.864L101.975 39.5992L101.975 39.5992L98.3707 37.864ZM120.199 12.772L122.301 16.1752L122.319 16.1641L122.337 16.1528L120.199 12.772ZM183.031 12.772L180.87 16.1383L180.899 16.157L180.929 16.1752L183.031 12.772ZM204.859 37.864L201.255 39.5992L201.255 39.5992L204.859 37.864ZM204.859 117.832L201.255 116.097L201.255 116.097L204.859 117.832ZM183.031 143.128L185.155 146.517L185.162 146.513L185.169 146.509L183.031 143.128ZM166.099 119.056L163.715 115.844L163.69 115.862L163.665 115.882L166.099 119.056ZM175.891 104.164L172.127 102.809L172.115 102.843L172.104 102.876L175.891 104.164ZM175.891 51.532L172.104 52.8196L172.115 52.8533L172.127 52.8869L175.891 51.532ZM166.099 36.64L163.665 39.8144L163.69 39.8336L163.715 39.8524L166.099 36.64ZM137.131 36.64L134.747 33.4276L134.722 33.4464L134.697 33.4656L137.131 36.64ZM127.339 51.532L123.575 50.1771L123.563 50.2106L123.552 50.2444L127.339 51.532ZM127.339 104.164L123.552 105.452L123.563 105.485L123.575 105.519L127.339 104.164ZM137.131 119.056L134.697 122.23L134.722 122.25L134.747 122.268L137.131 119.056ZM151.615 151.696V147.696C140.603 147.696 130.869 145.017 122.301 139.725L120.199 143.128L118.097 146.531C128.025 152.663 139.235 155.696 151.615 155.696V151.696ZM120.199 143.128L122.337 139.747C113.794 134.345 106.993 126.519 101.975 116.097L98.3707 117.832L94.7667 119.567C100.356 131.177 108.107 140.215 118.061 146.509L120.199 143.128ZM98.3707 117.832L101.975 116.097C96.9936 105.751 94.4147 93.0494 94.4147 77.848H90.4147H86.4147C86.4147 93.9266 89.1398 107.881 94.7667 119.567L98.3707 117.832ZM90.4147 77.848H94.4147C94.4147 62.6466 96.9936 49.9446 101.975 39.5992L98.3707 37.864L94.7667 36.1287C89.1398 47.8154 86.4147 61.7694 86.4147 77.848H90.4147ZM98.3707 37.864L101.975 39.5992C106.99 29.1827 113.781 21.4373 122.301 16.1752L120.199 12.772L118.097 9.36879C108.12 15.5307 100.359 24.5133 94.7667 36.1287L98.3707 37.864ZM120.199 12.772L122.337 16.1528C130.9 10.7374 140.621 7.99998 151.615 7.99998V3.99998V-1.66893e-05C139.216 -1.66893e-05 127.993 3.11055 118.061 9.39121L120.199 12.772ZM151.615 3.99998V7.99998C162.755 7.99998 172.462 10.7422 180.87 16.1383L183.031 12.772L185.191 9.40563C175.375 3.10574 164.139 -1.66893e-05 151.615 -1.66893e-05V3.99998ZM183.031 12.772L180.929 16.1752C189.448 21.4373 196.239 29.1827 201.255 39.5992L204.859 37.864L208.463 36.1287C202.87 24.5133 195.109 15.5307 185.133 9.36879L183.031 12.772ZM204.859 37.864L201.255 39.5992C206.236 49.9446 208.815 62.6466 208.815 77.848H212.815H216.815C216.815 61.7694 214.09 47.8154 208.463 36.1287L204.859 37.864ZM212.815 77.848H208.815C208.815 93.0494 206.236 105.751 201.255 116.097L204.859 117.832L208.463 119.567C214.09 107.881 216.815 93.9266 216.815 77.848H212.815ZM204.859 117.832L201.255 116.097C196.236 126.519 189.435 134.345 180.893 139.747L183.031 143.128L185.169 146.509C195.122 140.215 202.873 131.177 208.463 119.567L204.859 117.832ZM183.031 143.128L180.906 139.739C172.494 145.012 162.773 147.696 151.615 147.696V151.696V155.696C164.12 155.696 175.344 152.668 185.155 146.517L183.031 143.128ZM151.615 123.748V127.748C157.992 127.748 163.694 125.94 168.532 122.23L166.099 119.056L163.665 115.882C160.344 118.428 156.39 119.748 151.615 119.748V123.748ZM166.099 119.056L168.482 122.268C173.551 118.508 177.198 112.745 179.678 105.452L175.891 104.164L172.104 102.876C169.959 109.183 167.078 113.348 163.715 115.844L166.099 119.056ZM175.891 104.164L179.654 105.519C182.315 98.1274 183.563 88.851 183.563 77.848H179.563H175.563C175.563 88.333 174.362 96.6005 172.127 102.809L175.891 104.164ZM179.563 77.848H183.563C183.563 66.845 182.315 57.5685 179.654 50.1771L175.891 51.532L172.127 52.8869C174.362 59.0954 175.563 67.363 175.563 77.848H179.563ZM175.891 51.532L179.678 50.2444C177.198 42.9512 173.551 37.1884 168.482 33.4276L166.099 36.64L163.715 39.8524C167.078 42.3475 169.959 46.5128 172.104 52.8196L175.891 51.532ZM166.099 36.64L168.532 33.4656C163.694 29.7559 157.992 27.948 151.615 27.948V31.948V35.948C156.39 35.948 160.344 37.268 163.665 39.8144L166.099 36.64ZM151.615 31.948V27.948C145.35 27.948 139.679 29.7686 134.747 33.4276L137.131 36.64L139.514 39.8524C143.014 37.2554 147 35.948 151.615 35.948V31.948ZM137.131 36.64L134.697 33.4656C129.809 37.2132 126.182 42.9361 123.575 50.1771L127.339 51.532L131.102 52.8869C133.392 46.5278 136.293 42.3227 139.564 39.8144L137.131 36.64ZM127.339 51.532L123.552 50.2444C121.047 57.6104 119.871 66.8611 119.871 77.848H123.871H127.871C127.871 67.3468 129.006 59.0536 131.126 52.8196L127.339 51.532ZM123.871 77.848H119.871C119.871 88.8348 121.047 98.0856 123.552 105.452L127.339 104.164L131.126 102.876C129.006 96.6424 127.871 88.3491 127.871 77.848H123.871ZM127.339 104.164L123.575 105.519C126.182 112.76 129.809 118.483 134.697 122.23L137.131 119.056L139.564 115.882C136.293 113.373 133.392 109.168 131.102 102.809L127.339 104.164ZM137.131 119.056L134.747 122.268C139.679 125.927 145.35 127.748 151.615 127.748V123.748V119.748C147 119.748 143.014 118.441 139.514 115.844L137.131 119.056Z" fill="white" fill-opacity="0.3" mask="url(#path-1-outside-1_3447_1461)"/>
</svg>
