<svg width="18" height="20" viewBox="0 0 18 20" fill="none" xmlns="http://www.w3.org/2000/svg">
<path fill-rule="evenodd" clip-rule="evenodd" d="M10.2351 18.043V14.8627C10.2351 14.6481 10.2787 14.4309 10.3677 14.2292C11.7804 11.029 13.864 9.46007 15.8629 9.10301C15.9118 9.09428 15.9515 9.06947 15.9736 9.0455C15.9836 9.03467 15.9872 9.02708 15.9881 9.02484L15.9884 3.88809C15.9884 3.88809 15.9866 3.88571 15.9847 3.88388C15.9766 3.87636 15.965 3.87156 15.9514 3.87239C14.3143 3.97142 13.2526 3.79604 12.4388 3.5191C12.0383 3.38282 11.7143 3.22728 11.4417 3.09309C11.4178 3.08135 11.3945 3.06988 11.3718 3.05867C11.1252 2.93704 10.9413 2.84635 10.7443 2.77654C10.6334 2.73723 10.2989 2.68792 9.71639 2.66127C9.17092 2.63632 8.4968 2.63356 7.77744 2.64536C6.34034 2.66892 4.75964 2.74987 3.74413 2.81736L3.71977 2.81898H3.69536C3.58364 2.81898 3.51368 2.83311 3.47385 2.84574C3.43636 2.85762 3.42335 2.86871 3.42141 2.87037C3.41939 2.87209 3.41386 2.87687 3.4054 2.89313C3.39587 2.91147 3.38231 2.94538 3.37098 3.00186C3.31511 3.28013 3.37572 3.68468 3.46152 4.16222C3.55543 4.68481 3.29069 5.13928 2.93899 5.37236C2.32618 5.77848 2.3103 6.27026 2.36423 6.43632C2.46399 6.7435 2.49957 7.19938 2.24055 7.60579C1.98495 8.00681 1.99231 8.26369 2.03082 8.42191C2.07773 8.61464 2.2084 8.80516 2.39451 8.98736C2.8135 9.39756 2.86295 10.024 2.61848 10.4918C2.51467 10.6904 2.5151 10.8196 2.53024 10.9012C2.5478 10.9959 2.60103 11.1044 2.70441 11.2203C2.80838 11.3369 2.94118 11.4354 3.06399 11.5029C3.12176 11.5347 3.16858 11.5548 3.1988 11.5656H7.3553L7.3553 14.2826C7.3553 16.67 7.906 17.5555 8.35897 17.8886C8.82474 18.2311 9.47321 18.2137 10.2351 18.043ZM7.47945 19.151C6.41555 18.3686 5.8442 16.8181 5.8442 14.2826V13.1181H3.14407C2.97943 13.1181 2.8259 13.0748 2.71994 13.0381C2.59987 12.9965 2.47439 12.9397 2.35058 12.8716C2.10521 12.7365 1.8288 12.5365 1.5904 12.2693C1.35141 12.0014 1.12911 11.6408 1.04585 11.1918C0.971487 10.7909 1.01764 10.3696 1.19631 9.94917C0.94809 9.67373 0.6847 9.29087 0.564867 8.79857C0.418665 8.19793 0.510942 7.53873 0.910769 6.8621C0.661283 5.99237 0.995903 4.92073 1.93248 4.20146C1.86252 3.79012 1.78667 3.20809 1.89103 2.68825C1.95984 2.34547 2.11773 1.96434 2.45656 1.67553C2.79045 1.39093 3.21193 1.27099 3.66909 1.26659C4.70213 1.19828 6.29572 1.11693 7.75333 1.09303C8.48663 1.08101 9.19478 1.08335 9.78361 1.11029C10.3354 1.13553 10.8872 1.18489 11.2371 1.3089C11.5216 1.40976 11.7852 1.54008 12.0178 1.6551C12.0438 1.66793 12.0694 1.68057 12.0945 1.69296C12.3554 1.82137 12.6085 1.94139 12.9139 2.04532C13.5118 2.2488 14.3768 2.41244 15.8625 2.32255C16.7177 2.27082 17.4995 2.95415 17.4995 3.88758L17.4995 9.02397C17.4995 9.90654 16.8162 10.5085 16.1218 10.6326C14.7255 10.882 13.0027 12.0223 11.7462 14.8652V18.051C11.7462 18.7463 11.2897 19.3932 10.5866 19.5532C9.77982 19.7368 8.52555 19.9203 7.47945 19.151Z" fill="white"/>
</svg>
