<svg width="18" height="20" viewBox="0 0 18 20" fill="none" xmlns="http://www.w3.org/2000/svg">
<path fill-rule="evenodd" clip-rule="evenodd" d="M7.76486 1.95723V5.13755C7.76486 5.35213 7.7213 5.56938 7.63226 5.77108C6.21955 8.97124 4.13598 10.5402 2.13708 10.8972C2.0882 10.906 2.0485 10.9308 2.02642 10.9547C2.01644 10.9656 2.01281 10.9732 2.01189 10.9754L2.01159 16.1122C2.01159 16.1122 2.01338 16.1145 2.01533 16.1164C2.02337 16.1239 2.03499 16.1287 2.04863 16.1279C3.68566 16.0288 4.74742 16.2042 5.56122 16.4811C5.96167 16.6174 6.28572 16.773 6.55835 16.9072C6.5822 16.9189 6.60545 16.9304 6.62818 16.9416C6.87485 17.0632 7.05875 17.1539 7.25572 17.2237C7.36661 17.263 7.70114 17.3123 8.28361 17.339C8.82908 17.3639 9.5032 17.3667 10.2226 17.3549C11.6597 17.3313 13.2404 17.2504 14.2559 17.1829L14.2802 17.1813H14.3046C14.4164 17.1813 14.4863 17.1671 14.5262 17.1545C14.5636 17.1426 14.5766 17.1315 14.5786 17.1299C14.5806 17.1282 14.5861 17.1234 14.5946 17.1071C14.6041 17.0888 14.6177 17.0549 14.629 16.9984C14.6849 16.7201 14.6243 16.3156 14.5385 15.838C14.4446 15.3154 14.7093 14.861 15.061 14.6279C15.6738 14.2218 15.6897 13.73 15.6358 13.5639C15.536 13.2567 15.5004 12.8009 15.7595 12.3945C16.015 11.9934 16.0077 11.7366 15.9692 11.5783C15.9223 11.3856 15.7916 11.1951 15.6055 11.0129C15.1865 10.6027 15.1371 9.97627 15.3815 9.50848C15.4853 9.30984 15.4849 9.18065 15.4698 9.099C15.4522 9.00432 15.399 8.89583 15.2956 8.77994C15.1916 8.66338 15.0588 8.56487 14.936 8.4973C14.8782 8.46551 14.8314 8.44541 14.8012 8.43464H10.6447V5.71768C10.6447 3.33028 10.094 2.44477 9.64103 2.11166C9.17526 1.76913 8.52679 1.78658 7.76486 1.95723ZM10.5205 0.849209C11.5845 1.6316 12.1558 3.18216 12.1558 5.71768V6.88213H14.8559C15.0206 6.88213 15.1741 6.92542 15.2801 6.96212C15.4001 7.0037 15.5256 7.06057 15.6494 7.12869C15.8948 7.26371 16.1712 7.46373 16.4096 7.73097C16.6486 7.99888 16.8709 8.35944 16.9542 8.80841C17.0285 9.20936 16.9824 9.63069 16.8037 10.0511C17.0519 10.3265 17.3153 10.7094 17.4351 11.2017C17.5813 11.8023 17.4891 12.4615 17.0892 13.1381C17.3387 14.0079 17.0041 15.0795 16.0675 15.7988C16.1375 16.2101 16.2133 16.7922 16.109 17.312C16.0402 17.6548 15.8823 18.0359 15.5434 18.3247C15.2095 18.6093 14.7881 18.7293 14.3309 18.7337C13.2979 18.802 11.7043 18.8833 10.2467 18.9072C9.51337 18.9192 8.80522 18.9169 8.21639 18.89C7.66457 18.8647 7.11278 18.8154 6.7629 18.6913C6.47835 18.5905 6.21479 18.4602 5.98215 18.3451C5.9562 18.3323 5.93063 18.3197 5.90546 18.3073C5.64457 18.1789 5.3915 18.0589 5.08609 17.9549C4.48815 17.7514 3.6232 17.5878 2.13746 17.6777C1.28233 17.7294 0.500488 17.0461 0.500488 16.1127V10.9763C0.500488 10.0937 1.1838 9.49171 1.87824 9.36767C3.27448 9.11826 4.99728 7.97793 6.25376 5.13508V1.94921C6.25376 1.25391 6.71025 0.607023 7.41343 0.447018C8.22018 0.263443 9.47445 0.0799238 10.5205 0.849209Z" fill="white"/>
</svg>
